<ttFont>
<head>
    <!-- Most of this table will be recalculated by the compiler -->
    <tableVersion value="1.0"/>
    <fontRevision value="2.1"/>
    <checkSumAdjustment value="0xc30ff479"/>
    <magicNumber value="0x5f0f3cf5"/>
    <flags value="00000000 00001111"/>
    <unitsPerEm value="2048"/>
    <created value="Fri Jan 10 22:20:27 2020"/>
    <modified value="Fri Jan 10 22:41:51 2020"/>
    <xMin value="-80"/>
    <yMin value="-400"/>
    <xMax value="2060"/>
    <yMax value="1800"/>
    <macStyle value="00000000 00000000"/>
    <lowestRecPPEM value="6"/>
    <fontDirectionHint value="2"/>
    <indexToLocFormat value="0"/>
    <glyphDataFormat value="0"/>
  </head>
    <TTGlyph name=".notdef" xMin="100" yMin="0" xMax="964" yMax="1400">
      <contour>
        <pt x="100" y="1400" on="1"/>
        <pt x="964" y="1400" on="1"/>
        <pt x="964" y="0" on="1"/>
        <pt x="100" y="0" on="1"/>
      </contour>
      <contour>
        <pt x="270" y="170" on="1"/>
        <pt x="794" y="170" on="1"/>
        <pt x="794" y="1230" on="1"/>
        <pt x="270" y="1230" on="1"/>
      </contour>
    </TTGlyph>
    <TTGlyph name="A" xMin="0" yMin="0" xMax="940" yMax="1400">
      <contour>
        <pt x="230" y="0" on="1"/>
        <pt x="0" y="0" on="1"/>
        <pt x="350" y="1400" on="1"/>
        <pt x="590" y="1400" on="1"/>
        <pt x="940" y="0" on="1"/>
        <pt x="710" y="0" on="1"/>
        <pt x="644" y="260" on="1"/>
        <pt x="296" y="260" on="1"/>
      </contour>
      <contour>
        <pt x="349" y="470" on="1"/>
        <pt x="591" y="470" on="1"/>
        <pt x="470" y="945" on="1"/>
      </contour>
    </TTGlyph>
    <TTGlyph name="AE" xMin="100" yMin="0" xMax="1361" yMax="1400">
      <contour>
        <pt x="899" y="240" on="1"/>
        <pt x="1361" y="240" on="1"/>
        <pt x="1361" y="0" on="1"/>
        <pt x="649" y="0" on="1"/>
        <pt x="649" y="318" on="1"/>
        <pt x="412" y="318" on="1"/>
        <pt x="330" y="0" on="1"/>
        <pt x="100" y="0" on="1"/>
        <pt x="450" y="1400" on="1"/>
        <pt x="1360" y="1400" on="1"/>
        <pt x="1360" y="1170" on="1"/>
        <pt x="899" y="1170" on="1"/>
        <pt x="899" y="800" on="1"/>
        <pt x="1279" y="800" on="1"/>
        <pt x="1279" y="580" on="1"/>
        <pt x="899" y="580" on="1"/>
      </contour>
      <contour>
        <pt x="649" y="548" on="1"/>
        <pt x="649" y="1170" on="1"/>
        <pt x="631" y="1170" on="1"/>
        <pt x="471" y="548" on="1"/>
      </contour>
    </TTGlyph>
    <TTGlyph name="Aacute" xMin="0" yMin="0" xMax="940" yMax="1750">
      <contour>
        <pt x="760" y="1750" on="1"/>
        <pt x="560" y="1490" on="1"/>
        <pt x="400" y="1490" on="1"/>
        <pt x="540" y="1750" on="1"/>
      </contour>
      <contour>
        <pt x="230" y="0" on="1"/>
        <pt x="0" y="0" on="1"/>
        <pt x="350" y="1400" on="1"/>
        <pt x="590" y="1400" on="1"/>
        <pt x="940" y="0" on="1"/>
        <pt x="710" y="0" on="1"/>
        <pt x="644" y="260" on="1"/>
        <pt x="296" y="260" on="1"/>
      </contour>
      <contour>
        <pt x="349" y="470" on="1"/>
        <pt x="591" y="470" on="1"/>
        <pt x="470" y="945" on="1"/>
      </contour>
    </TTGlyph>
    <TTGlyph name="Abreve" xMin="0" yMin="0" xMax="940" yMax="1700">
      <contour>
        <pt x="470" y="1504" on="1"/>
        <pt x="398" y="1504" on="0"/>
        <pt x="285" y="1598" on="0"/>
        <pt x="274" y="1667" on="1"/>
        <pt x="385" y="1700" on="1"/>
        <pt x="385" y="1667" on="0"/>
        <pt x="437" y="1619" on="0"/>
        <pt x="470" y="1619" on="1"/>
        <pt x="503" y="1619" on="0"/>
        <pt x="555" y="1667" on="0"/>
        <pt x="555" y="1700" on="1"/>
        <pt x="666" y="1667" on="1"/>
        <pt x="655" y="1598" on="0"/>
        <pt x="542" y="1504" on="0"/>
      </contour>
      <contour>
        <pt x="230" y="0" on="1"/>
        <pt x="0" y="0" on="1"/>
        <pt x="350" y="1400" on="1"/>
        <pt x="590" y="1400" on="1"/>
        <pt x="940" y="0" on="1"/>
        <pt x="710" y="0" on="1"/>
        <pt x="644" y="260" on="1"/>
        <pt x="296" y="260" on="1"/>
      </contour>
      <contour>
        <pt x="349" y="470" on="1"/>
        <pt x="591" y="470" on="1"/>
        <pt x="470" y="945" on="1"/>
      </contour>
    </TTGlyph>
    <TTGlyph name="Acircumflex" xMin="0" yMin="0" xMax="940" yMax="1800">
      <contour>
        <pt x="384" y="1800" on="1"/>
        <pt x="557" y="1800" on="1"/>
        <pt x="741" y="1500" on="1"/>
        <pt x="586" y="1500" on="1"/>
        <pt x="471" y="1682" on="1"/>
        <pt x="355" y="1500" on="1"/>
        <pt x="200" y="1500" on="1"/>
      </contour>
      <contour>
        <pt x="230" y="0" on="1"/>
        <pt x="0" y="0" on="1"/>
        <pt x="350" y="1400" on="1"/>
        <pt x="590" y="1400" on="1"/>
        <pt x="940" y="0" on="1"/>
        <pt x="710" y="0" on="1"/>
        <pt x="644" y="260" on="1"/>
        <pt x="296" y="260" on="1"/>
      </contour>
      <contour>
        <pt x="349" y="470" on="1"/>
        <pt x="591" y="470" on="1"/>
        <pt x="470" y="945" on="1"/>
      </contour>
    </TTGlyph>
    <TTGlyph name="Adieresis" xMin="0" yMin="0" xMax="940" yMax="1700">
      <contour>
        <pt x="275" y="1700" on="1"/>
        <pt x="425" y="1700" on="1"/>
        <pt x="425" y="1550" on="1"/>
        <pt x="275" y="1550" on="1"/>
      </contour>
      <contour>
        <pt x="515" y="1700" on="1"/>
        <pt x="665" y="1700" on="1"/>
        <pt x="665" y="1550" on="1"/>
        <pt x="515" y="1550" on="1"/>
      </contour>
      <contour>
        <pt x="230" y="0" on="1"/>
        <pt x="0" y="0" on="1"/>
        <pt x="350" y="1400" on="1"/>
        <pt x="590" y="1400" on="1"/>
        <pt x="940" y="0" on="1"/>
        <pt x="710" y="0" on="1"/>
        <pt x="644" y="260" on="1"/>
        <pt x="296" y="260" on="1"/>
      </contour>
      <contour>
        <pt x="349" y="470" on="1"/>
        <pt x="591" y="470" on="1"/>
        <pt x="470" y="945" on="1"/>
      </contour>
    </TTGlyph>
    <TTGlyph name="Agrave" xMin="0" yMin="0" xMax="940" yMax="1750">
      <contour>
        <pt x="400" y="1490" on="1"/>
        <pt x="200" y="1750" on="1"/>
        <pt x="420" y="1750" on="1"/>
        <pt x="560" y="1490" on="1"/>
      </contour>
      <contour>
        <pt x="230" y="0" on="1"/>
        <pt x="0" y="0" on="1"/>
        <pt x="350" y="1400" on="1"/>
        <pt x="590" y="1400" on="1"/>
        <pt x="940" y="0" on="1"/>
        <pt x="710" y="0" on="1"/>
        <pt x="644" y="260" on="1"/>
        <pt x="296" y="260" on="1"/>
      </contour>
      <contour>
        <pt x="349" y="470" on="1"/>
        <pt x="591" y="470" on="1"/>
        <pt x="470" y="945" on="1"/>
      </contour>
    </TTGlyph>
    <TTGlyph name="Amacron" xMin="0" yMin="0" xMax="940" yMax="1640">
      <contour>
        <pt x="250" y="1640" on="1"/>
        <pt x="690" y="1640" on="1"/>
        <pt x="690" y="1530" on="1"/>
        <pt x="250" y="1530" on="1"/>
      </contour>
      <contour>
        <pt x="230" y="0" on="1"/>
        <pt x="0" y="0" on="1"/>
        <pt x="350" y="1400" on="1"/>
        <pt x="590" y="1400" on="1"/>
        <pt x="940" y="0" on="1"/>
        <pt x="710" y="0" on="1"/>
        <pt x="644" y="260" on="1"/>
        <pt x="296" y="260" on="1"/>
      </contour>
      <contour>
        <pt x="349" y="470" on="1"/>
        <pt x="591" y="470" on="1"/>
        <pt x="470" y="945" on="1"/>
      </contour>
    </TTGlyph>
    <TTGlyph name="Aogonek" xMin="-80" yMin="-390" xMax="940" yMax="1400">
      <contour>
        <pt x="230" y="0" on="1"/>
        <pt x="80" y="-153" on="1"/>
        <pt x="80" y="-167" on="1"/>
        <pt x="80" y="-193" on="0"/>
        <pt x="116" y="-230" on="0"/>
        <pt x="142" y="-230" on="1"/>
        <pt x="277" y="-230" on="1"/>
        <pt x="303" y="-230" on="0"/>
        <pt x="340" y="-193" on="0"/>
        <pt x="340" y="-167" on="1"/>
        <pt x="340" y="-155" on="1"/>
        <pt x="500" y="-155" on="1"/>
        <pt x="500" y="-230" on="1"/>
        <pt x="500" y="-296" on="0"/>
        <pt x="406" y="-390" on="0"/>
        <pt x="340" y="-390" on="1"/>
        <pt x="80" y="-390" on="1"/>
        <pt x="14" y="-390" on="0"/>
        <pt x="-80" y="-296" on="0"/>
        <pt x="-80" y="-230" on="1"/>
        <pt x="-80" y="-80" on="1"/>
        <pt x="0" y="0" on="1"/>
        <pt x="350" y="1400" on="1"/>
        <pt x="590" y="1400" on="1"/>
        <pt x="940" y="0" on="1"/>
        <pt x="710" y="0" on="1"/>
        <pt x="644" y="260" on="1"/>
        <pt x="296" y="260" on="1"/>
      </contour>
      <contour>
        <pt x="349" y="470" on="1"/>
        <pt x="591" y="470" on="1"/>
        <pt x="470" y="945" on="1"/>
      </contour>
    </TTGlyph>
    <TTGlyph name="Aring" xMin="0" yMin="0" xMax="940" yMax="1800">
      <contour>
        <pt x="610" y="1661" on="1"/>
        <pt x="610" y="1626" on="1"/>
        <pt x="610" y="1568" on="0"/>
        <pt x="529" y="1490" on="0"/>
        <pt x="470" y="1490" on="1"/>
        <pt x="411" y="1490" on="0"/>
        <pt x="330" y="1568" on="0"/>
        <pt x="330" y="1626" on="1"/>
        <pt x="330" y="1661" on="1"/>
        <pt x="330" y="1719" on="0"/>
        <pt x="411" y="1800" on="0"/>
        <pt x="470" y="1800" on="1"/>
        <pt x="529" y="1800" on="0"/>
        <pt x="610" y="1719" on="0"/>
      </contour>
      <contour>
        <pt x="525" y="1659" on="1"/>
        <pt x="525" y="1690" on="0"/>
        <pt x="493" y="1730" on="0"/>
        <pt x="470" y="1730" on="1"/>
        <pt x="448" y="1730" on="0"/>
        <pt x="415" y="1690" on="0"/>
        <pt x="415" y="1659" on="1"/>
        <pt x="415" y="1631" on="1"/>
        <pt x="415" y="1600" on="0"/>
        <pt x="448" y="1560" on="0"/>
        <pt x="470" y="1560" on="1"/>
        <pt x="493" y="1560" on="0"/>
        <pt x="525" y="1600" on="0"/>
        <pt x="525" y="1631" on="1"/>
      </contour>
      <contour>
        <pt x="230" y="0" on="1"/>
        <pt x="0" y="0" on="1"/>
        <pt x="350" y="1400" on="1"/>
        <pt x="590" y="1400" on="1"/>
        <pt x="940" y="0" on="1"/>
        <pt x="710" y="0" on="1"/>
        <pt x="644" y="260" on="1"/>
        <pt x="296" y="260" on="1"/>
      </contour>
      <contour>
        <pt x="349" y="470" on="1"/>
        <pt x="591" y="470" on="1"/>
        <pt x="470" y="945" on="1"/>
      </contour>
    </TTGlyph>
    <TTGlyph name="Atilde" xMin="0" yMin="0" xMax="940" yMax="1710">
      <contour>
        <pt x="632" y="1653" on="1"/>
        <pt x="721" y="1626" on="1"/>
        <pt x="711" y="1571" on="0"/>
        <pt x="621" y="1496" on="0"/>
        <pt x="564" y="1496" on="1"/>
        <pt x="515" y="1496" on="0"/>
        <pt x="439" y="1550" on="0"/>
        <pt x="422" y="1593" on="1"/>
        <pt x="403" y="1619" on="0"/>
        <pt x="376" y="1619" on="1"/>
        <pt x="350" y="1619" on="0"/>
        <pt x="308" y="1580" on="0"/>
        <pt x="308" y="1553" on="1"/>
        <pt x="219" y="1580" on="1"/>
        <pt x="228" y="1635" on="0"/>
        <pt x="318" y="1710" on="0"/>
        <pt x="376" y="1710" on="1"/>
        <pt x="425" y="1710" on="0"/>
        <pt x="501" y="1657" on="0"/>
        <pt x="517" y="1613" on="1"/>
        <pt x="526" y="1602" on="0"/>
        <pt x="548" y="1587" on="0"/>
        <pt x="564" y="1587" on="1"/>
        <pt x="590" y="1587" on="0"/>
        <pt x="632" y="1626" on="0"/>
      </contour>
      <contour>
        <pt x="230" y="0" on="1"/>
        <pt x="0" y="0" on="1"/>
        <pt x="350" y="1400" on="1"/>
        <pt x="590" y="1400" on="1"/>
        <pt x="940" y="0" on="1"/>
        <pt x="710" y="0" on="1"/>
        <pt x="644" y="260" on="1"/>
        <pt x="296" y="260" on="1"/>
      </contour>
      <contour>
        <pt x="349" y="470" on="1"/>
        <pt x="591" y="470" on="1"/>
        <pt x="470" y="945" on="1"/>
      </contour>
    </TTGlyph>
    <TTGlyph name="B" xMin="100" yMin="0" xMax="780" yMax="1400">
      <contour>
        <pt x="100" y="0" on="1"/>
        <pt x="100" y="1400" on="1"/>
        <pt x="635" y="1400" on="1"/>
        <pt x="695" y="1400" on="0"/>
        <pt x="780" y="1315" on="0"/>
        <pt x="780" y="1255" on="1"/>
        <pt x="780" y="835" on="1"/>
        <pt x="780" y="790" on="0"/>
        <pt x="729" y="717" on="0"/>
        <pt x="688" y="700" on="1"/>
        <pt x="729" y="684" on="0"/>
        <pt x="780" y="610" on="0"/>
        <pt x="780" y="565" on="1"/>
        <pt x="780" y="145" on="1"/>
        <pt x="780" y="85" on="0"/>
        <pt x="695" y="0" on="0"/>
        <pt x="635" y="0" on="1"/>
      </contour>
      <contour>
        <pt x="350" y="820" on="1"/>
        <pt x="550" y="820" on="1"/>
        <pt x="550" y="1160" on="1"/>
        <pt x="350" y="1160" on="1"/>
      </contour>
      <contour>
        <pt x="350" y="240" on="1"/>
        <pt x="550" y="240" on="1"/>
        <pt x="550" y="580" on="1"/>
        <pt x="350" y="580" on="1"/>
      </contour>
    </TTGlyph>
    <TTGlyph name="C" xMin="100" yMin="0" xMax="810" yMax="1400">
      <contour>
        <pt x="100" y="145" on="1"/>
        <pt x="100" y="1255" on="1"/>
        <pt x="100" y="1315" on="0"/>
        <pt x="185" y="1400" on="0"/>
        <pt x="245" y="1400" on="1"/>
        <pt x="665" y="1400" on="1"/>
        <pt x="725" y="1400" on="0"/>
        <pt x="810" y="1315" on="0"/>
        <pt x="810" y="1255" on="1"/>
        <pt x="810" y="955" on="1"/>
        <pt x="560" y="955" on="1"/>
        <pt x="560" y="1143" on="1"/>
        <pt x="360" y="1143" on="1"/>
        <pt x="360" y="260" on="1"/>
        <pt x="560" y="260" on="1"/>
        <pt x="560" y="445" on="1"/>
        <pt x="810" y="445" on="1"/>
        <pt x="810" y="145" on="1"/>
        <pt x="810" y="86" on="0"/>
        <pt x="726" y="0" on="0"/>
        <pt x="667" y="0" on="1"/>
        <pt x="245" y="0" on="1"/>
        <pt x="185" y="0" on="0"/>
        <pt x="100" y="85" on="0"/>
      </contour>
    </TTGlyph>
    <TTGlyph name="Cacute" xMin="100" yMin="0" xMax="810" yMax="1750">
      <contour>
        <pt x="700" y="1750" on="1"/>
        <pt x="500" y="1490" on="1"/>
        <pt x="340" y="1490" on="1"/>
        <pt x="480" y="1750" on="1"/>
      </contour>
      <contour>
        <pt x="100" y="145" on="1"/>
        <pt x="100" y="1255" on="1"/>
        <pt x="100" y="1315" on="0"/>
        <pt x="185" y="1400" on="0"/>
        <pt x="245" y="1400" on="1"/>
        <pt x="665" y="1400" on="1"/>
        <pt x="725" y="1400" on="0"/>
        <pt x="810" y="1315" on="0"/>
        <pt x="810" y="1255" on="1"/>
        <pt x="810" y="955" on="1"/>
        <pt x="560" y="955" on="1"/>
        <pt x="560" y="1143" on="1"/>
        <pt x="360" y="1143" on="1"/>
        <pt x="360" y="260" on="1"/>
        <pt x="560" y="260" on="1"/>
        <pt x="560" y="445" on="1"/>
        <pt x="810" y="445" on="1"/>
        <pt x="810" y="145" on="1"/>
        <pt x="810" y="86" on="0"/>
        <pt x="726" y="0" on="0"/>
        <pt x="667" y="0" on="1"/>
        <pt x="245" y="0" on="1"/>
        <pt x="185" y="0" on="0"/>
        <pt x="100" y="85" on="0"/>
      </contour>
    </TTGlyph>
    <TTGlyph name="Ccaron" xMin="100" yMin="0" xMax="810" yMax="1800">
      <contour>
        <pt x="369" y="1500" on="1"/>
        <pt x="185" y="1800" on="1"/>
        <pt x="340" y="1800" on="1"/>
        <pt x="456" y="1618" on="1"/>
        <pt x="571" y="1800" on="1"/>
        <pt x="726" y="1800" on="1"/>
        <pt x="542" y="1500" on="1"/>
      </contour>
      <contour>
        <pt x="100" y="145" on="1"/>
        <pt x="100" y="1255" on="1"/>
        <pt x="100" y="1315" on="0"/>
        <pt x="185" y="1400" on="0"/>
        <pt x="245" y="1400" on="1"/>
        <pt x="665" y="1400" on="1"/>
        <pt x="725" y="1400" on="0"/>
        <pt x="810" y="1315" on="0"/>
        <pt x="810" y="1255" on="1"/>
        <pt x="810" y="955" on="1"/>
        <pt x="560" y="955" on="1"/>
        <pt x="560" y="1143" on="1"/>
        <pt x="360" y="1143" on="1"/>
        <pt x="360" y="260" on="1"/>
        <pt x="560" y="260" on="1"/>
        <pt x="560" y="445" on="1"/>
        <pt x="810" y="445" on="1"/>
        <pt x="810" y="145" on="1"/>
        <pt x="810" y="86" on="0"/>
        <pt x="726" y="0" on="0"/>
        <pt x="667" y="0" on="1"/>
        <pt x="245" y="0" on="1"/>
        <pt x="185" y="0" on="0"/>
        <pt x="100" y="85" on="0"/>
      </contour>
    </TTGlyph>
    <TTGlyph name="Ccedilla" xMin="100" yMin="-390" xMax="810" yMax="1400">
      <contour>
        <pt x="100" y="145" on="1"/>
        <pt x="100" y="1255" on="1"/>
        <pt x="100" y="1315" on="0"/>
        <pt x="185" y="1400" on="0"/>
        <pt x="245" y="1400" on="1"/>
        <pt x="665" y="1400" on="1"/>
        <pt x="725" y="1400" on="0"/>
        <pt x="810" y="1315" on="0"/>
        <pt x="810" y="1255" on="1"/>
        <pt x="810" y="955" on="1"/>
        <pt x="560" y="955" on="1"/>
        <pt x="560" y="1143" on="1"/>
        <pt x="360" y="1143" on="1"/>
        <pt x="360" y="260" on="1"/>
        <pt x="560" y="260" on="1"/>
        <pt x="560" y="445" on="1"/>
        <pt x="810" y="445" on="1"/>
        <pt x="810" y="145" on="1"/>
        <pt x="810" y="86" on="0"/>
        <pt x="726" y="0" on="0"/>
        <pt x="667" y="0" on="1"/>
        <pt x="665" y="0" on="1"/>
        <pt x="745" y="-80" on="1"/>
        <pt x="745" y="-230" on="1"/>
        <pt x="745" y="-296" on="0"/>
        <pt x="651" y="-390" on="0"/>
        <pt x="585" y="-390" on="1"/>
        <pt x="325" y="-390" on="1"/>
        <pt x="259" y="-390" on="0"/>
        <pt x="165" y="-296" on="0"/>
        <pt x="165" y="-230" on="1"/>
        <pt x="165" y="-155" on="1"/>
        <pt x="325" y="-155" on="1"/>
        <pt x="325" y="-167" on="1"/>
        <pt x="325" y="-193" on="0"/>
        <pt x="362" y="-230" on="0"/>
        <pt x="388" y="-230" on="1"/>
        <pt x="523" y="-230" on="1"/>
        <pt x="549" y="-230" on="0"/>
        <pt x="585" y="-193" on="0"/>
        <pt x="585" y="-167" on="1"/>
        <pt x="584" y="-149" on="1"/>
        <pt x="439" y="0" on="1"/>
        <pt x="245" y="0" on="1"/>
        <pt x="185" y="0" on="0"/>
        <pt x="100" y="85" on="0"/>
      </contour>
    </TTGlyph>
    <TTGlyph name="Ccircumflex" xMin="100" yMin="0" xMax="810" yMax="1800">
      <contour>
        <pt x="369" y="1800" on="1"/>
        <pt x="542" y="1800" on="1"/>
        <pt x="726" y="1500" on="1"/>
        <pt x="571" y="1500" on="1"/>
        <pt x="456" y="1682" on="1"/>
        <pt x="340" y="1500" on="1"/>
        <pt x="185" y="1500" on="1"/>
      </contour>
      <contour>
        <pt x="100" y="145" on="1"/>
        <pt x="100" y="1255" on="1"/>
        <pt x="100" y="1315" on="0"/>
        <pt x="185" y="1400" on="0"/>
        <pt x="245" y="1400" on="1"/>
        <pt x="665" y="1400" on="1"/>
        <pt x="725" y="1400" on="0"/>
        <pt x="810" y="1315" on="0"/>
        <pt x="810" y="1255" on="1"/>
        <pt x="810" y="955" on="1"/>
        <pt x="560" y="955" on="1"/>
        <pt x="560" y="1143" on="1"/>
        <pt x="360" y="1143" on="1"/>
        <pt x="360" y="260" on="1"/>
        <pt x="560" y="260" on="1"/>
        <pt x="560" y="445" on="1"/>
        <pt x="810" y="445" on="1"/>
        <pt x="810" y="145" on="1"/>
        <pt x="810" y="86" on="0"/>
        <pt x="726" y="0" on="0"/>
        <pt x="667" y="0" on="1"/>
        <pt x="245" y="0" on="1"/>
        <pt x="185" y="0" on="0"/>
        <pt x="100" y="85" on="0"/>
      </contour>
    </TTGlyph>
    <TTGlyph name="Cdotaccent" xMin="100" yMin="0" xMax="810" yMax="1700">
      <contour>
        <pt x="380" y="1700" on="1"/>
        <pt x="530" y="1700" on="1"/>
        <pt x="530" y="1550" on="1"/>
        <pt x="380" y="1550" on="1"/>
      </contour>
      <contour>
        <pt x="100" y="145" on="1"/>
        <pt x="100" y="1255" on="1"/>
        <pt x="100" y="1315" on="0"/>
        <pt x="185" y="1400" on="0"/>
        <pt x="245" y="1400" on="1"/>
        <pt x="665" y="1400" on="1"/>
        <pt x="725" y="1400" on="0"/>
        <pt x="810" y="1315" on="0"/>
        <pt x="810" y="1255" on="1"/>
        <pt x="810" y="955" on="1"/>
        <pt x="560" y="955" on="1"/>
        <pt x="560" y="1143" on="1"/>
        <pt x="360" y="1143" on="1"/>
        <pt x="360" y="260" on="1"/>
        <pt x="560" y="260" on="1"/>
        <pt x="560" y="445" on="1"/>
        <pt x="810" y="445" on="1"/>
        <pt x="810" y="145" on="1"/>
        <pt x="810" y="86" on="0"/>
        <pt x="726" y="0" on="0"/>
        <pt x="667" y="0" on="1"/>
        <pt x="245" y="0" on="1"/>
        <pt x="185" y="0" on="0"/>
        <pt x="100" y="85" on="0"/>
      </contour>
    </TTGlyph>
    <TTGlyph name="D" xMin="100" yMin="0" xMax="790" yMax="1400">
      <contour>
        <pt x="100" y="0" on="1"/>
        <pt x="100" y="1400" on="1"/>
        <pt x="630" y="1400" on="1"/>
        <pt x="696" y="1400" on="0"/>
        <pt x="790" y="1306" on="0"/>
        <pt x="790" y="1240" on="1"/>
        <pt x="790" y="160" on="1"/>
        <pt x="790" y="94" on="0"/>
        <pt x="696" y="0" on="0"/>
        <pt x="630" y="0" on="1"/>
      </contour>
      <contour>
        <pt x="350" y="230" on="1"/>
        <pt x="529" y="230" on="1"/>
        <pt x="550" y="230" on="0"/>
        <pt x="550" y="251" on="1"/>
        <pt x="550" y="1149" on="1"/>
        <pt x="550" y="1170" on="0"/>
        <pt x="529" y="1170" on="1"/>
        <pt x="350" y="1170" on="1"/>
      </contour>
    </TTGlyph>
    <TTGlyph name="Dcaron" xMin="100" yMin="0" xMax="790" yMax="1800">
      <contour>
        <pt x="359" y="1500" on="1"/>
        <pt x="175" y="1800" on="1"/>
        <pt x="330" y="1800" on="1"/>
        <pt x="446" y="1618" on="1"/>
        <pt x="561" y="1800" on="1"/>
        <pt x="716" y="1800" on="1"/>
        <pt x="532" y="1500" on="1"/>
      </contour>
      <contour>
        <pt x="100" y="0" on="1"/>
        <pt x="100" y="1400" on="1"/>
        <pt x="630" y="1400" on="1"/>
        <pt x="696" y="1400" on="0"/>
        <pt x="790" y="1306" on="0"/>
        <pt x="790" y="1240" on="1"/>
        <pt x="790" y="160" on="1"/>
        <pt x="790" y="94" on="0"/>
        <pt x="696" y="0" on="0"/>
        <pt x="630" y="0" on="1"/>
      </contour>
      <contour>
        <pt x="350" y="230" on="1"/>
        <pt x="529" y="230" on="1"/>
        <pt x="550" y="230" on="0"/>
        <pt x="550" y="251" on="1"/>
        <pt x="550" y="1149" on="1"/>
        <pt x="550" y="1170" on="0"/>
        <pt x="529" y="1170" on="1"/>
        <pt x="350" y="1170" on="1"/>
      </contour>
    </TTGlyph>
    <TTGlyph name="Dcroat" xMin="60" yMin="0" xMax="790" yMax="1400">
      <contour>
        <pt x="100" y="0" on="1"/>
        <pt x="100" y="645" on="1"/>
        <pt x="60" y="645" on="1"/>
        <pt x="60" y="755" on="1"/>
        <pt x="100" y="755" on="1"/>
        <pt x="100" y="1400" on="1"/>
        <pt x="630" y="1400" on="1"/>
        <pt x="696" y="1400" on="0"/>
        <pt x="790" y="1306" on="0"/>
        <pt x="790" y="1240" on="1"/>
        <pt x="790" y="160" on="1"/>
        <pt x="790" y="94" on="0"/>
        <pt x="696" y="0" on="0"/>
        <pt x="630" y="0" on="1"/>
      </contour>
      <contour>
        <pt x="350" y="645" on="1"/>
        <pt x="350" y="230" on="1"/>
        <pt x="529" y="230" on="1"/>
        <pt x="550" y="230" on="0"/>
        <pt x="550" y="251" on="1"/>
        <pt x="550" y="1149" on="1"/>
        <pt x="550" y="1170" on="0"/>
        <pt x="529" y="1170" on="1"/>
        <pt x="350" y="1170" on="1"/>
        <pt x="350" y="755" on="1"/>
        <pt x="500" y="755" on="1"/>
        <pt x="500" y="645" on="1"/>
      </contour>
    </TTGlyph>
    <TTGlyph name="E" xMin="100" yMin="0" xMax="812" yMax="1400">
      <contour>
        <pt x="100" y="0" on="1"/>
        <pt x="100" y="1400" on="1"/>
        <pt x="810" y="1400" on="1"/>
        <pt x="810" y="1170" on="1"/>
        <pt x="350" y="1170" on="1"/>
        <pt x="350" y="820" on="1"/>
        <pt x="730" y="820" on="1"/>
        <pt x="730" y="580" on="1"/>
        <pt x="350" y="580" on="1"/>
        <pt x="350" y="240" on="1"/>
        <pt x="812" y="240" on="1"/>
        <pt x="812" y="0" on="1"/>
      </contour>
    </TTGlyph>
    <TTGlyph name="Eacute" xMin="100" yMin="0" xMax="812" yMax="1750">
      <contour>
        <pt x="660" y="1750" on="1"/>
        <pt x="460" y="1490" on="1"/>
        <pt x="300" y="1490" on="1"/>
        <pt x="440" y="1750" on="1"/>
      </contour>
      <contour>
        <pt x="100" y="0" on="1"/>
        <pt x="100" y="1400" on="1"/>
        <pt x="810" y="1400" on="1"/>
        <pt x="810" y="1170" on="1"/>
        <pt x="350" y="1170" on="1"/>
        <pt x="350" y="820" on="1"/>
        <pt x="730" y="820" on="1"/>
        <pt x="730" y="580" on="1"/>
        <pt x="350" y="580" on="1"/>
        <pt x="350" y="240" on="1"/>
        <pt x="812" y="240" on="1"/>
        <pt x="812" y="0" on="1"/>
      </contour>
    </TTGlyph>
    <TTGlyph name="Ebreve" xMin="100" yMin="0" xMax="812" yMax="1700">
      <contour>
        <pt x="456" y="1504" on="1"/>
        <pt x="384" y="1504" on="0"/>
        <pt x="271" y="1598" on="0"/>
        <pt x="260" y="1667" on="1"/>
        <pt x="371" y="1700" on="1"/>
        <pt x="371" y="1667" on="0"/>
        <pt x="423" y="1619" on="0"/>
        <pt x="456" y="1619" on="1"/>
        <pt x="489" y="1619" on="0"/>
        <pt x="541" y="1667" on="0"/>
        <pt x="541" y="1700" on="1"/>
        <pt x="652" y="1667" on="1"/>
        <pt x="641" y="1598" on="0"/>
        <pt x="528" y="1504" on="0"/>
      </contour>
      <contour>
        <pt x="100" y="0" on="1"/>
        <pt x="100" y="1400" on="1"/>
        <pt x="810" y="1400" on="1"/>
        <pt x="810" y="1170" on="1"/>
        <pt x="350" y="1170" on="1"/>
        <pt x="350" y="820" on="1"/>
        <pt x="730" y="820" on="1"/>
        <pt x="730" y="580" on="1"/>
        <pt x="350" y="580" on="1"/>
        <pt x="350" y="240" on="1"/>
        <pt x="812" y="240" on="1"/>
        <pt x="812" y="0" on="1"/>
      </contour>
    </TTGlyph>
    <TTGlyph name="Ecaron" xMin="100" yMin="0" xMax="812" yMax="1800">
      <contour>
        <pt x="369" y="1500" on="1"/>
        <pt x="185" y="1800" on="1"/>
        <pt x="340" y="1800" on="1"/>
        <pt x="456" y="1618" on="1"/>
        <pt x="571" y="1800" on="1"/>
        <pt x="726" y="1800" on="1"/>
        <pt x="542" y="1500" on="1"/>
      </contour>
      <contour>
        <pt x="100" y="0" on="1"/>
        <pt x="100" y="1400" on="1"/>
        <pt x="810" y="1400" on="1"/>
        <pt x="810" y="1170" on="1"/>
        <pt x="350" y="1170" on="1"/>
        <pt x="350" y="820" on="1"/>
        <pt x="730" y="820" on="1"/>
        <pt x="730" y="580" on="1"/>
        <pt x="350" y="580" on="1"/>
        <pt x="350" y="240" on="1"/>
        <pt x="812" y="240" on="1"/>
        <pt x="812" y="0" on="1"/>
      </contour>
    </TTGlyph>
    <TTGlyph name="Ecircumflex" xMin="100" yMin="0" xMax="812" yMax="1800">
      <contour>
        <pt x="369" y="1800" on="1"/>
        <pt x="542" y="1800" on="1"/>
        <pt x="726" y="1500" on="1"/>
        <pt x="571" y="1500" on="1"/>
        <pt x="456" y="1682" on="1"/>
        <pt x="340" y="1500" on="1"/>
        <pt x="185" y="1500" on="1"/>
      </contour>
      <contour>
        <pt x="100" y="0" on="1"/>
        <pt x="100" y="1400" on="1"/>
        <pt x="810" y="1400" on="1"/>
        <pt x="810" y="1170" on="1"/>
        <pt x="350" y="1170" on="1"/>
        <pt x="350" y="820" on="1"/>
        <pt x="730" y="820" on="1"/>
        <pt x="730" y="580" on="1"/>
        <pt x="350" y="580" on="1"/>
        <pt x="350" y="240" on="1"/>
        <pt x="812" y="240" on="1"/>
        <pt x="812" y="0" on="1"/>
      </contour>
    </TTGlyph>
    <TTGlyph name="Edieresis" xMin="100" yMin="0" xMax="812" yMax="1700">
      <contour>
        <pt x="261" y="1700" on="1"/>
        <pt x="411" y="1700" on="1"/>
        <pt x="411" y="1550" on="1"/>
        <pt x="261" y="1550" on="1"/>
      </contour>
      <contour>
        <pt x="501" y="1700" on="1"/>
        <pt x="651" y="1700" on="1"/>
        <pt x="651" y="1550" on="1"/>
        <pt x="501" y="1550" on="1"/>
      </contour>
      <contour>
        <pt x="100" y="0" on="1"/>
        <pt x="100" y="1400" on="1"/>
        <pt x="810" y="1400" on="1"/>
        <pt x="810" y="1170" on="1"/>
        <pt x="350" y="1170" on="1"/>
        <pt x="350" y="820" on="1"/>
        <pt x="730" y="820" on="1"/>
        <pt x="730" y="580" on="1"/>
        <pt x="350" y="580" on="1"/>
        <pt x="350" y="240" on="1"/>
        <pt x="812" y="240" on="1"/>
        <pt x="812" y="0" on="1"/>
      </contour>
    </TTGlyph>
    <TTGlyph name="Edotaccent" xMin="100" yMin="0" xMax="812" yMax="1700">
      <contour>
        <pt x="380" y="1700" on="1"/>
        <pt x="530" y="1700" on="1"/>
        <pt x="530" y="1550" on="1"/>
        <pt x="380" y="1550" on="1"/>
      </contour>
      <contour>
        <pt x="100" y="0" on="1"/>
        <pt x="100" y="1400" on="1"/>
        <pt x="810" y="1400" on="1"/>
        <pt x="810" y="1170" on="1"/>
        <pt x="350" y="1170" on="1"/>
        <pt x="350" y="820" on="1"/>
        <pt x="730" y="820" on="1"/>
        <pt x="730" y="580" on="1"/>
        <pt x="350" y="580" on="1"/>
        <pt x="350" y="240" on="1"/>
        <pt x="812" y="240" on="1"/>
        <pt x="812" y="0" on="1"/>
      </contour>
    </TTGlyph>
    <TTGlyph name="Egrave" xMin="100" yMin="0" xMax="812" yMax="1750">
      <contour>
        <pt x="430" y="1490" on="1"/>
        <pt x="230" y="1750" on="1"/>
        <pt x="450" y="1750" on="1"/>
        <pt x="590" y="1490" on="1"/>
      </contour>
      <contour>
        <pt x="100" y="0" on="1"/>
        <pt x="100" y="1400" on="1"/>
        <pt x="810" y="1400" on="1"/>
        <pt x="810" y="1170" on="1"/>
        <pt x="350" y="1170" on="1"/>
        <pt x="350" y="820" on="1"/>
        <pt x="730" y="820" on="1"/>
        <pt x="730" y="580" on="1"/>
        <pt x="350" y="580" on="1"/>
        <pt x="350" y="240" on="1"/>
        <pt x="812" y="240" on="1"/>
        <pt x="812" y="0" on="1"/>
      </contour>
    </TTGlyph>
    <TTGlyph name="Emacron" xMin="100" yMin="0" xMax="812" yMax="1640">
      <contour>
        <pt x="236" y="1640" on="1"/>
        <pt x="676" y="1640" on="1"/>
        <pt x="676" y="1530" on="1"/>
        <pt x="236" y="1530" on="1"/>
      </contour>
      <contour>
        <pt x="100" y="0" on="1"/>
        <pt x="100" y="1400" on="1"/>
        <pt x="810" y="1400" on="1"/>
        <pt x="810" y="1170" on="1"/>
        <pt x="350" y="1170" on="1"/>
        <pt x="350" y="820" on="1"/>
        <pt x="730" y="820" on="1"/>
        <pt x="730" y="580" on="1"/>
        <pt x="350" y="580" on="1"/>
        <pt x="350" y="240" on="1"/>
        <pt x="812" y="240" on="1"/>
        <pt x="812" y="0" on="1"/>
      </contour>
    </TTGlyph>
    <TTGlyph name="Eng" xMin="100" yMin="-300" xMax="880" yMax="1400">
      <contour>
        <pt x="630" y="1400" on="1"/>
        <pt x="880" y="1400" on="1"/>
        <pt x="880" y="-50" on="1"/>
        <pt x="880" y="-119" on="0"/>
        <pt x="813" y="-232" on="0"/>
        <pt x="699" y="-300" on="0"/>
        <pt x="630" y="-300" on="1"/>
        <pt x="500" y="-300" on="1"/>
        <pt x="500" y="-70" on="1"/>
        <pt x="628" y="-70" on="1"/>
        <pt x="649" y="-70" on="0"/>
        <pt x="649" y="-50" on="1"/>
        <pt x="350" y="733" on="1"/>
        <pt x="350" y="0" on="1"/>
        <pt x="100" y="0" on="1"/>
        <pt x="100" y="1400" on="1"/>
        <pt x="350" y="1400" on="1"/>
        <pt x="630" y="630" on="1"/>
      </contour>
    </TTGlyph>
    <TTGlyph name="Eogonek" xMin="100" yMin="-390" xMax="812" yMax="1400">
      <contour>
        <pt x="542" y="0" on="1"/>
        <pt x="392" y="-153" on="1"/>
        <pt x="392" y="-167" on="1"/>
        <pt x="392" y="-193" on="0"/>
        <pt x="428" y="-230" on="0"/>
        <pt x="454" y="-230" on="1"/>
        <pt x="589" y="-230" on="1"/>
        <pt x="615" y="-230" on="0"/>
        <pt x="652" y="-193" on="0"/>
        <pt x="652" y="-167" on="1"/>
        <pt x="652" y="-155" on="1"/>
        <pt x="812" y="-155" on="1"/>
        <pt x="812" y="-230" on="1"/>
        <pt x="812" y="-296" on="0"/>
        <pt x="718" y="-390" on="0"/>
        <pt x="652" y="-390" on="1"/>
        <pt x="392" y="-390" on="1"/>
        <pt x="326" y="-390" on="0"/>
        <pt x="232" y="-296" on="0"/>
        <pt x="232" y="-230" on="1"/>
        <pt x="232" y="-80" on="1"/>
        <pt x="312" y="0" on="1"/>
        <pt x="100" y="0" on="1"/>
        <pt x="100" y="1400" on="1"/>
        <pt x="810" y="1400" on="1"/>
        <pt x="810" y="1170" on="1"/>
        <pt x="350" y="1170" on="1"/>
        <pt x="350" y="820" on="1"/>
        <pt x="730" y="820" on="1"/>
        <pt x="730" y="580" on="1"/>
        <pt x="350" y="580" on="1"/>
        <pt x="350" y="240" on="1"/>
        <pt x="812" y="240" on="1"/>
        <pt x="812" y="0" on="1"/>
      </contour>
    </TTGlyph>
    <TTGlyph name="Eth" xMin="40" yMin="0" xMax="790" yMax="1400">
      <contour>
        <pt x="100" y="0" on="1"/>
        <pt x="100" y="450" on="1"/>
        <pt x="40" y="450" on="1"/>
        <pt x="40" y="560" on="1"/>
        <pt x="100" y="560" on="1"/>
        <pt x="100" y="1400" on="1"/>
        <pt x="630" y="1400" on="1"/>
        <pt x="696" y="1400" on="0"/>
        <pt x="790" y="1306" on="0"/>
        <pt x="790" y="1240" on="1"/>
        <pt x="790" y="160" on="1"/>
        <pt x="790" y="94" on="0"/>
        <pt x="696" y="0" on="0"/>
        <pt x="630" y="0" on="1"/>
      </contour>
      <contour>
        <pt x="350" y="450" on="1"/>
        <pt x="350" y="230" on="1"/>
        <pt x="529" y="230" on="1"/>
        <pt x="550" y="230" on="0"/>
        <pt x="550" y="251" on="1"/>
        <pt x="550" y="1149" on="1"/>
        <pt x="550" y="1170" on="0"/>
        <pt x="529" y="1170" on="1"/>
        <pt x="350" y="1170" on="1"/>
        <pt x="350" y="560" on="1"/>
        <pt x="480" y="560" on="1"/>
        <pt x="480" y="450" on="1"/>
      </contour>
    </TTGlyph>
    <TTGlyph name="Euro" xMin="50" yMin="0" xMax="860" yMax="1400">
      <contour>
        <pt x="150" y="145" on="1"/>
        <pt x="150" y="460" on="1"/>
        <pt x="50" y="460" on="1"/>
        <pt x="50" y="630" on="1"/>
        <pt x="150" y="630" on="1"/>
        <pt x="150" y="760" on="1"/>
        <pt x="50" y="760" on="1"/>
        <pt x="50" y="930" on="1"/>
        <pt x="150" y="930" on="1"/>
        <pt x="150" y="1255" on="1"/>
        <pt x="150" y="1315" on="0"/>
        <pt x="235" y="1400" on="0"/>
        <pt x="295" y="1400" on="1"/>
        <pt x="860" y="1400" on="1"/>
        <pt x="860" y="1143" on="1"/>
        <pt x="410" y="1143" on="1"/>
        <pt x="410" y="930" on="1"/>
        <pt x="750" y="930" on="1"/>
        <pt x="750" y="760" on="1"/>
        <pt x="410" y="760" on="1"/>
        <pt x="410" y="630" on="1"/>
        <pt x="750" y="630" on="1"/>
        <pt x="750" y="460" on="1"/>
        <pt x="410" y="460" on="1"/>
        <pt x="410" y="260" on="1"/>
        <pt x="860" y="260" on="1"/>
        <pt x="860" y="0" on="1"/>
        <pt x="295" y="0" on="1"/>
        <pt x="235" y="0" on="0"/>
        <pt x="150" y="85" on="0"/>
      </contour>
    </TTGlyph>
    <TTGlyph name="F" xMin="100" yMin="0" xMax="810" yMax="1400">
      <contour>
        <pt x="350" y="0" on="1"/>
        <pt x="100" y="0" on="1"/>
        <pt x="100" y="1400" on="1"/>
        <pt x="810" y="1400" on="1"/>
        <pt x="810" y="1170" on="1"/>
        <pt x="350" y="1170" on="1"/>
        <pt x="350" y="820" on="1"/>
        <pt x="730" y="820" on="1"/>
        <pt x="730" y="580" on="1"/>
        <pt x="350" y="580" on="1"/>
      </contour>
    </TTGlyph>
    <TTGlyph name="G" xMin="100" yMin="0" xMax="912" yMax="1400">
      <contour>
        <pt x="100" y="145" on="1"/>
        <pt x="100" y="1255" on="1"/>
        <pt x="100" y="1315" on="0"/>
        <pt x="185" y="1400" on="0"/>
        <pt x="245" y="1400" on="1"/>
        <pt x="685" y="1400" on="1"/>
        <pt x="745" y="1400" on="0"/>
        <pt x="830" y="1315" on="0"/>
        <pt x="830" y="1255" on="1"/>
        <pt x="830" y="955" on="1"/>
        <pt x="600" y="955" on="1"/>
        <pt x="600" y="1152" on="1"/>
        <pt x="350" y="1152" on="1"/>
        <pt x="350" y="248" on="1"/>
        <pt x="537" y="248" on="1"/>
        <pt x="563" y="248" on="0"/>
        <pt x="600" y="285" on="0"/>
        <pt x="600" y="311" on="1"/>
        <pt x="600" y="470" on="1"/>
        <pt x="480" y="470" on="1"/>
        <pt x="480" y="700" on="1"/>
        <pt x="830" y="700" on="1"/>
        <pt x="830" y="144" on="1"/>
        <pt x="830" y="57" on="0"/>
        <pt x="904" y="18" on="1"/>
        <pt x="912" y="13" on="0"/>
        <pt x="912" y="8" on="1"/>
        <pt x="912" y="0" on="0"/>
        <pt x="904" y="0" on="1"/>
        <pt x="826" y="0" on="1"/>
        <pt x="766" y="0" on="0"/>
        <pt x="681" y="87" on="0"/>
        <pt x="680" y="148" on="1"/>
        <pt x="678" y="148" on="1"/>
        <pt x="678" y="140" on="1"/>
        <pt x="678" y="82" on="0"/>
        <pt x="595" y="0" on="0"/>
        <pt x="536" y="0" on="1"/>
        <pt x="245" y="0" on="1"/>
        <pt x="185" y="0" on="0"/>
        <pt x="100" y="85" on="0"/>
      </contour>
    </TTGlyph>
    <TTGlyph name="Gbreve" xMin="100" yMin="0" xMax="912" yMax="1700">
      <contour>
        <pt x="466" y="1504" on="1"/>
        <pt x="394" y="1504" on="0"/>
        <pt x="281" y="1598" on="0"/>
        <pt x="270" y="1667" on="1"/>
        <pt x="381" y="1700" on="1"/>
        <pt x="381" y="1667" on="0"/>
        <pt x="433" y="1619" on="0"/>
        <pt x="466" y="1619" on="1"/>
        <pt x="499" y="1619" on="0"/>
        <pt x="551" y="1667" on="0"/>
        <pt x="551" y="1700" on="1"/>
        <pt x="662" y="1667" on="1"/>
        <pt x="651" y="1598" on="0"/>
        <pt x="538" y="1504" on="0"/>
      </contour>
      <contour>
        <pt x="100" y="145" on="1"/>
        <pt x="100" y="1255" on="1"/>
        <pt x="100" y="1315" on="0"/>
        <pt x="185" y="1400" on="0"/>
        <pt x="245" y="1400" on="1"/>
        <pt x="685" y="1400" on="1"/>
        <pt x="745" y="1400" on="0"/>
        <pt x="830" y="1315" on="0"/>
        <pt x="830" y="1255" on="1"/>
        <pt x="830" y="955" on="1"/>
        <pt x="600" y="955" on="1"/>
        <pt x="600" y="1152" on="1"/>
        <pt x="350" y="1152" on="1"/>
        <pt x="350" y="248" on="1"/>
        <pt x="537" y="248" on="1"/>
        <pt x="563" y="248" on="0"/>
        <pt x="600" y="285" on="0"/>
        <pt x="600" y="311" on="1"/>
        <pt x="600" y="470" on="1"/>
        <pt x="480" y="470" on="1"/>
        <pt x="480" y="700" on="1"/>
        <pt x="830" y="700" on="1"/>
        <pt x="830" y="144" on="1"/>
        <pt x="830" y="57" on="0"/>
        <pt x="904" y="18" on="1"/>
        <pt x="912" y="13" on="0"/>
        <pt x="912" y="8" on="1"/>
        <pt x="912" y="0" on="0"/>
        <pt x="904" y="0" on="1"/>
        <pt x="826" y="0" on="1"/>
        <pt x="766" y="0" on="0"/>
        <pt x="681" y="87" on="0"/>
        <pt x="680" y="148" on="1"/>
        <pt x="678" y="148" on="1"/>
        <pt x="678" y="140" on="1"/>
        <pt x="678" y="82" on="0"/>
        <pt x="595" y="0" on="0"/>
        <pt x="536" y="0" on="1"/>
        <pt x="245" y="0" on="1"/>
        <pt x="185" y="0" on="0"/>
        <pt x="100" y="85" on="0"/>
      </contour>
    </TTGlyph>
    <TTGlyph name="Gcircumflex" xMin="100" yMin="0" xMax="912" yMax="1800">
      <contour>
        <pt x="374" y="1800" on="1"/>
        <pt x="547" y="1800" on="1"/>
        <pt x="731" y="1500" on="1"/>
        <pt x="576" y="1500" on="1"/>
        <pt x="461" y="1682" on="1"/>
        <pt x="345" y="1500" on="1"/>
        <pt x="190" y="1500" on="1"/>
      </contour>
      <contour>
        <pt x="100" y="145" on="1"/>
        <pt x="100" y="1255" on="1"/>
        <pt x="100" y="1315" on="0"/>
        <pt x="185" y="1400" on="0"/>
        <pt x="245" y="1400" on="1"/>
        <pt x="685" y="1400" on="1"/>
        <pt x="745" y="1400" on="0"/>
        <pt x="830" y="1315" on="0"/>
        <pt x="830" y="1255" on="1"/>
        <pt x="830" y="955" on="1"/>
        <pt x="600" y="955" on="1"/>
        <pt x="600" y="1152" on="1"/>
        <pt x="350" y="1152" on="1"/>
        <pt x="350" y="248" on="1"/>
        <pt x="537" y="248" on="1"/>
        <pt x="563" y="248" on="0"/>
        <pt x="600" y="285" on="0"/>
        <pt x="600" y="311" on="1"/>
        <pt x="600" y="470" on="1"/>
        <pt x="480" y="470" on="1"/>
        <pt x="480" y="700" on="1"/>
        <pt x="830" y="700" on="1"/>
        <pt x="830" y="144" on="1"/>
        <pt x="830" y="57" on="0"/>
        <pt x="904" y="18" on="1"/>
        <pt x="912" y="13" on="0"/>
        <pt x="912" y="8" on="1"/>
        <pt x="912" y="0" on="0"/>
        <pt x="904" y="0" on="1"/>
        <pt x="826" y="0" on="1"/>
        <pt x="766" y="0" on="0"/>
        <pt x="681" y="87" on="0"/>
        <pt x="680" y="148" on="1"/>
        <pt x="678" y="148" on="1"/>
        <pt x="678" y="140" on="1"/>
        <pt x="678" y="82" on="0"/>
        <pt x="595" y="0" on="0"/>
        <pt x="536" y="0" on="1"/>
        <pt x="245" y="0" on="1"/>
        <pt x="185" y="0" on="0"/>
        <pt x="100" y="85" on="0"/>
      </contour>
    </TTGlyph>
    <TTGlyph name="Gdotaccent" xMin="100" yMin="0" xMax="912" yMax="1700">
      <contour>
        <pt x="380" y="1700" on="1"/>
        <pt x="530" y="1700" on="1"/>
        <pt x="530" y="1550" on="1"/>
        <pt x="380" y="1550" on="1"/>
      </contour>
      <contour>
        <pt x="100" y="145" on="1"/>
        <pt x="100" y="1255" on="1"/>
        <pt x="100" y="1315" on="0"/>
        <pt x="185" y="1400" on="0"/>
        <pt x="245" y="1400" on="1"/>
        <pt x="685" y="1400" on="1"/>
        <pt x="745" y="1400" on="0"/>
        <pt x="830" y="1315" on="0"/>
        <pt x="830" y="1255" on="1"/>
        <pt x="830" y="955" on="1"/>
        <pt x="600" y="955" on="1"/>
        <pt x="600" y="1152" on="1"/>
        <pt x="350" y="1152" on="1"/>
        <pt x="350" y="248" on="1"/>
        <pt x="537" y="248" on="1"/>
        <pt x="563" y="248" on="0"/>
        <pt x="600" y="285" on="0"/>
        <pt x="600" y="311" on="1"/>
        <pt x="600" y="470" on="1"/>
        <pt x="480" y="470" on="1"/>
        <pt x="480" y="700" on="1"/>
        <pt x="830" y="700" on="1"/>
        <pt x="830" y="144" on="1"/>
        <pt x="830" y="57" on="0"/>
        <pt x="904" y="18" on="1"/>
        <pt x="912" y="13" on="0"/>
        <pt x="912" y="8" on="1"/>
        <pt x="912" y="0" on="0"/>
        <pt x="904" y="0" on="1"/>
        <pt x="826" y="0" on="1"/>
        <pt x="766" y="0" on="0"/>
        <pt x="681" y="87" on="0"/>
        <pt x="680" y="148" on="1"/>
        <pt x="678" y="148" on="1"/>
        <pt x="678" y="140" on="1"/>
        <pt x="678" y="82" on="0"/>
        <pt x="595" y="0" on="0"/>
        <pt x="536" y="0" on="1"/>
        <pt x="245" y="0" on="1"/>
        <pt x="185" y="0" on="0"/>
        <pt x="100" y="85" on="0"/>
      </contour>
    </TTGlyph>
    <TTGlyph name="H" xMin="100" yMin="0" xMax="870" yMax="1400">
      <contour>
        <pt x="350" y="0" on="1"/>
        <pt x="100" y="0" on="1"/>
        <pt x="100" y="1400" on="1"/>
        <pt x="350" y="1400" on="1"/>
        <pt x="350" y="810" on="1"/>
        <pt x="620" y="810" on="1"/>
        <pt x="620" y="1400" on="1"/>
        <pt x="870" y="1400" on="1"/>
        <pt x="870" y="0" on="1"/>
        <pt x="620" y="0" on="1"/>
        <pt x="620" y="570" on="1"/>
        <pt x="350" y="570" on="1"/>
      </contour>
    </TTGlyph>
    <TTGlyph name="Hbar" xMin="20" yMin="0" xMax="970" yMax="1400">
      <contour>
        <pt x="350" y="0" on="1"/>
        <pt x="100" y="0" on="1"/>
        <pt x="100" y="940" on="1"/>
        <pt x="20" y="940" on="1"/>
        <pt x="20" y="1050" on="1"/>
        <pt x="100" y="1050" on="1"/>
        <pt x="100" y="1400" on="1"/>
        <pt x="350" y="1400" on="1"/>
        <pt x="350" y="1050" on="1"/>
        <pt x="620" y="1050" on="1"/>
        <pt x="620" y="1400" on="1"/>
        <pt x="870" y="1400" on="1"/>
        <pt x="870" y="1050" on="1"/>
        <pt x="970" y="1050" on="1"/>
        <pt x="970" y="940" on="1"/>
        <pt x="870" y="940" on="1"/>
        <pt x="870" y="0" on="1"/>
        <pt x="620" y="0" on="1"/>
        <pt x="620" y="570" on="1"/>
        <pt x="350" y="570" on="1"/>
      </contour>
      <contour>
        <pt x="620" y="940" on="1"/>
        <pt x="350" y="940" on="1"/>
        <pt x="350" y="810" on="1"/>
        <pt x="620" y="810" on="1"/>
      </contour>
    </TTGlyph>
    <TTGlyph name="Hcircumflex" xMin="100" yMin="0" xMax="870" yMax="1800">
      <contour>
        <pt x="399" y="1800" on="1"/>
        <pt x="572" y="1800" on="1"/>
        <pt x="756" y="1500" on="1"/>
        <pt x="601" y="1500" on="1"/>
        <pt x="486" y="1682" on="1"/>
        <pt x="370" y="1500" on="1"/>
        <pt x="215" y="1500" on="1"/>
      </contour>
      <contour>
        <pt x="350" y="0" on="1"/>
        <pt x="100" y="0" on="1"/>
        <pt x="100" y="1400" on="1"/>
        <pt x="350" y="1400" on="1"/>
        <pt x="350" y="810" on="1"/>
        <pt x="620" y="810" on="1"/>
        <pt x="620" y="1400" on="1"/>
        <pt x="870" y="1400" on="1"/>
        <pt x="870" y="0" on="1"/>
        <pt x="620" y="0" on="1"/>
        <pt x="620" y="570" on="1"/>
        <pt x="350" y="570" on="1"/>
      </contour>
    </TTGlyph>
    <TTGlyph name="I" xMin="100" yMin="0" xMax="350" yMax="1400">
      <contour>
        <pt x="100" y="1400" on="1"/>
        <pt x="350" y="1400" on="1"/>
        <pt x="350" y="0" on="1"/>
        <pt x="100" y="0" on="1"/>
      </contour>
    </TTGlyph>
    <TTGlyph name="IJ" xMin="100" yMin="-400" xMax="810" yMax="1400">
      <contour>
        <pt x="100" y="1400" on="1"/>
        <pt x="350" y="1400" on="1"/>
        <pt x="350" y="0" on="1"/>
        <pt x="100" y="0" on="1"/>
      </contour>
      <contour>
        <pt x="100" y="-255" on="1"/>
        <pt x="100" y="-80" on="1"/>
        <pt x="350" y="-80" on="1"/>
        <pt x="350" y="-140" on="1"/>
        <pt x="560" y="-140" on="1"/>
        <pt x="560" y="1400" on="1"/>
        <pt x="810" y="1400" on="1"/>
        <pt x="810" y="-255" on="1"/>
        <pt x="810" y="-315" on="0"/>
        <pt x="725" y="-400" on="0"/>
        <pt x="665" y="-400" on="1"/>
        <pt x="245" y="-400" on="1"/>
        <pt x="185" y="-400" on="0"/>
        <pt x="100" y="-315" on="0"/>
      </contour>
    </TTGlyph>
    <TTGlyph name="Iacute" xMin="100" yMin="0" xMax="460" yMax="1750">
      <contour>
        <pt x="460" y="1750" on="1"/>
        <pt x="260" y="1490" on="1"/>
        <pt x="100" y="1490" on="1"/>
        <pt x="240" y="1750" on="1"/>
      </contour>
      <contour>
        <pt x="100" y="1400" on="1"/>
        <pt x="350" y="1400" on="1"/>
        <pt x="350" y="0" on="1"/>
        <pt x="100" y="0" on="1"/>
      </contour>
    </TTGlyph>
    <TTGlyph name="Ibreve" xMin="30" yMin="0" xMax="422" yMax="1700">
      <contour>
        <pt x="226" y="1504" on="1"/>
        <pt x="154" y="1504" on="0"/>
        <pt x="41" y="1598" on="0"/>
        <pt x="30" y="1667" on="1"/>
        <pt x="141" y="1700" on="1"/>
        <pt x="141" y="1667" on="0"/>
        <pt x="193" y="1619" on="0"/>
        <pt x="226" y="1619" on="1"/>
        <pt x="259" y="1619" on="0"/>
        <pt x="311" y="1667" on="0"/>
        <pt x="311" y="1700" on="1"/>
        <pt x="422" y="1667" on="1"/>
        <pt x="411" y="1598" on="0"/>
        <pt x="298" y="1504" on="0"/>
      </contour>
      <contour>
        <pt x="100" y="1400" on="1"/>
        <pt x="350" y="1400" on="1"/>
        <pt x="350" y="0" on="1"/>
        <pt x="100" y="0" on="1"/>
      </contour>
    </TTGlyph>
    <TTGlyph name="Icircumflex" xMin="-45" yMin="0" xMax="496" yMax="1800">
      <contour>
        <pt x="139" y="1800" on="1"/>
        <pt x="312" y="1800" on="1"/>
        <pt x="496" y="1500" on="1"/>
        <pt x="341" y="1500" on="1"/>
        <pt x="226" y="1682" on="1"/>
        <pt x="110" y="1500" on="1"/>
        <pt x="-45" y="1500" on="1"/>
      </contour>
      <contour>
        <pt x="100" y="1400" on="1"/>
        <pt x="350" y="1400" on="1"/>
        <pt x="350" y="0" on="1"/>
        <pt x="100" y="0" on="1"/>
      </contour>
    </TTGlyph>
    <TTGlyph name="Idieresis" xMin="30" yMin="0" xMax="420" yMax="1700">
      <contour>
        <pt x="30" y="1700" on="1"/>
        <pt x="180" y="1700" on="1"/>
        <pt x="180" y="1550" on="1"/>
        <pt x="30" y="1550" on="1"/>
      </contour>
      <contour>
        <pt x="270" y="1700" on="1"/>
        <pt x="420" y="1700" on="1"/>
        <pt x="420" y="1550" on="1"/>
        <pt x="270" y="1550" on="1"/>
      </contour>
      <contour>
        <pt x="100" y="1400" on="1"/>
        <pt x="350" y="1400" on="1"/>
        <pt x="350" y="0" on="1"/>
        <pt x="100" y="0" on="1"/>
      </contour>
    </TTGlyph>
    <TTGlyph name="Idotaccent" xMin="100" yMin="0" xMax="350" yMax="1700">
      <contour>
        <pt x="150" y="1700" on="1"/>
        <pt x="300" y="1700" on="1"/>
        <pt x="300" y="1550" on="1"/>
        <pt x="150" y="1550" on="1"/>
      </contour>
      <contour>
        <pt x="100" y="1400" on="1"/>
        <pt x="350" y="1400" on="1"/>
        <pt x="350" y="0" on="1"/>
        <pt x="100" y="0" on="1"/>
      </contour>
    </TTGlyph>
    <TTGlyph name="Igrave" xMin="-10" yMin="0" xMax="350" yMax="1750">
      <contour>
        <pt x="190" y="1490" on="1"/>
        <pt x="-10" y="1750" on="1"/>
        <pt x="210" y="1750" on="1"/>
        <pt x="350" y="1490" on="1"/>
      </contour>
      <contour>
        <pt x="100" y="1400" on="1"/>
        <pt x="350" y="1400" on="1"/>
        <pt x="350" y="0" on="1"/>
        <pt x="100" y="0" on="1"/>
      </contour>
    </TTGlyph>
    <TTGlyph name="Imacron" xMin="5" yMin="0" xMax="445" yMax="1640">
      <contour>
        <pt x="5" y="1640" on="1"/>
        <pt x="445" y="1640" on="1"/>
        <pt x="445" y="1530" on="1"/>
        <pt x="5" y="1530" on="1"/>
      </contour>
      <contour>
        <pt x="100" y="1400" on="1"/>
        <pt x="350" y="1400" on="1"/>
        <pt x="350" y="0" on="1"/>
        <pt x="100" y="0" on="1"/>
      </contour>
    </TTGlyph>
    <TTGlyph name="Iogonek" xMin="40" yMin="-390" xMax="620" yMax="1400">
      <contour>
        <pt x="100" y="-20" on="1"/>
        <pt x="100" y="1400" on="1"/>
        <pt x="350" y="1400" on="1"/>
        <pt x="350" y="0" on="1"/>
        <pt x="200" y="-153" on="1"/>
        <pt x="200" y="-167" on="1"/>
        <pt x="200" y="-193" on="0"/>
        <pt x="236" y="-230" on="0"/>
        <pt x="262" y="-230" on="1"/>
        <pt x="397" y="-230" on="1"/>
        <pt x="423" y="-230" on="0"/>
        <pt x="460" y="-193" on="0"/>
        <pt x="460" y="-167" on="1"/>
        <pt x="460" y="-155" on="1"/>
        <pt x="620" y="-155" on="1"/>
        <pt x="620" y="-230" on="1"/>
        <pt x="620" y="-296" on="0"/>
        <pt x="526" y="-390" on="0"/>
        <pt x="460" y="-390" on="1"/>
        <pt x="200" y="-390" on="1"/>
        <pt x="134" y="-390" on="0"/>
        <pt x="40" y="-296" on="0"/>
        <pt x="40" y="-230" on="1"/>
        <pt x="40" y="-80" on="1"/>
      </contour>
    </TTGlyph>
    <TTGlyph name="Itilde" xMin="-25" yMin="0" xMax="477" yMax="1710">
      <contour>
        <pt x="388" y="1653" on="1"/>
        <pt x="477" y="1626" on="1"/>
        <pt x="467" y="1571" on="0"/>
        <pt x="377" y="1496" on="0"/>
        <pt x="320" y="1496" on="1"/>
        <pt x="271" y="1496" on="0"/>
        <pt x="195" y="1550" on="0"/>
        <pt x="178" y="1593" on="1"/>
        <pt x="159" y="1619" on="0"/>
        <pt x="132" y="1619" on="1"/>
        <pt x="106" y="1619" on="0"/>
        <pt x="64" y="1580" on="0"/>
        <pt x="64" y="1553" on="1"/>
        <pt x="-25" y="1580" on="1"/>
        <pt x="-16" y="1635" on="0"/>
        <pt x="74" y="1710" on="0"/>
        <pt x="132" y="1710" on="1"/>
        <pt x="181" y="1710" on="0"/>
        <pt x="257" y="1657" on="0"/>
        <pt x="273" y="1613" on="1"/>
        <pt x="282" y="1602" on="0"/>
        <pt x="304" y="1587" on="0"/>
        <pt x="320" y="1587" on="1"/>
        <pt x="346" y="1587" on="0"/>
        <pt x="388" y="1626" on="0"/>
      </contour>
      <contour>
        <pt x="100" y="1400" on="1"/>
        <pt x="350" y="1400" on="1"/>
        <pt x="350" y="0" on="1"/>
        <pt x="100" y="0" on="1"/>
      </contour>
    </TTGlyph>
    <TTGlyph name="J" xMin="100" yMin="0" xMax="810" yMax="1400">
      <contour>
        <pt x="100" y="145" on="1"/>
        <pt x="100" y="430" on="1"/>
        <pt x="350" y="430" on="1"/>
        <pt x="350" y="260" on="1"/>
        <pt x="560" y="260" on="1"/>
        <pt x="560" y="1400" on="1"/>
        <pt x="810" y="1400" on="1"/>
        <pt x="810" y="145" on="1"/>
        <pt x="810" y="85" on="0"/>
        <pt x="725" y="0" on="0"/>
        <pt x="665" y="0" on="1"/>
        <pt x="245" y="0" on="1"/>
        <pt x="185" y="0" on="0"/>
        <pt x="100" y="85" on="0"/>
      </contour>
    </TTGlyph>
    <TTGlyph name="Jcircumflex" xMin="100" yMin="0" xMax="941" yMax="1800">
      <contour>
        <pt x="584" y="1800" on="1"/>
        <pt x="757" y="1800" on="1"/>
        <pt x="941" y="1500" on="1"/>
        <pt x="786" y="1500" on="1"/>
        <pt x="671" y="1682" on="1"/>
        <pt x="555" y="1500" on="1"/>
        <pt x="400" y="1500" on="1"/>
      </contour>
      <contour>
        <pt x="100" y="145" on="1"/>
        <pt x="100" y="430" on="1"/>
        <pt x="350" y="430" on="1"/>
        <pt x="350" y="260" on="1"/>
        <pt x="560" y="260" on="1"/>
        <pt x="560" y="1400" on="1"/>
        <pt x="810" y="1400" on="1"/>
        <pt x="810" y="145" on="1"/>
        <pt x="810" y="85" on="0"/>
        <pt x="725" y="0" on="0"/>
        <pt x="665" y="0" on="1"/>
        <pt x="245" y="0" on="1"/>
        <pt x="185" y="0" on="0"/>
        <pt x="100" y="85" on="0"/>
      </contour>
    </TTGlyph>
    <TTGlyph name="K" xMin="100" yMin="0" xMax="900" yMax="1400">
      <contour>
        <pt x="579" y="714" on="1"/>
        <pt x="900" y="0" on="1"/>
        <pt x="640" y="0" on="1"/>
        <pt x="368" y="603" on="1"/>
        <pt x="350" y="603" on="1"/>
        <pt x="350" y="0" on="1"/>
        <pt x="100" y="0" on="1"/>
        <pt x="100" y="1400" on="1"/>
        <pt x="350" y="1400" on="1"/>
        <pt x="350" y="813" on="1"/>
        <pt x="367" y="813" on="1"/>
        <pt x="620" y="1400" on="1"/>
        <pt x="880" y="1400" on="1"/>
      </contour>
    </TTGlyph>
    <TTGlyph name="L" xMin="100" yMin="0" xMax="800" yMax="1400">
      <contour>
        <pt x="350" y="255" on="1"/>
        <pt x="800" y="255" on="1"/>
        <pt x="800" y="0" on="1"/>
        <pt x="100" y="0" on="1"/>
        <pt x="100" y="1400" on="1"/>
        <pt x="350" y="1400" on="1"/>
      </contour>
    </TTGlyph>
    <TTGlyph name="Lacute" xMin="100" yMin="0" xMax="800" yMax="1750">
      <contour>
        <pt x="460" y="1750" on="1"/>
        <pt x="260" y="1490" on="1"/>
        <pt x="100" y="1490" on="1"/>
        <pt x="240" y="1750" on="1"/>
      </contour>
      <contour>
        <pt x="350" y="255" on="1"/>
        <pt x="800" y="255" on="1"/>
        <pt x="800" y="0" on="1"/>
        <pt x="100" y="0" on="1"/>
        <pt x="100" y="1400" on="1"/>
        <pt x="350" y="1400" on="1"/>
      </contour>
    </TTGlyph>
    <TTGlyph name="Lcaron" xMin="-45" yMin="0" xMax="800" yMax="1800">
      <contour>
        <pt x="139" y="1500" on="1"/>
        <pt x="-45" y="1800" on="1"/>
        <pt x="110" y="1800" on="1"/>
        <pt x="226" y="1618" on="1"/>
        <pt x="341" y="1800" on="1"/>
        <pt x="496" y="1800" on="1"/>
        <pt x="312" y="1500" on="1"/>
      </contour>
      <contour>
        <pt x="350" y="255" on="1"/>
        <pt x="800" y="255" on="1"/>
        <pt x="800" y="0" on="1"/>
        <pt x="100" y="0" on="1"/>
        <pt x="100" y="1400" on="1"/>
        <pt x="350" y="1400" on="1"/>
      </contour>
    </TTGlyph>
    <TTGlyph name="Ldot" xMin="100" yMin="0" xMax="800" yMax="1400">
      <contour>
        <pt x="350" y="255" on="1"/>
        <pt x="800" y="255" on="1"/>
        <pt x="800" y="0" on="1"/>
        <pt x="100" y="0" on="1"/>
        <pt x="100" y="1400" on="1"/>
        <pt x="350" y="1400" on="1"/>
      </contour>
      <contour>
        <pt x="450" y="815" on="1"/>
        <pt x="680" y="815" on="1"/>
        <pt x="680" y="585" on="1"/>
        <pt x="450" y="585" on="1"/>
      </contour>
    </TTGlyph>
    <TTGlyph name="Lslash" xMin="50" yMin="0" xMax="800" yMax="1400">
      <contour>
        <pt x="350" y="255" on="1"/>
        <pt x="800" y="255" on="1"/>
        <pt x="800" y="0" on="1"/>
        <pt x="100" y="0" on="1"/>
        <pt x="100" y="645" on="1"/>
        <pt x="50" y="645" on="1"/>
        <pt x="50" y="755" on="1"/>
        <pt x="100" y="755" on="1"/>
        <pt x="100" y="1400" on="1"/>
        <pt x="350" y="1400" on="1"/>
        <pt x="350" y="755" on="1"/>
        <pt x="590" y="755" on="1"/>
        <pt x="590" y="645" on="1"/>
        <pt x="350" y="645" on="1"/>
      </contour>
    </TTGlyph>
    <TTGlyph name="M" xMin="100" yMin="0" xMax="1220" yMax="1400">
      <contour>
        <pt x="860" y="1400" on="1"/>
        <pt x="1220" y="1400" on="1"/>
        <pt x="1220" y="0" on="1"/>
        <pt x="1000" y="0" on="1"/>
        <pt x="1000" y="1050" on="1"/>
        <pt x="750" y="0" on="1"/>
        <pt x="570" y="0" on="1"/>
        <pt x="320" y="1050" on="1"/>
        <pt x="320" y="0" on="1"/>
        <pt x="100" y="0" on="1"/>
        <pt x="100" y="1400" on="1"/>
        <pt x="460" y="1400" on="1"/>
        <pt x="660" y="482" on="1"/>
      </contour>
    </TTGlyph>
    <TTGlyph name="N" xMin="100" yMin="0" xMax="880" yMax="1400">
      <contour>
        <pt x="640" y="610" on="1"/>
        <pt x="640" y="1400" on="1"/>
        <pt x="880" y="1400" on="1"/>
        <pt x="880" y="0" on="1"/>
        <pt x="670" y="0" on="1"/>
        <pt x="330" y="754" on="1"/>
        <pt x="330" y="0" on="1"/>
        <pt x="100" y="0" on="1"/>
        <pt x="100" y="1400" on="1"/>
        <pt x="310" y="1400" on="1"/>
      </contour>
    </TTGlyph>
    <TTGlyph name="Nacute" xMin="100" yMin="0" xMax="880" yMax="1750">
      <contour>
        <pt x="680" y="1750" on="1"/>
        <pt x="480" y="1490" on="1"/>
        <pt x="320" y="1490" on="1"/>
        <pt x="460" y="1750" on="1"/>
      </contour>
      <contour>
        <pt x="640" y="610" on="1"/>
        <pt x="640" y="1400" on="1"/>
        <pt x="880" y="1400" on="1"/>
        <pt x="880" y="0" on="1"/>
        <pt x="670" y="0" on="1"/>
        <pt x="330" y="754" on="1"/>
        <pt x="330" y="0" on="1"/>
        <pt x="100" y="0" on="1"/>
        <pt x="100" y="1400" on="1"/>
        <pt x="310" y="1400" on="1"/>
      </contour>
    </TTGlyph>
    <TTGlyph name="Ncaron" xMin="100" yMin="0" xMax="880" yMax="1800">
      <contour>
        <pt x="404" y="1500" on="1"/>
        <pt x="220" y="1800" on="1"/>
        <pt x="375" y="1800" on="1"/>
        <pt x="491" y="1618" on="1"/>
        <pt x="606" y="1800" on="1"/>
        <pt x="761" y="1800" on="1"/>
        <pt x="577" y="1500" on="1"/>
      </contour>
      <contour>
        <pt x="640" y="610" on="1"/>
        <pt x="640" y="1400" on="1"/>
        <pt x="880" y="1400" on="1"/>
        <pt x="880" y="0" on="1"/>
        <pt x="670" y="0" on="1"/>
        <pt x="330" y="754" on="1"/>
        <pt x="330" y="0" on="1"/>
        <pt x="100" y="0" on="1"/>
        <pt x="100" y="1400" on="1"/>
        <pt x="310" y="1400" on="1"/>
      </contour>
    </TTGlyph>
    <TTGlyph name="Ntilde" xMin="50" yMin="0" xMax="920" yMax="1790">
      <contour>
        <pt x="920" y="1696" on="1"/>
        <pt x="890" y="1606" on="0"/>
        <pt x="735" y="1491" on="0"/>
        <pt x="635" y="1491" on="1"/>
        <pt x="632" y="1491" on="1"/>
        <pt x="574" y="1491" on="0"/>
        <pt x="464" y="1539" on="0"/>
        <pt x="423" y="1578" on="1"/>
        <pt x="383" y="1614" on="0"/>
        <pt x="333" y="1614" on="1"/>
        <pt x="295" y="1614" on="0"/>
        <pt x="230" y="1571" on="0"/>
        <pt x="216" y="1530" on="1"/>
        <pt x="50" y="1585" on="1"/>
        <pt x="80" y="1674" on="0"/>
        <pt x="235" y="1790" on="0"/>
        <pt x="335" y="1790" on="1"/>
        <pt x="459" y="1790" on="0"/>
        <pt x="547" y="1702" on="1"/>
        <pt x="583" y="1666" on="0"/>
        <pt x="635" y="1666" on="1"/>
        <pt x="676" y="1666" on="0"/>
        <pt x="741" y="1713" on="0"/>
        <pt x="754" y="1751" on="1"/>
      </contour>
      <contour>
        <pt x="640" y="610" on="1"/>
        <pt x="640" y="1400" on="1"/>
        <pt x="880" y="1400" on="1"/>
        <pt x="880" y="0" on="1"/>
        <pt x="670" y="0" on="1"/>
        <pt x="330" y="754" on="1"/>
        <pt x="330" y="0" on="1"/>
        <pt x="100" y="0" on="1"/>
        <pt x="100" y="1400" on="1"/>
        <pt x="310" y="1400" on="1"/>
      </contour>
    </TTGlyph>
    <TTGlyph name="O" xMin="100" yMin="0" xMax="840" yMax="1400">
      <contour>
        <pt x="840" y="1255" on="1"/>
        <pt x="840" y="145" on="1"/>
        <pt x="840" y="85" on="0"/>
        <pt x="755" y="0" on="0"/>
        <pt x="695" y="0" on="1"/>
        <pt x="245" y="0" on="1"/>
        <pt x="185" y="0" on="0"/>
        <pt x="100" y="85" on="0"/>
        <pt x="100" y="145" on="1"/>
        <pt x="100" y="1255" on="1"/>
        <pt x="100" y="1315" on="0"/>
        <pt x="185" y="1400" on="0"/>
        <pt x="245" y="1400" on="1"/>
        <pt x="695" y="1400" on="1"/>
        <pt x="755" y="1400" on="0"/>
        <pt x="840" y="1315" on="0"/>
      </contour>
      <contour>
        <pt x="350" y="250" on="1"/>
        <pt x="590" y="250" on="1"/>
        <pt x="590" y="1150" on="1"/>
        <pt x="350" y="1150" on="1"/>
      </contour>
    </TTGlyph>
    <TTGlyph name="OE" xMin="100" yMin="0" xMax="1429" yMax="1400">
      <contour>
        <pt x="967" y="240" on="1"/>
        <pt x="1429" y="240" on="1"/>
        <pt x="1429" y="0" on="1"/>
        <pt x="717" y="0" on="1"/>
        <pt x="717" y="42" on="1"/>
        <pt x="675" y="0" on="0"/>
        <pt x="615" y="0" on="1"/>
        <pt x="245" y="0" on="1"/>
        <pt x="185" y="0" on="0"/>
        <pt x="100" y="85" on="0"/>
        <pt x="100" y="145" on="1"/>
        <pt x="100" y="1255" on="1"/>
        <pt x="100" y="1315" on="0"/>
        <pt x="185" y="1400" on="0"/>
        <pt x="245" y="1400" on="1"/>
        <pt x="615" y="1400" on="1"/>
        <pt x="675" y="1400" on="0"/>
        <pt x="717" y="1358" on="1"/>
        <pt x="717" y="1400" on="1"/>
        <pt x="1428" y="1400" on="1"/>
        <pt x="1428" y="1170" on="1"/>
        <pt x="967" y="1170" on="1"/>
        <pt x="967" y="820" on="1"/>
        <pt x="1347" y="820" on="1"/>
        <pt x="1347" y="580" on="1"/>
        <pt x="967" y="580" on="1"/>
      </contour>
      <contour>
        <pt x="717" y="1087" on="1"/>
        <pt x="717" y="1113" on="0"/>
        <pt x="681" y="1150" on="0"/>
        <pt x="655" y="1150" on="1"/>
        <pt x="412" y="1150" on="1"/>
        <pt x="386" y="1150" on="0"/>
        <pt x="350" y="1113" on="0"/>
        <pt x="350" y="1087" on="1"/>
        <pt x="350" y="313" on="1"/>
        <pt x="350" y="287" on="0"/>
        <pt x="386" y="250" on="0"/>
        <pt x="412" y="250" on="1"/>
        <pt x="655" y="250" on="1"/>
        <pt x="681" y="250" on="0"/>
        <pt x="717" y="287" on="0"/>
        <pt x="717" y="313" on="1"/>
      </contour>
    </TTGlyph>
    <TTGlyph name="Oacute" xMin="100" yMin="0" xMax="840" yMax="1750">
      <contour>
        <pt x="680" y="1750" on="1"/>
        <pt x="480" y="1490" on="1"/>
        <pt x="320" y="1490" on="1"/>
        <pt x="460" y="1750" on="1"/>
      </contour>
      <contour>
        <pt x="840" y="1255" on="1"/>
        <pt x="840" y="145" on="1"/>
        <pt x="840" y="85" on="0"/>
        <pt x="755" y="0" on="0"/>
        <pt x="695" y="0" on="1"/>
        <pt x="245" y="0" on="1"/>
        <pt x="185" y="0" on="0"/>
        <pt x="100" y="85" on="0"/>
        <pt x="100" y="145" on="1"/>
        <pt x="100" y="1255" on="1"/>
        <pt x="100" y="1315" on="0"/>
        <pt x="185" y="1400" on="0"/>
        <pt x="245" y="1400" on="1"/>
        <pt x="695" y="1400" on="1"/>
        <pt x="755" y="1400" on="0"/>
        <pt x="840" y="1315" on="0"/>
      </contour>
      <contour>
        <pt x="350" y="250" on="1"/>
        <pt x="590" y="250" on="1"/>
        <pt x="590" y="1150" on="1"/>
        <pt x="350" y="1150" on="1"/>
      </contour>
    </TTGlyph>
    <TTGlyph name="Obreve" xMin="100" yMin="0" xMax="840" yMax="1700">
      <contour>
        <pt x="470" y="1504" on="1"/>
        <pt x="398" y="1504" on="0"/>
        <pt x="285" y="1598" on="0"/>
        <pt x="274" y="1667" on="1"/>
        <pt x="385" y="1700" on="1"/>
        <pt x="385" y="1667" on="0"/>
        <pt x="437" y="1619" on="0"/>
        <pt x="470" y="1619" on="1"/>
        <pt x="503" y="1619" on="0"/>
        <pt x="555" y="1667" on="0"/>
        <pt x="555" y="1700" on="1"/>
        <pt x="666" y="1667" on="1"/>
        <pt x="655" y="1598" on="0"/>
        <pt x="542" y="1504" on="0"/>
      </contour>
      <contour>
        <pt x="840" y="1255" on="1"/>
        <pt x="840" y="145" on="1"/>
        <pt x="840" y="85" on="0"/>
        <pt x="755" y="0" on="0"/>
        <pt x="695" y="0" on="1"/>
        <pt x="245" y="0" on="1"/>
        <pt x="185" y="0" on="0"/>
        <pt x="100" y="85" on="0"/>
        <pt x="100" y="145" on="1"/>
        <pt x="100" y="1255" on="1"/>
        <pt x="100" y="1315" on="0"/>
        <pt x="185" y="1400" on="0"/>
        <pt x="245" y="1400" on="1"/>
        <pt x="695" y="1400" on="1"/>
        <pt x="755" y="1400" on="0"/>
        <pt x="840" y="1315" on="0"/>
      </contour>
      <contour>
        <pt x="350" y="250" on="1"/>
        <pt x="590" y="250" on="1"/>
        <pt x="590" y="1150" on="1"/>
        <pt x="350" y="1150" on="1"/>
      </contour>
    </TTGlyph>
    <TTGlyph name="Ocircumflex" xMin="100" yMin="0" xMax="840" yMax="1800">
      <contour>
        <pt x="384" y="1800" on="1"/>
        <pt x="557" y="1800" on="1"/>
        <pt x="741" y="1500" on="1"/>
        <pt x="586" y="1500" on="1"/>
        <pt x="471" y="1682" on="1"/>
        <pt x="355" y="1500" on="1"/>
        <pt x="200" y="1500" on="1"/>
      </contour>
      <contour>
        <pt x="840" y="1255" on="1"/>
        <pt x="840" y="145" on="1"/>
        <pt x="840" y="85" on="0"/>
        <pt x="755" y="0" on="0"/>
        <pt x="695" y="0" on="1"/>
        <pt x="245" y="0" on="1"/>
        <pt x="185" y="0" on="0"/>
        <pt x="100" y="85" on="0"/>
        <pt x="100" y="145" on="1"/>
        <pt x="100" y="1255" on="1"/>
        <pt x="100" y="1315" on="0"/>
        <pt x="185" y="1400" on="0"/>
        <pt x="245" y="1400" on="1"/>
        <pt x="695" y="1400" on="1"/>
        <pt x="755" y="1400" on="0"/>
        <pt x="840" y="1315" on="0"/>
      </contour>
      <contour>
        <pt x="350" y="250" on="1"/>
        <pt x="590" y="250" on="1"/>
        <pt x="590" y="1150" on="1"/>
        <pt x="350" y="1150" on="1"/>
      </contour>
    </TTGlyph>
    <TTGlyph name="Odieresis" xMin="100" yMin="0" xMax="840" yMax="1700">
      <contour>
        <pt x="275" y="1700" on="1"/>
        <pt x="425" y="1700" on="1"/>
        <pt x="425" y="1550" on="1"/>
        <pt x="275" y="1550" on="1"/>
      </contour>
      <contour>
        <pt x="515" y="1700" on="1"/>
        <pt x="665" y="1700" on="1"/>
        <pt x="665" y="1550" on="1"/>
        <pt x="515" y="1550" on="1"/>
      </contour>
      <contour>
        <pt x="840" y="1255" on="1"/>
        <pt x="840" y="145" on="1"/>
        <pt x="840" y="85" on="0"/>
        <pt x="755" y="0" on="0"/>
        <pt x="695" y="0" on="1"/>
        <pt x="245" y="0" on="1"/>
        <pt x="185" y="0" on="0"/>
        <pt x="100" y="85" on="0"/>
        <pt x="100" y="145" on="1"/>
        <pt x="100" y="1255" on="1"/>
        <pt x="100" y="1315" on="0"/>
        <pt x="185" y="1400" on="0"/>
        <pt x="245" y="1400" on="1"/>
        <pt x="695" y="1400" on="1"/>
        <pt x="755" y="1400" on="0"/>
        <pt x="840" y="1315" on="0"/>
      </contour>
      <contour>
        <pt x="350" y="250" on="1"/>
        <pt x="590" y="250" on="1"/>
        <pt x="590" y="1150" on="1"/>
        <pt x="350" y="1150" on="1"/>
      </contour>
    </TTGlyph>
    <TTGlyph name="Ograve" xMin="100" yMin="0" xMax="840" yMax="1750">
      <contour>
        <pt x="440" y="1490" on="1"/>
        <pt x="240" y="1750" on="1"/>
        <pt x="460" y="1750" on="1"/>
        <pt x="600" y="1490" on="1"/>
      </contour>
      <contour>
        <pt x="840" y="1255" on="1"/>
        <pt x="840" y="145" on="1"/>
        <pt x="840" y="85" on="0"/>
        <pt x="755" y="0" on="0"/>
        <pt x="695" y="0" on="1"/>
        <pt x="245" y="0" on="1"/>
        <pt x="185" y="0" on="0"/>
        <pt x="100" y="85" on="0"/>
        <pt x="100" y="145" on="1"/>
        <pt x="100" y="1255" on="1"/>
        <pt x="100" y="1315" on="0"/>
        <pt x="185" y="1400" on="0"/>
        <pt x="245" y="1400" on="1"/>
        <pt x="695" y="1400" on="1"/>
        <pt x="755" y="1400" on="0"/>
        <pt x="840" y="1315" on="0"/>
      </contour>
      <contour>
        <pt x="350" y="250" on="1"/>
        <pt x="590" y="250" on="1"/>
        <pt x="590" y="1150" on="1"/>
        <pt x="350" y="1150" on="1"/>
      </contour>
    </TTGlyph>
    <TTGlyph name="Ohungarumlaut" xMin="100" yMin="0" xMax="840" yMax="1750">
      <contour>
        <pt x="540" y="1750" on="1"/>
        <pt x="340" y="1490" on="1"/>
        <pt x="180" y="1490" on="1"/>
        <pt x="320" y="1750" on="1"/>
      </contour>
      <contour>
        <pt x="840" y="1750" on="1"/>
        <pt x="640" y="1490" on="1"/>
        <pt x="480" y="1490" on="1"/>
        <pt x="620" y="1750" on="1"/>
      </contour>
      <contour>
        <pt x="840" y="1255" on="1"/>
        <pt x="840" y="145" on="1"/>
        <pt x="840" y="85" on="0"/>
        <pt x="755" y="0" on="0"/>
        <pt x="695" y="0" on="1"/>
        <pt x="245" y="0" on="1"/>
        <pt x="185" y="0" on="0"/>
        <pt x="100" y="85" on="0"/>
        <pt x="100" y="145" on="1"/>
        <pt x="100" y="1255" on="1"/>
        <pt x="100" y="1315" on="0"/>
        <pt x="185" y="1400" on="0"/>
        <pt x="245" y="1400" on="1"/>
        <pt x="695" y="1400" on="1"/>
        <pt x="755" y="1400" on="0"/>
        <pt x="840" y="1315" on="0"/>
      </contour>
      <contour>
        <pt x="350" y="250" on="1"/>
        <pt x="590" y="250" on="1"/>
        <pt x="590" y="1150" on="1"/>
        <pt x="350" y="1150" on="1"/>
      </contour>
    </TTGlyph>
    <TTGlyph name="Omacron" xMin="100" yMin="0" xMax="840" yMax="1640">
      <contour>
        <pt x="250" y="1640" on="1"/>
        <pt x="690" y="1640" on="1"/>
        <pt x="690" y="1530" on="1"/>
        <pt x="250" y="1530" on="1"/>
      </contour>
      <contour>
        <pt x="840" y="1255" on="1"/>
        <pt x="840" y="145" on="1"/>
        <pt x="840" y="85" on="0"/>
        <pt x="755" y="0" on="0"/>
        <pt x="695" y="0" on="1"/>
        <pt x="245" y="0" on="1"/>
        <pt x="185" y="0" on="0"/>
        <pt x="100" y="85" on="0"/>
        <pt x="100" y="145" on="1"/>
        <pt x="100" y="1255" on="1"/>
        <pt x="100" y="1315" on="0"/>
        <pt x="185" y="1400" on="0"/>
        <pt x="245" y="1400" on="1"/>
        <pt x="695" y="1400" on="1"/>
        <pt x="755" y="1400" on="0"/>
        <pt x="840" y="1315" on="0"/>
      </contour>
      <contour>
        <pt x="350" y="250" on="1"/>
        <pt x="590" y="250" on="1"/>
        <pt x="590" y="1150" on="1"/>
        <pt x="350" y="1150" on="1"/>
      </contour>
    </TTGlyph>
    <TTGlyph name="Oslash" xMin="100" yMin="0" xMax="840" yMax="1400">
      <contour>
        <pt x="840" y="1255" on="1"/>
        <pt x="840" y="145" on="1"/>
        <pt x="840" y="85" on="0"/>
        <pt x="755" y="0" on="0"/>
        <pt x="695" y="0" on="1"/>
        <pt x="245" y="0" on="1"/>
        <pt x="185" y="0" on="0"/>
        <pt x="100" y="85" on="0"/>
        <pt x="100" y="145" on="1"/>
        <pt x="100" y="1255" on="1"/>
        <pt x="100" y="1315" on="0"/>
        <pt x="185" y="1400" on="0"/>
        <pt x="245" y="1400" on="1"/>
        <pt x="695" y="1400" on="1"/>
        <pt x="755" y="1400" on="0"/>
        <pt x="840" y="1315" on="0"/>
      </contour>
      <contour>
        <pt x="350" y="732" on="1"/>
        <pt x="590" y="928" on="1"/>
        <pt x="590" y="1150" on="1"/>
        <pt x="350" y="1150" on="1"/>
      </contour>
      <contour>
        <pt x="350" y="250" on="1"/>
        <pt x="590" y="250" on="1"/>
        <pt x="590" y="658" on="1"/>
        <pt x="350" y="462" on="1"/>
      </contour>
    </TTGlyph>
    <TTGlyph name="Otilde" xMin="100" yMin="0" xMax="840" yMax="1710">
      <contour>
        <pt x="633" y="1653" on="1"/>
        <pt x="722" y="1626" on="1"/>
        <pt x="712" y="1571" on="0"/>
        <pt x="622" y="1496" on="0"/>
        <pt x="565" y="1496" on="1"/>
        <pt x="516" y="1496" on="0"/>
        <pt x="440" y="1550" on="0"/>
        <pt x="423" y="1593" on="1"/>
        <pt x="404" y="1619" on="0"/>
        <pt x="377" y="1619" on="1"/>
        <pt x="351" y="1619" on="0"/>
        <pt x="309" y="1580" on="0"/>
        <pt x="309" y="1553" on="1"/>
        <pt x="220" y="1580" on="1"/>
        <pt x="229" y="1635" on="0"/>
        <pt x="319" y="1710" on="0"/>
        <pt x="377" y="1710" on="1"/>
        <pt x="426" y="1710" on="0"/>
        <pt x="502" y="1657" on="0"/>
        <pt x="518" y="1613" on="1"/>
        <pt x="527" y="1602" on="0"/>
        <pt x="549" y="1587" on="0"/>
        <pt x="565" y="1587" on="1"/>
        <pt x="591" y="1587" on="0"/>
        <pt x="633" y="1626" on="0"/>
      </contour>
      <contour>
        <pt x="840" y="1255" on="1"/>
        <pt x="840" y="145" on="1"/>
        <pt x="840" y="85" on="0"/>
        <pt x="755" y="0" on="0"/>
        <pt x="695" y="0" on="1"/>
        <pt x="245" y="0" on="1"/>
        <pt x="185" y="0" on="0"/>
        <pt x="100" y="85" on="0"/>
        <pt x="100" y="145" on="1"/>
        <pt x="100" y="1255" on="1"/>
        <pt x="100" y="1315" on="0"/>
        <pt x="185" y="1400" on="0"/>
        <pt x="245" y="1400" on="1"/>
        <pt x="695" y="1400" on="1"/>
        <pt x="755" y="1400" on="0"/>
        <pt x="840" y="1315" on="0"/>
      </contour>
      <contour>
        <pt x="350" y="250" on="1"/>
        <pt x="590" y="250" on="1"/>
        <pt x="590" y="1150" on="1"/>
        <pt x="350" y="1150" on="1"/>
      </contour>
    </TTGlyph>
    <TTGlyph name="P" xMin="100" yMin="0" xMax="810" yMax="1400">
      <contour>
        <pt x="810" y="1260" on="1"/>
        <pt x="810" y="665" on="1"/>
        <pt x="810" y="605" on="0"/>
        <pt x="725" y="520" on="0"/>
        <pt x="665" y="520" on="1"/>
        <pt x="350" y="520" on="1"/>
        <pt x="350" y="0" on="1"/>
        <pt x="100" y="0" on="1"/>
        <pt x="100" y="1400" on="1"/>
        <pt x="670" y="1400" on="1"/>
        <pt x="728" y="1400" on="0"/>
        <pt x="810" y="1318" on="0"/>
      </contour>
      <contour>
        <pt x="350" y="770" on="1"/>
        <pt x="560" y="770" on="1"/>
        <pt x="560" y="1160" on="1"/>
        <pt x="350" y="1160" on="1"/>
      </contour>
    </TTGlyph>
    <TTGlyph name="Q" xMin="100" yMin="-250" xMax="840" yMax="1400">
      <contour>
        <pt x="100" y="145" on="1"/>
        <pt x="100" y="1255" on="1"/>
        <pt x="100" y="1315" on="0"/>
        <pt x="185" y="1400" on="0"/>
        <pt x="245" y="1400" on="1"/>
        <pt x="695" y="1400" on="1"/>
        <pt x="755" y="1400" on="0"/>
        <pt x="840" y="1315" on="0"/>
        <pt x="840" y="1255" on="1"/>
        <pt x="840" y="145" on="1"/>
        <pt x="840" y="87" on="0"/>
        <pt x="759" y="0" on="0"/>
        <pt x="700" y="0" on="1"/>
        <pt x="820" y="-150" on="1"/>
        <pt x="640" y="-250" on="1"/>
        <pt x="499" y="-21" on="1"/>
        <pt x="499" y="-21" on="0"/>
        <pt x="484" y="0" on="0"/>
        <pt x="465" y="0" on="1"/>
        <pt x="245" y="0" on="1"/>
        <pt x="185" y="0" on="0"/>
        <pt x="100" y="85" on="0"/>
      </contour>
      <contour>
        <pt x="590" y="250" on="1"/>
        <pt x="590" y="1150" on="1"/>
        <pt x="350" y="1150" on="1"/>
        <pt x="350" y="250" on="1"/>
      </contour>
    </TTGlyph>
    <TTGlyph name="R" xMin="100" yMin="0" xMax="863" yMax="1400">
      <contour>
        <pt x="350" y="0" on="1"/>
        <pt x="100" y="0" on="1"/>
        <pt x="100" y="1400" on="1"/>
        <pt x="635" y="1400" on="1"/>
        <pt x="695" y="1400" on="0"/>
        <pt x="780" y="1315" on="0"/>
        <pt x="780" y="1255" on="1"/>
        <pt x="780" y="745" on="1"/>
        <pt x="780" y="668" on="0"/>
        <pt x="716" y="625" on="1"/>
        <pt x="780" y="582" on="0"/>
        <pt x="780" y="505" on="1"/>
        <pt x="780" y="144" on="1"/>
        <pt x="780" y="59" on="0"/>
        <pt x="855" y="18" on="1"/>
        <pt x="863" y="13" on="0"/>
        <pt x="863" y="8" on="1"/>
        <pt x="863" y="0" on="0"/>
        <pt x="855" y="0" on="1"/>
        <pt x="684" y="0" on="1"/>
        <pt x="624" y="0" on="0"/>
        <pt x="540" y="84" on="0"/>
        <pt x="540" y="144" on="1"/>
        <pt x="540" y="520" on="1"/>
        <pt x="350" y="520" on="1"/>
      </contour>
      <contour>
        <pt x="350" y="740" on="1"/>
        <pt x="540" y="740" on="1"/>
        <pt x="540" y="1150" on="1"/>
        <pt x="350" y="1150" on="1"/>
      </contour>
    </TTGlyph>
    <TTGlyph name="Racute" xMin="100" yMin="0" xMax="863" yMax="1750">
      <contour>
        <pt x="660" y="1750" on="1"/>
        <pt x="460" y="1490" on="1"/>
        <pt x="300" y="1490" on="1"/>
        <pt x="440" y="1750" on="1"/>
      </contour>
      <contour>
        <pt x="350" y="0" on="1"/>
        <pt x="100" y="0" on="1"/>
        <pt x="100" y="1400" on="1"/>
        <pt x="635" y="1400" on="1"/>
        <pt x="695" y="1400" on="0"/>
        <pt x="780" y="1315" on="0"/>
        <pt x="780" y="1255" on="1"/>
        <pt x="780" y="745" on="1"/>
        <pt x="780" y="668" on="0"/>
        <pt x="716" y="625" on="1"/>
        <pt x="780" y="582" on="0"/>
        <pt x="780" y="505" on="1"/>
        <pt x="780" y="144" on="1"/>
        <pt x="780" y="59" on="0"/>
        <pt x="855" y="18" on="1"/>
        <pt x="863" y="13" on="0"/>
        <pt x="863" y="8" on="1"/>
        <pt x="863" y="0" on="0"/>
        <pt x="855" y="0" on="1"/>
        <pt x="684" y="0" on="1"/>
        <pt x="624" y="0" on="0"/>
        <pt x="540" y="84" on="0"/>
        <pt x="540" y="144" on="1"/>
        <pt x="540" y="520" on="1"/>
        <pt x="350" y="520" on="1"/>
      </contour>
      <contour>
        <pt x="350" y="740" on="1"/>
        <pt x="540" y="740" on="1"/>
        <pt x="540" y="1150" on="1"/>
        <pt x="350" y="1150" on="1"/>
      </contour>
    </TTGlyph>
    <TTGlyph name="Rcaron" xMin="100" yMin="0" xMax="863" yMax="1800">
      <contour>
        <pt x="354" y="1500" on="1"/>
        <pt x="170" y="1800" on="1"/>
        <pt x="325" y="1800" on="1"/>
        <pt x="441" y="1618" on="1"/>
        <pt x="556" y="1800" on="1"/>
        <pt x="711" y="1800" on="1"/>
        <pt x="527" y="1500" on="1"/>
      </contour>
      <contour>
        <pt x="350" y="0" on="1"/>
        <pt x="100" y="0" on="1"/>
        <pt x="100" y="1400" on="1"/>
        <pt x="635" y="1400" on="1"/>
        <pt x="695" y="1400" on="0"/>
        <pt x="780" y="1315" on="0"/>
        <pt x="780" y="1255" on="1"/>
        <pt x="780" y="745" on="1"/>
        <pt x="780" y="668" on="0"/>
        <pt x="716" y="625" on="1"/>
        <pt x="780" y="582" on="0"/>
        <pt x="780" y="505" on="1"/>
        <pt x="780" y="144" on="1"/>
        <pt x="780" y="59" on="0"/>
        <pt x="855" y="18" on="1"/>
        <pt x="863" y="13" on="0"/>
        <pt x="863" y="8" on="1"/>
        <pt x="863" y="0" on="0"/>
        <pt x="855" y="0" on="1"/>
        <pt x="684" y="0" on="1"/>
        <pt x="624" y="0" on="0"/>
        <pt x="540" y="84" on="0"/>
        <pt x="540" y="144" on="1"/>
        <pt x="540" y="520" on="1"/>
        <pt x="350" y="520" on="1"/>
      </contour>
      <contour>
        <pt x="350" y="740" on="1"/>
        <pt x="540" y="740" on="1"/>
        <pt x="540" y="1150" on="1"/>
        <pt x="350" y="1150" on="1"/>
      </contour>
    </TTGlyph>
    <TTGlyph name="S" xMin="100" yMin="0" xMax="840" yMax="1400">
      <contour>
        <pt x="100" y="150" on="1"/>
        <pt x="100" y="463" on="1"/>
        <pt x="340" y="463" on="1"/>
        <pt x="340" y="261" on="1"/>
        <pt x="340" y="240" on="0"/>
        <pt x="361" y="240" on="1"/>
        <pt x="579" y="240" on="1"/>
        <pt x="600" y="240" on="0"/>
        <pt x="600" y="261" on="1"/>
        <pt x="600" y="559" on="1"/>
        <pt x="600" y="580" on="0"/>
        <pt x="579" y="580" on="1"/>
        <pt x="250" y="580" on="1"/>
        <pt x="188" y="580" on="0"/>
        <pt x="100" y="669" on="0"/>
        <pt x="100" y="731" on="1"/>
        <pt x="100" y="1250" on="1"/>
        <pt x="100" y="1312" on="0"/>
        <pt x="188" y="1400" on="0"/>
        <pt x="250" y="1400" on="1"/>
        <pt x="690" y="1400" on="1"/>
        <pt x="752" y="1400" on="0"/>
        <pt x="840" y="1312" on="0"/>
        <pt x="840" y="1250" on="1"/>
        <pt x="840" y="980" on="1"/>
        <pt x="600" y="980" on="1"/>
        <pt x="600" y="1139" on="1"/>
        <pt x="600" y="1160" on="0"/>
        <pt x="579" y="1160" on="1"/>
        <pt x="361" y="1160" on="1"/>
        <pt x="340" y="1160" on="0"/>
        <pt x="340" y="1139" on="1"/>
        <pt x="340" y="841" on="1"/>
        <pt x="340" y="820" on="0"/>
        <pt x="361" y="820" on="1"/>
        <pt x="690" y="820" on="1"/>
        <pt x="752" y="820" on="0"/>
        <pt x="840" y="732" on="0"/>
        <pt x="840" y="670" on="1"/>
        <pt x="840" y="150" on="1"/>
        <pt x="840" y="88" on="0"/>
        <pt x="752" y="0" on="0"/>
        <pt x="690" y="0" on="1"/>
        <pt x="250" y="0" on="1"/>
        <pt x="188" y="0" on="0"/>
        <pt x="100" y="88" on="0"/>
      </contour>
    </TTGlyph>
    <TTGlyph name="Sacute" xMin="100" yMin="0" xMax="840" yMax="1750">
      <contour>
        <pt x="650" y="1750" on="1"/>
        <pt x="450" y="1490" on="1"/>
        <pt x="290" y="1490" on="1"/>
        <pt x="430" y="1750" on="1"/>
      </contour>
      <contour>
        <pt x="100" y="150" on="1"/>
        <pt x="100" y="463" on="1"/>
        <pt x="340" y="463" on="1"/>
        <pt x="340" y="261" on="1"/>
        <pt x="340" y="240" on="0"/>
        <pt x="361" y="240" on="1"/>
        <pt x="579" y="240" on="1"/>
        <pt x="600" y="240" on="0"/>
        <pt x="600" y="261" on="1"/>
        <pt x="600" y="559" on="1"/>
        <pt x="600" y="580" on="0"/>
        <pt x="579" y="580" on="1"/>
        <pt x="250" y="580" on="1"/>
        <pt x="188" y="580" on="0"/>
        <pt x="100" y="669" on="0"/>
        <pt x="100" y="731" on="1"/>
        <pt x="100" y="1250" on="1"/>
        <pt x="100" y="1312" on="0"/>
        <pt x="188" y="1400" on="0"/>
        <pt x="250" y="1400" on="1"/>
        <pt x="690" y="1400" on="1"/>
        <pt x="752" y="1400" on="0"/>
        <pt x="840" y="1312" on="0"/>
        <pt x="840" y="1250" on="1"/>
        <pt x="840" y="980" on="1"/>
        <pt x="600" y="980" on="1"/>
        <pt x="600" y="1139" on="1"/>
        <pt x="600" y="1160" on="0"/>
        <pt x="579" y="1160" on="1"/>
        <pt x="361" y="1160" on="1"/>
        <pt x="340" y="1160" on="0"/>
        <pt x="340" y="1139" on="1"/>
        <pt x="340" y="841" on="1"/>
        <pt x="340" y="820" on="0"/>
        <pt x="361" y="820" on="1"/>
        <pt x="690" y="820" on="1"/>
        <pt x="752" y="820" on="0"/>
        <pt x="840" y="732" on="0"/>
        <pt x="840" y="670" on="1"/>
        <pt x="840" y="150" on="1"/>
        <pt x="840" y="88" on="0"/>
        <pt x="752" y="0" on="0"/>
        <pt x="690" y="0" on="1"/>
        <pt x="250" y="0" on="1"/>
        <pt x="188" y="0" on="0"/>
        <pt x="100" y="88" on="0"/>
      </contour>
    </TTGlyph>
    <TTGlyph name="Scaron" xMin="100" yMin="0" xMax="840" yMax="1800">
      <contour>
        <pt x="384" y="1500" on="1"/>
        <pt x="200" y="1800" on="1"/>
        <pt x="355" y="1800" on="1"/>
        <pt x="471" y="1618" on="1"/>
        <pt x="586" y="1800" on="1"/>
        <pt x="741" y="1800" on="1"/>
        <pt x="557" y="1500" on="1"/>
      </contour>
      <contour>
        <pt x="100" y="150" on="1"/>
        <pt x="100" y="463" on="1"/>
        <pt x="340" y="463" on="1"/>
        <pt x="340" y="261" on="1"/>
        <pt x="340" y="240" on="0"/>
        <pt x="361" y="240" on="1"/>
        <pt x="579" y="240" on="1"/>
        <pt x="600" y="240" on="0"/>
        <pt x="600" y="261" on="1"/>
        <pt x="600" y="559" on="1"/>
        <pt x="600" y="580" on="0"/>
        <pt x="579" y="580" on="1"/>
        <pt x="250" y="580" on="1"/>
        <pt x="188" y="580" on="0"/>
        <pt x="100" y="669" on="0"/>
        <pt x="100" y="731" on="1"/>
        <pt x="100" y="1250" on="1"/>
        <pt x="100" y="1312" on="0"/>
        <pt x="188" y="1400" on="0"/>
        <pt x="250" y="1400" on="1"/>
        <pt x="690" y="1400" on="1"/>
        <pt x="752" y="1400" on="0"/>
        <pt x="840" y="1312" on="0"/>
        <pt x="840" y="1250" on="1"/>
        <pt x="840" y="980" on="1"/>
        <pt x="600" y="980" on="1"/>
        <pt x="600" y="1139" on="1"/>
        <pt x="600" y="1160" on="0"/>
        <pt x="579" y="1160" on="1"/>
        <pt x="361" y="1160" on="1"/>
        <pt x="340" y="1160" on="0"/>
        <pt x="340" y="1139" on="1"/>
        <pt x="340" y="841" on="1"/>
        <pt x="340" y="820" on="0"/>
        <pt x="361" y="820" on="1"/>
        <pt x="690" y="820" on="1"/>
        <pt x="752" y="820" on="0"/>
        <pt x="840" y="732" on="0"/>
        <pt x="840" y="670" on="1"/>
        <pt x="840" y="150" on="1"/>
        <pt x="840" y="88" on="0"/>
        <pt x="752" y="0" on="0"/>
        <pt x="690" y="0" on="1"/>
        <pt x="250" y="0" on="1"/>
        <pt x="188" y="0" on="0"/>
        <pt x="100" y="88" on="0"/>
      </contour>
    </TTGlyph>
    <TTGlyph name="Scedilla" xMin="100" yMin="-390" xMax="840" yMax="1400">
      <contour>
        <pt x="464" y="0" on="1"/>
        <pt x="250" y="0" on="1"/>
        <pt x="188" y="0" on="0"/>
        <pt x="100" y="88" on="0"/>
        <pt x="100" y="150" on="1"/>
        <pt x="100" y="463" on="1"/>
        <pt x="340" y="463" on="1"/>
        <pt x="340" y="261" on="1"/>
        <pt x="340" y="240" on="0"/>
        <pt x="361" y="240" on="1"/>
        <pt x="579" y="240" on="1"/>
        <pt x="600" y="240" on="0"/>
        <pt x="600" y="261" on="1"/>
        <pt x="600" y="559" on="1"/>
        <pt x="600" y="580" on="0"/>
        <pt x="579" y="580" on="1"/>
        <pt x="250" y="580" on="1"/>
        <pt x="188" y="580" on="0"/>
        <pt x="100" y="669" on="0"/>
        <pt x="100" y="731" on="1"/>
        <pt x="100" y="1250" on="1"/>
        <pt x="100" y="1312" on="0"/>
        <pt x="188" y="1400" on="0"/>
        <pt x="250" y="1400" on="1"/>
        <pt x="690" y="1400" on="1"/>
        <pt x="752" y="1400" on="0"/>
        <pt x="840" y="1312" on="0"/>
        <pt x="840" y="1250" on="1"/>
        <pt x="840" y="980" on="1"/>
        <pt x="600" y="980" on="1"/>
        <pt x="600" y="1139" on="1"/>
        <pt x="600" y="1160" on="0"/>
        <pt x="579" y="1160" on="1"/>
        <pt x="361" y="1160" on="1"/>
        <pt x="340" y="1160" on="0"/>
        <pt x="340" y="1139" on="1"/>
        <pt x="340" y="841" on="1"/>
        <pt x="340" y="820" on="0"/>
        <pt x="361" y="820" on="1"/>
        <pt x="690" y="820" on="1"/>
        <pt x="752" y="820" on="0"/>
        <pt x="840" y="732" on="0"/>
        <pt x="840" y="670" on="1"/>
        <pt x="840" y="150" on="1"/>
        <pt x="840" y="88" on="0"/>
        <pt x="752" y="0" on="0"/>
        <pt x="690" y="0" on="1"/>
        <pt x="770" y="-80" on="1"/>
        <pt x="770" y="-230" on="1"/>
        <pt x="770" y="-296" on="0"/>
        <pt x="676" y="-390" on="0"/>
        <pt x="610" y="-390" on="1"/>
        <pt x="350" y="-390" on="1"/>
        <pt x="284" y="-390" on="0"/>
        <pt x="190" y="-296" on="0"/>
        <pt x="190" y="-230" on="1"/>
        <pt x="190" y="-155" on="1"/>
        <pt x="350" y="-155" on="1"/>
        <pt x="350" y="-167" on="1"/>
        <pt x="350" y="-193" on="0"/>
        <pt x="387" y="-230" on="0"/>
        <pt x="413" y="-230" on="1"/>
        <pt x="548" y="-230" on="1"/>
        <pt x="574" y="-230" on="0"/>
        <pt x="610" y="-193" on="0"/>
        <pt x="610" y="-167" on="1"/>
        <pt x="610" y="-150" on="1"/>
      </contour>
    </TTGlyph>
    <TTGlyph name="Scircumflex" xMin="100" yMin="0" xMax="840" yMax="1800">
      <contour>
        <pt x="384" y="1800" on="1"/>
        <pt x="557" y="1800" on="1"/>
        <pt x="741" y="1500" on="1"/>
        <pt x="586" y="1500" on="1"/>
        <pt x="471" y="1682" on="1"/>
        <pt x="355" y="1500" on="1"/>
        <pt x="200" y="1500" on="1"/>
      </contour>
      <contour>
        <pt x="100" y="150" on="1"/>
        <pt x="100" y="463" on="1"/>
        <pt x="340" y="463" on="1"/>
        <pt x="340" y="261" on="1"/>
        <pt x="340" y="240" on="0"/>
        <pt x="361" y="240" on="1"/>
        <pt x="579" y="240" on="1"/>
        <pt x="600" y="240" on="0"/>
        <pt x="600" y="261" on="1"/>
        <pt x="600" y="559" on="1"/>
        <pt x="600" y="580" on="0"/>
        <pt x="579" y="580" on="1"/>
        <pt x="250" y="580" on="1"/>
        <pt x="188" y="580" on="0"/>
        <pt x="100" y="669" on="0"/>
        <pt x="100" y="731" on="1"/>
        <pt x="100" y="1250" on="1"/>
        <pt x="100" y="1312" on="0"/>
        <pt x="188" y="1400" on="0"/>
        <pt x="250" y="1400" on="1"/>
        <pt x="690" y="1400" on="1"/>
        <pt x="752" y="1400" on="0"/>
        <pt x="840" y="1312" on="0"/>
        <pt x="840" y="1250" on="1"/>
        <pt x="840" y="980" on="1"/>
        <pt x="600" y="980" on="1"/>
        <pt x="600" y="1139" on="1"/>
        <pt x="600" y="1160" on="0"/>
        <pt x="579" y="1160" on="1"/>
        <pt x="361" y="1160" on="1"/>
        <pt x="340" y="1160" on="0"/>
        <pt x="340" y="1139" on="1"/>
        <pt x="340" y="841" on="1"/>
        <pt x="340" y="820" on="0"/>
        <pt x="361" y="820" on="1"/>
        <pt x="690" y="820" on="1"/>
        <pt x="752" y="820" on="0"/>
        <pt x="840" y="732" on="0"/>
        <pt x="840" y="670" on="1"/>
        <pt x="840" y="150" on="1"/>
        <pt x="840" y="88" on="0"/>
        <pt x="752" y="0" on="0"/>
        <pt x="690" y="0" on="1"/>
        <pt x="250" y="0" on="1"/>
        <pt x="188" y="0" on="0"/>
        <pt x="100" y="88" on="0"/>
      </contour>
    </TTGlyph>
    <TTGlyph name="T" xMin="50" yMin="0" xMax="830" yMax="1400">
      <contour>
        <pt x="315" y="0" on="1"/>
        <pt x="315" y="1160" on="1"/>
        <pt x="50" y="1160" on="1"/>
        <pt x="50" y="1400" on="1"/>
        <pt x="830" y="1400" on="1"/>
        <pt x="830" y="1160" on="1"/>
        <pt x="565" y="1160" on="1"/>
        <pt x="565" y="0" on="1"/>
      </contour>
    </TTGlyph>
    <TTGlyph name="Tbar" xMin="50" yMin="0" xMax="830" yMax="1400">
      <contour>
        <pt x="315" y="0" on="1"/>
        <pt x="315" y="645" on="1"/>
        <pt x="220" y="645" on="1"/>
        <pt x="220" y="755" on="1"/>
        <pt x="315" y="755" on="1"/>
        <pt x="315" y="1160" on="1"/>
        <pt x="50" y="1160" on="1"/>
        <pt x="50" y="1400" on="1"/>
        <pt x="830" y="1400" on="1"/>
        <pt x="830" y="1160" on="1"/>
        <pt x="565" y="1160" on="1"/>
        <pt x="565" y="755" on="1"/>
        <pt x="660" y="755" on="1"/>
        <pt x="660" y="645" on="1"/>
        <pt x="565" y="645" on="1"/>
        <pt x="565" y="0" on="1"/>
      </contour>
    </TTGlyph>
    <TTGlyph name="Tcaron" xMin="50" yMin="0" xMax="830" yMax="1800">
      <contour>
        <pt x="404" y="1500" on="1"/>
        <pt x="220" y="1800" on="1"/>
        <pt x="375" y="1800" on="1"/>
        <pt x="491" y="1618" on="1"/>
        <pt x="606" y="1800" on="1"/>
        <pt x="761" y="1800" on="1"/>
        <pt x="577" y="1500" on="1"/>
      </contour>
      <contour>
        <pt x="315" y="0" on="1"/>
        <pt x="315" y="1160" on="1"/>
        <pt x="50" y="1160" on="1"/>
        <pt x="50" y="1400" on="1"/>
        <pt x="830" y="1400" on="1"/>
        <pt x="830" y="1160" on="1"/>
        <pt x="565" y="1160" on="1"/>
        <pt x="565" y="0" on="1"/>
      </contour>
    </TTGlyph>
    <TTGlyph name="Thorn" xMin="100" yMin="0" xMax="840" yMax="1400">
      <contour>
        <pt x="840" y="1060" on="1"/>
        <pt x="840" y="445" on="1"/>
        <pt x="840" y="385" on="0"/>
        <pt x="755" y="300" on="0"/>
        <pt x="695" y="300" on="1"/>
        <pt x="350" y="300" on="1"/>
        <pt x="350" y="0" on="1"/>
        <pt x="100" y="0" on="1"/>
        <pt x="100" y="1400" on="1"/>
        <pt x="350" y="1400" on="1"/>
        <pt x="350" y="1200" on="1"/>
        <pt x="700" y="1200" on="1"/>
        <pt x="758" y="1200" on="0"/>
        <pt x="840" y="1118" on="0"/>
      </contour>
      <contour>
        <pt x="350" y="550" on="1"/>
        <pt x="590" y="550" on="1"/>
        <pt x="590" y="960" on="1"/>
        <pt x="350" y="960" on="1"/>
      </contour>
    </TTGlyph>
    <TTGlyph name="U" xMin="100" yMin="0" xMax="870" yMax="1400">
      <contour>
        <pt x="350" y="1400" on="1"/>
        <pt x="350" y="250" on="1"/>
        <pt x="620" y="250" on="1"/>
        <pt x="620" y="1400" on="1"/>
        <pt x="870" y="1400" on="1"/>
        <pt x="870" y="145" on="1"/>
        <pt x="870" y="85" on="0"/>
        <pt x="785" y="0" on="0"/>
        <pt x="725" y="0" on="1"/>
        <pt x="245" y="0" on="1"/>
        <pt x="185" y="0" on="0"/>
        <pt x="100" y="85" on="0"/>
        <pt x="100" y="145" on="1"/>
        <pt x="100" y="1400" on="1"/>
      </contour>
    </TTGlyph>
    <TTGlyph name="Uacute" xMin="100" yMin="0" xMax="870" yMax="1750">
      <contour>
        <pt x="725" y="1750" on="1"/>
        <pt x="525" y="1490" on="1"/>
        <pt x="365" y="1490" on="1"/>
        <pt x="505" y="1750" on="1"/>
      </contour>
      <contour>
        <pt x="350" y="1400" on="1"/>
        <pt x="350" y="250" on="1"/>
        <pt x="620" y="250" on="1"/>
        <pt x="620" y="1400" on="1"/>
        <pt x="870" y="1400" on="1"/>
        <pt x="870" y="145" on="1"/>
        <pt x="870" y="85" on="0"/>
        <pt x="785" y="0" on="0"/>
        <pt x="725" y="0" on="1"/>
        <pt x="245" y="0" on="1"/>
        <pt x="185" y="0" on="0"/>
        <pt x="100" y="85" on="0"/>
        <pt x="100" y="145" on="1"/>
        <pt x="100" y="1400" on="1"/>
      </contour>
    </TTGlyph>
    <TTGlyph name="Ubreve" xMin="100" yMin="0" xMax="870" yMax="1700">
      <contour>
        <pt x="485" y="1504" on="1"/>
        <pt x="413" y="1504" on="0"/>
        <pt x="300" y="1598" on="0"/>
        <pt x="289" y="1667" on="1"/>
        <pt x="400" y="1700" on="1"/>
        <pt x="400" y="1667" on="0"/>
        <pt x="452" y="1619" on="0"/>
        <pt x="485" y="1619" on="1"/>
        <pt x="518" y="1619" on="0"/>
        <pt x="570" y="1667" on="0"/>
        <pt x="570" y="1700" on="1"/>
        <pt x="681" y="1667" on="1"/>
        <pt x="670" y="1598" on="0"/>
        <pt x="557" y="1504" on="0"/>
      </contour>
      <contour>
        <pt x="350" y="1400" on="1"/>
        <pt x="350" y="250" on="1"/>
        <pt x="620" y="250" on="1"/>
        <pt x="620" y="1400" on="1"/>
        <pt x="870" y="1400" on="1"/>
        <pt x="870" y="145" on="1"/>
        <pt x="870" y="85" on="0"/>
        <pt x="785" y="0" on="0"/>
        <pt x="725" y="0" on="1"/>
        <pt x="245" y="0" on="1"/>
        <pt x="185" y="0" on="0"/>
        <pt x="100" y="85" on="0"/>
        <pt x="100" y="145" on="1"/>
        <pt x="100" y="1400" on="1"/>
      </contour>
    </TTGlyph>
    <TTGlyph name="Ucircumflex" xMin="100" yMin="0" xMax="870" yMax="1800">
      <contour>
        <pt x="399" y="1800" on="1"/>
        <pt x="572" y="1800" on="1"/>
        <pt x="756" y="1500" on="1"/>
        <pt x="601" y="1500" on="1"/>
        <pt x="486" y="1682" on="1"/>
        <pt x="370" y="1500" on="1"/>
        <pt x="215" y="1500" on="1"/>
      </contour>
      <contour>
        <pt x="350" y="1400" on="1"/>
        <pt x="350" y="250" on="1"/>
        <pt x="620" y="250" on="1"/>
        <pt x="620" y="1400" on="1"/>
        <pt x="870" y="1400" on="1"/>
        <pt x="870" y="145" on="1"/>
        <pt x="870" y="85" on="0"/>
        <pt x="785" y="0" on="0"/>
        <pt x="725" y="0" on="1"/>
        <pt x="245" y="0" on="1"/>
        <pt x="185" y="0" on="0"/>
        <pt x="100" y="85" on="0"/>
        <pt x="100" y="145" on="1"/>
        <pt x="100" y="1400" on="1"/>
      </contour>
    </TTGlyph>
    <TTGlyph name="Udieresis" xMin="100" yMin="0" xMax="870" yMax="1700">
      <contour>
        <pt x="290" y="1700" on="1"/>
        <pt x="440" y="1700" on="1"/>
        <pt x="440" y="1550" on="1"/>
        <pt x="290" y="1550" on="1"/>
      </contour>
      <contour>
        <pt x="530" y="1700" on="1"/>
        <pt x="680" y="1700" on="1"/>
        <pt x="680" y="1550" on="1"/>
        <pt x="530" y="1550" on="1"/>
      </contour>
      <contour>
        <pt x="350" y="1400" on="1"/>
        <pt x="350" y="250" on="1"/>
        <pt x="620" y="250" on="1"/>
        <pt x="620" y="1400" on="1"/>
        <pt x="870" y="1400" on="1"/>
        <pt x="870" y="145" on="1"/>
        <pt x="870" y="85" on="0"/>
        <pt x="785" y="0" on="0"/>
        <pt x="725" y="0" on="1"/>
        <pt x="245" y="0" on="1"/>
        <pt x="185" y="0" on="0"/>
        <pt x="100" y="85" on="0"/>
        <pt x="100" y="145" on="1"/>
        <pt x="100" y="1400" on="1"/>
      </contour>
    </TTGlyph>
    <TTGlyph name="Ugrave" xMin="100" yMin="0" xMax="870" yMax="1750">
      <contour>
        <pt x="500" y="1490" on="1"/>
        <pt x="300" y="1750" on="1"/>
        <pt x="520" y="1750" on="1"/>
        <pt x="660" y="1490" on="1"/>
      </contour>
      <contour>
        <pt x="350" y="1400" on="1"/>
        <pt x="350" y="250" on="1"/>
        <pt x="620" y="250" on="1"/>
        <pt x="620" y="1400" on="1"/>
        <pt x="870" y="1400" on="1"/>
        <pt x="870" y="145" on="1"/>
        <pt x="870" y="85" on="0"/>
        <pt x="785" y="0" on="0"/>
        <pt x="725" y="0" on="1"/>
        <pt x="245" y="0" on="1"/>
        <pt x="185" y="0" on="0"/>
        <pt x="100" y="85" on="0"/>
        <pt x="100" y="145" on="1"/>
        <pt x="100" y="1400" on="1"/>
      </contour>
    </TTGlyph>
    <TTGlyph name="Uhungarumlaut" xMin="100" yMin="0" xMax="870" yMax="1750">
      <contour>
        <pt x="570" y="1750" on="1"/>
        <pt x="370" y="1490" on="1"/>
        <pt x="210" y="1490" on="1"/>
        <pt x="350" y="1750" on="1"/>
      </contour>
      <contour>
        <pt x="870" y="1750" on="1"/>
        <pt x="670" y="1490" on="1"/>
        <pt x="510" y="1490" on="1"/>
        <pt x="650" y="1750" on="1"/>
      </contour>
      <contour>
        <pt x="350" y="1400" on="1"/>
        <pt x="350" y="250" on="1"/>
        <pt x="620" y="250" on="1"/>
        <pt x="620" y="1400" on="1"/>
        <pt x="870" y="1400" on="1"/>
        <pt x="870" y="145" on="1"/>
        <pt x="870" y="85" on="0"/>
        <pt x="785" y="0" on="0"/>
        <pt x="725" y="0" on="1"/>
        <pt x="245" y="0" on="1"/>
        <pt x="185" y="0" on="0"/>
        <pt x="100" y="85" on="0"/>
        <pt x="100" y="145" on="1"/>
        <pt x="100" y="1400" on="1"/>
      </contour>
    </TTGlyph>
    <TTGlyph name="Umacron" xMin="100" yMin="0" xMax="870" yMax="1640">
      <contour>
        <pt x="265" y="1640" on="1"/>
        <pt x="705" y="1640" on="1"/>
        <pt x="705" y="1530" on="1"/>
        <pt x="265" y="1530" on="1"/>
      </contour>
      <contour>
        <pt x="350" y="1400" on="1"/>
        <pt x="350" y="250" on="1"/>
        <pt x="620" y="250" on="1"/>
        <pt x="620" y="1400" on="1"/>
        <pt x="870" y="1400" on="1"/>
        <pt x="870" y="145" on="1"/>
        <pt x="870" y="85" on="0"/>
        <pt x="785" y="0" on="0"/>
        <pt x="725" y="0" on="1"/>
        <pt x="245" y="0" on="1"/>
        <pt x="185" y="0" on="0"/>
        <pt x="100" y="85" on="0"/>
        <pt x="100" y="145" on="1"/>
        <pt x="100" y="1400" on="1"/>
      </contour>
    </TTGlyph>
    <TTGlyph name="Uogonek" xMin="100" yMin="-390" xMax="870" yMax="1400">
      <contour>
        <pt x="350" y="1400" on="1"/>
        <pt x="350" y="250" on="1"/>
        <pt x="620" y="250" on="1"/>
        <pt x="620" y="1400" on="1"/>
        <pt x="870" y="1400" on="1"/>
        <pt x="870" y="145" on="1"/>
        <pt x="870" y="85" on="0"/>
        <pt x="785" y="0" on="0"/>
        <pt x="725" y="0" on="1"/>
        <pt x="470" y="0" on="1"/>
        <pt x="320" y="-153" on="1"/>
        <pt x="320" y="-167" on="1"/>
        <pt x="320" y="-193" on="0"/>
        <pt x="356" y="-230" on="0"/>
        <pt x="382" y="-230" on="1"/>
        <pt x="517" y="-230" on="1"/>
        <pt x="543" y="-230" on="0"/>
        <pt x="580" y="-193" on="0"/>
        <pt x="580" y="-167" on="1"/>
        <pt x="580" y="-155" on="1"/>
        <pt x="740" y="-155" on="1"/>
        <pt x="740" y="-230" on="1"/>
        <pt x="740" y="-296" on="0"/>
        <pt x="646" y="-390" on="0"/>
        <pt x="580" y="-390" on="1"/>
        <pt x="320" y="-390" on="1"/>
        <pt x="254" y="-390" on="0"/>
        <pt x="160" y="-296" on="0"/>
        <pt x="160" y="-230" on="1"/>
        <pt x="160" y="-80" on="1"/>
        <pt x="240" y="0" on="1"/>
        <pt x="182" y="2" on="0"/>
        <pt x="100" y="87" on="0"/>
        <pt x="100" y="145" on="1"/>
        <pt x="100" y="1400" on="1"/>
      </contour>
    </TTGlyph>
    <TTGlyph name="Uring" xMin="100" yMin="0" xMax="870" yMax="1800">
      <contour>
        <pt x="625" y="1661" on="1"/>
        <pt x="625" y="1626" on="1"/>
        <pt x="625" y="1568" on="0"/>
        <pt x="544" y="1490" on="0"/>
        <pt x="485" y="1490" on="1"/>
        <pt x="426" y="1490" on="0"/>
        <pt x="345" y="1568" on="0"/>
        <pt x="345" y="1626" on="1"/>
        <pt x="345" y="1661" on="1"/>
        <pt x="345" y="1719" on="0"/>
        <pt x="426" y="1800" on="0"/>
        <pt x="485" y="1800" on="1"/>
        <pt x="544" y="1800" on="0"/>
        <pt x="625" y="1719" on="0"/>
      </contour>
      <contour>
        <pt x="540" y="1659" on="1"/>
        <pt x="540" y="1690" on="0"/>
        <pt x="508" y="1730" on="0"/>
        <pt x="485" y="1730" on="1"/>
        <pt x="463" y="1730" on="0"/>
        <pt x="430" y="1690" on="0"/>
        <pt x="430" y="1659" on="1"/>
        <pt x="430" y="1631" on="1"/>
        <pt x="430" y="1600" on="0"/>
        <pt x="463" y="1560" on="0"/>
        <pt x="485" y="1560" on="1"/>
        <pt x="508" y="1560" on="0"/>
        <pt x="540" y="1600" on="0"/>
        <pt x="540" y="1631" on="1"/>
      </contour>
      <contour>
        <pt x="350" y="1400" on="1"/>
        <pt x="350" y="250" on="1"/>
        <pt x="620" y="250" on="1"/>
        <pt x="620" y="1400" on="1"/>
        <pt x="870" y="1400" on="1"/>
        <pt x="870" y="145" on="1"/>
        <pt x="870" y="85" on="0"/>
        <pt x="785" y="0" on="0"/>
        <pt x="725" y="0" on="1"/>
        <pt x="245" y="0" on="1"/>
        <pt x="185" y="0" on="0"/>
        <pt x="100" y="85" on="0"/>
        <pt x="100" y="145" on="1"/>
        <pt x="100" y="1400" on="1"/>
      </contour>
    </TTGlyph>
    <TTGlyph name="Utilde" xMin="100" yMin="0" xMax="870" yMax="1710">
      <contour>
        <pt x="647" y="1653" on="1"/>
        <pt x="736" y="1626" on="1"/>
        <pt x="726" y="1571" on="0"/>
        <pt x="636" y="1496" on="0"/>
        <pt x="579" y="1496" on="1"/>
        <pt x="530" y="1496" on="0"/>
        <pt x="454" y="1550" on="0"/>
        <pt x="437" y="1593" on="1"/>
        <pt x="418" y="1619" on="0"/>
        <pt x="391" y="1619" on="1"/>
        <pt x="365" y="1619" on="0"/>
        <pt x="323" y="1580" on="0"/>
        <pt x="323" y="1553" on="1"/>
        <pt x="234" y="1580" on="1"/>
        <pt x="243" y="1635" on="0"/>
        <pt x="333" y="1710" on="0"/>
        <pt x="391" y="1710" on="1"/>
        <pt x="440" y="1710" on="0"/>
        <pt x="516" y="1657" on="0"/>
        <pt x="532" y="1613" on="1"/>
        <pt x="541" y="1602" on="0"/>
        <pt x="563" y="1587" on="0"/>
        <pt x="579" y="1587" on="1"/>
        <pt x="605" y="1587" on="0"/>
        <pt x="647" y="1626" on="0"/>
      </contour>
      <contour>
        <pt x="350" y="1400" on="1"/>
        <pt x="350" y="250" on="1"/>
        <pt x="620" y="250" on="1"/>
        <pt x="620" y="1400" on="1"/>
        <pt x="870" y="1400" on="1"/>
        <pt x="870" y="145" on="1"/>
        <pt x="870" y="85" on="0"/>
        <pt x="785" y="0" on="0"/>
        <pt x="725" y="0" on="1"/>
        <pt x="245" y="0" on="1"/>
        <pt x="185" y="0" on="0"/>
        <pt x="100" y="85" on="0"/>
        <pt x="100" y="145" on="1"/>
        <pt x="100" y="1400" on="1"/>
      </contour>
    </TTGlyph>
    <TTGlyph name="V" xMin="20" yMin="0" xMax="970" yMax="1400">
      <contour>
        <pt x="495" y="460" on="1"/>
        <pt x="710" y="1400" on="1"/>
        <pt x="970" y="1400" on="1"/>
        <pt x="630" y="0" on="1"/>
        <pt x="360" y="0" on="1"/>
        <pt x="20" y="1400" on="1"/>
        <pt x="280" y="1400" on="1"/>
      </contour>
    </TTGlyph>
    <TTGlyph name="W" xMin="0" yMin="0" xMax="1442" yMax="1400">
      <contour>
        <pt x="996" y="470" on="1"/>
        <pt x="1182" y="1400" on="1"/>
        <pt x="1442" y="1400" on="1"/>
        <pt x="1105" y="0" on="1"/>
        <pt x="875" y="0" on="1"/>
        <pt x="721" y="811" on="1"/>
        <pt x="567" y="0" on="1"/>
        <pt x="337" y="0" on="1"/>
        <pt x="0" y="1400" on="1"/>
        <pt x="260" y="1400" on="1"/>
        <pt x="446" y="470" on="1"/>
        <pt x="607" y="1400" on="1"/>
        <pt x="835" y="1400" on="1"/>
      </contour>
    </TTGlyph>
    <TTGlyph name="Wcircumflex" xMin="0" yMin="0" xMax="1442" yMax="1800">
      <contour>
        <pt x="634" y="1800" on="1"/>
        <pt x="807" y="1800" on="1"/>
        <pt x="991" y="1500" on="1"/>
        <pt x="836" y="1500" on="1"/>
        <pt x="721" y="1682" on="1"/>
        <pt x="605" y="1500" on="1"/>
        <pt x="450" y="1500" on="1"/>
      </contour>
      <contour>
        <pt x="996" y="470" on="1"/>
        <pt x="1182" y="1400" on="1"/>
        <pt x="1442" y="1400" on="1"/>
        <pt x="1105" y="0" on="1"/>
        <pt x="875" y="0" on="1"/>
        <pt x="721" y="811" on="1"/>
        <pt x="567" y="0" on="1"/>
        <pt x="337" y="0" on="1"/>
        <pt x="0" y="1400" on="1"/>
        <pt x="260" y="1400" on="1"/>
        <pt x="446" y="470" on="1"/>
        <pt x="607" y="1400" on="1"/>
        <pt x="835" y="1400" on="1"/>
      </contour>
    </TTGlyph>
    <TTGlyph name="X" xMin="10" yMin="0" xMax="865" yMax="1400">
      <contour>
        <pt x="855" y="1400" on="1"/>
        <pt x="580" y="695" on="1"/>
        <pt x="865" y="0" on="1"/>
        <pt x="595" y="0" on="1"/>
        <pt x="440" y="413" on="1"/>
        <pt x="280" y="0" on="1"/>
        <pt x="10" y="0" on="1"/>
        <pt x="303" y="701" on="1"/>
        <pt x="20" y="1400" on="1"/>
        <pt x="260" y="1400" on="1"/>
        <pt x="445" y="958" on="1"/>
        <pt x="615" y="1400" on="1"/>
      </contour>
    </TTGlyph>
    <TTGlyph name="Y" xMin="60" yMin="0" xMax="860" yMax="1400">
      <contour>
        <pt x="860" y="1400" on="1"/>
        <pt x="585" y="506" on="1"/>
        <pt x="585" y="0" on="1"/>
        <pt x="335" y="0" on="1"/>
        <pt x="335" y="506" on="1"/>
        <pt x="60" y="1400" on="1"/>
        <pt x="310" y="1400" on="1"/>
        <pt x="460" y="810" on="1"/>
        <pt x="600" y="1400" on="1"/>
      </contour>
    </TTGlyph>
    <TTGlyph name="Yacute" xMin="60" yMin="0" xMax="860" yMax="1750">
      <contour>
        <pt x="730" y="1750" on="1"/>
        <pt x="530" y="1490" on="1"/>
        <pt x="370" y="1490" on="1"/>
        <pt x="510" y="1750" on="1"/>
      </contour>
      <contour>
        <pt x="860" y="1400" on="1"/>
        <pt x="585" y="506" on="1"/>
        <pt x="585" y="0" on="1"/>
        <pt x="335" y="0" on="1"/>
        <pt x="335" y="506" on="1"/>
        <pt x="60" y="1400" on="1"/>
        <pt x="310" y="1400" on="1"/>
        <pt x="460" y="810" on="1"/>
        <pt x="600" y="1400" on="1"/>
      </contour>
    </TTGlyph>
    <TTGlyph name="Ycircumflex" xMin="60" yMin="0" xMax="860" yMax="1800">
      <contour>
        <pt x="374" y="1800" on="1"/>
        <pt x="547" y="1800" on="1"/>
        <pt x="731" y="1500" on="1"/>
        <pt x="576" y="1500" on="1"/>
        <pt x="461" y="1682" on="1"/>
        <pt x="345" y="1500" on="1"/>
        <pt x="190" y="1500" on="1"/>
      </contour>
      <contour>
        <pt x="860" y="1400" on="1"/>
        <pt x="585" y="506" on="1"/>
        <pt x="585" y="0" on="1"/>
        <pt x="335" y="0" on="1"/>
        <pt x="335" y="506" on="1"/>
        <pt x="60" y="1400" on="1"/>
        <pt x="310" y="1400" on="1"/>
        <pt x="460" y="810" on="1"/>
        <pt x="600" y="1400" on="1"/>
      </contour>
    </TTGlyph>
    <TTGlyph name="Ydieresis" xMin="60" yMin="0" xMax="860" yMax="1700">
      <contour>
        <pt x="305" y="1700" on="1"/>
        <pt x="455" y="1700" on="1"/>
        <pt x="455" y="1550" on="1"/>
        <pt x="305" y="1550" on="1"/>
      </contour>
      <contour>
        <pt x="545" y="1700" on="1"/>
        <pt x="695" y="1700" on="1"/>
        <pt x="695" y="1550" on="1"/>
        <pt x="545" y="1550" on="1"/>
      </contour>
      <contour>
        <pt x="860" y="1400" on="1"/>
        <pt x="585" y="506" on="1"/>
        <pt x="585" y="0" on="1"/>
        <pt x="335" y="0" on="1"/>
        <pt x="335" y="506" on="1"/>
        <pt x="60" y="1400" on="1"/>
        <pt x="310" y="1400" on="1"/>
        <pt x="460" y="810" on="1"/>
        <pt x="600" y="1400" on="1"/>
      </contour>
    </TTGlyph>
    <TTGlyph name="Z" xMin="90" yMin="0" xMax="800" yMax="1400">
      <contour>
        <pt x="90" y="1400" on="1"/>
        <pt x="800" y="1400" on="1"/>
        <pt x="800" y="1240" on="1"/>
        <pt x="384" y="230" on="1"/>
        <pt x="800" y="230" on="1"/>
        <pt x="800" y="0" on="1"/>
        <pt x="90" y="0" on="1"/>
        <pt x="90" y="160" on="1"/>
        <pt x="529" y="1170" on="1"/>
        <pt x="90" y="1170" on="1"/>
      </contour>
    </TTGlyph>
    <TTGlyph name="Zacute" xMin="90" yMin="0" xMax="800" yMax="1750">
      <contour>
        <pt x="650" y="1750" on="1"/>
        <pt x="450" y="1490" on="1"/>
        <pt x="290" y="1490" on="1"/>
        <pt x="430" y="1750" on="1"/>
      </contour>
      <contour>
        <pt x="90" y="1400" on="1"/>
        <pt x="800" y="1400" on="1"/>
        <pt x="800" y="1240" on="1"/>
        <pt x="384" y="230" on="1"/>
        <pt x="800" y="230" on="1"/>
        <pt x="800" y="0" on="1"/>
        <pt x="90" y="0" on="1"/>
        <pt x="90" y="160" on="1"/>
        <pt x="529" y="1170" on="1"/>
        <pt x="90" y="1170" on="1"/>
      </contour>
    </TTGlyph>
    <TTGlyph name="Zcaron" xMin="90" yMin="0" xMax="800" yMax="1800">
      <contour>
        <pt x="369" y="1500" on="1"/>
        <pt x="185" y="1800" on="1"/>
        <pt x="340" y="1800" on="1"/>
        <pt x="456" y="1618" on="1"/>
        <pt x="571" y="1800" on="1"/>
        <pt x="726" y="1800" on="1"/>
        <pt x="542" y="1500" on="1"/>
      </contour>
      <contour>
        <pt x="90" y="1400" on="1"/>
        <pt x="800" y="1400" on="1"/>
        <pt x="800" y="1240" on="1"/>
        <pt x="384" y="230" on="1"/>
        <pt x="800" y="230" on="1"/>
        <pt x="800" y="0" on="1"/>
        <pt x="90" y="0" on="1"/>
        <pt x="90" y="160" on="1"/>
        <pt x="529" y="1170" on="1"/>
        <pt x="90" y="1170" on="1"/>
      </contour>
    </TTGlyph>
    <TTGlyph name="Zdotaccent" xMin="90" yMin="0" xMax="800" yMax="1700">
      <contour>
        <pt x="370" y="1700" on="1"/>
        <pt x="520" y="1700" on="1"/>
        <pt x="520" y="1550" on="1"/>
        <pt x="370" y="1550" on="1"/>
      </contour>
      <contour>
        <pt x="90" y="1400" on="1"/>
        <pt x="800" y="1400" on="1"/>
        <pt x="800" y="1240" on="1"/>
        <pt x="384" y="230" on="1"/>
        <pt x="800" y="230" on="1"/>
        <pt x="800" y="0" on="1"/>
        <pt x="90" y="0" on="1"/>
        <pt x="90" y="160" on="1"/>
        <pt x="529" y="1170" on="1"/>
        <pt x="90" y="1170" on="1"/>
      </contour>
    </TTGlyph>
    <TTGlyph name="a" xMin="0" yMin="0" xMax="940" yMax="1400">
      <contour>
        <pt x="230" y="0" on="1"/>
        <pt x="0" y="0" on="1"/>
        <pt x="350" y="1400" on="1"/>
        <pt x="590" y="1400" on="1"/>
        <pt x="940" y="0" on="1"/>
        <pt x="710" y="0" on="1"/>
        <pt x="644" y="260" on="1"/>
        <pt x="296" y="260" on="1"/>
      </contour>
      <contour>
        <pt x="349" y="470" on="1"/>
        <pt x="591" y="470" on="1"/>
        <pt x="470" y="945" on="1"/>
      </contour>
    </TTGlyph>
    <TTGlyph name="aacute" xMin="0" yMin="0" xMax="940" yMax="1750">
      <contour>
        <pt x="760" y="1750" on="1"/>
        <pt x="560" y="1490" on="1"/>
        <pt x="400" y="1490" on="1"/>
        <pt x="540" y="1750" on="1"/>
      </contour>
      <contour>
        <pt x="230" y="0" on="1"/>
        <pt x="0" y="0" on="1"/>
        <pt x="350" y="1400" on="1"/>
        <pt x="590" y="1400" on="1"/>
        <pt x="940" y="0" on="1"/>
        <pt x="710" y="0" on="1"/>
        <pt x="644" y="260" on="1"/>
        <pt x="296" y="260" on="1"/>
      </contour>
      <contour>
        <pt x="349" y="470" on="1"/>
        <pt x="591" y="470" on="1"/>
        <pt x="470" y="945" on="1"/>
      </contour>
    </TTGlyph>
    <TTGlyph name="abreve" xMin="0" yMin="0" xMax="940" yMax="1700">
      <contour>
        <pt x="470" y="1504" on="1"/>
        <pt x="398" y="1504" on="0"/>
        <pt x="285" y="1598" on="0"/>
        <pt x="274" y="1667" on="1"/>
        <pt x="385" y="1700" on="1"/>
        <pt x="385" y="1667" on="0"/>
        <pt x="437" y="1619" on="0"/>
        <pt x="470" y="1619" on="1"/>
        <pt x="503" y="1619" on="0"/>
        <pt x="555" y="1667" on="0"/>
        <pt x="555" y="1700" on="1"/>
        <pt x="666" y="1667" on="1"/>
        <pt x="655" y="1598" on="0"/>
        <pt x="542" y="1504" on="0"/>
      </contour>
      <contour>
        <pt x="230" y="0" on="1"/>
        <pt x="0" y="0" on="1"/>
        <pt x="350" y="1400" on="1"/>
        <pt x="590" y="1400" on="1"/>
        <pt x="940" y="0" on="1"/>
        <pt x="710" y="0" on="1"/>
        <pt x="644" y="260" on="1"/>
        <pt x="296" y="260" on="1"/>
      </contour>
      <contour>
        <pt x="349" y="470" on="1"/>
        <pt x="591" y="470" on="1"/>
        <pt x="470" y="945" on="1"/>
      </contour>
    </TTGlyph>
    <TTGlyph name="acircumflex" xMin="0" yMin="0" xMax="940" yMax="1800">
      <contour>
        <pt x="384" y="1800" on="1"/>
        <pt x="557" y="1800" on="1"/>
        <pt x="741" y="1500" on="1"/>
        <pt x="586" y="1500" on="1"/>
        <pt x="471" y="1682" on="1"/>
        <pt x="355" y="1500" on="1"/>
        <pt x="200" y="1500" on="1"/>
      </contour>
      <contour>
        <pt x="230" y="0" on="1"/>
        <pt x="0" y="0" on="1"/>
        <pt x="350" y="1400" on="1"/>
        <pt x="590" y="1400" on="1"/>
        <pt x="940" y="0" on="1"/>
        <pt x="710" y="0" on="1"/>
        <pt x="644" y="260" on="1"/>
        <pt x="296" y="260" on="1"/>
      </contour>
      <contour>
        <pt x="349" y="470" on="1"/>
        <pt x="591" y="470" on="1"/>
        <pt x="470" y="945" on="1"/>
      </contour>
    </TTGlyph>
    <TTGlyph name="acute" xMin="100" yMin="1400" xMax="500" yMax="1800">
      <contour>
        <pt x="100" y="1400" on="1"/>
        <pt x="240" y="1800" on="1"/>
        <pt x="500" y="1800" on="1"/>
        <pt x="300" y="1400" on="1"/>
      </contour>
    </TTGlyph>
    <TTGlyph name="acutecomb" xMin="100" yMin="1490" xMax="460" yMax="1750">
      <contour>
        <pt x="460" y="1750" on="1"/>
        <pt x="260" y="1490" on="1"/>
        <pt x="100" y="1490" on="1"/>
        <pt x="240" y="1750" on="1"/>
      </contour>
    </TTGlyph>
    <TTGlyph name="adieresis" xMin="0" yMin="0" xMax="940" yMax="1700">
      <contour>
        <pt x="275" y="1700" on="1"/>
        <pt x="425" y="1700" on="1"/>
        <pt x="425" y="1550" on="1"/>
        <pt x="275" y="1550" on="1"/>
      </contour>
      <contour>
        <pt x="515" y="1700" on="1"/>
        <pt x="665" y="1700" on="1"/>
        <pt x="665" y="1550" on="1"/>
        <pt x="515" y="1550" on="1"/>
      </contour>
      <contour>
        <pt x="230" y="0" on="1"/>
        <pt x="0" y="0" on="1"/>
        <pt x="350" y="1400" on="1"/>
        <pt x="590" y="1400" on="1"/>
        <pt x="940" y="0" on="1"/>
        <pt x="710" y="0" on="1"/>
        <pt x="644" y="260" on="1"/>
        <pt x="296" y="260" on="1"/>
      </contour>
      <contour>
        <pt x="349" y="470" on="1"/>
        <pt x="591" y="470" on="1"/>
        <pt x="470" y="945" on="1"/>
      </contour>
    </TTGlyph>
    <TTGlyph name="ae" xMin="100" yMin="0" xMax="1361" yMax="1400">
      <contour>
        <pt x="899" y="240" on="1"/>
        <pt x="1361" y="240" on="1"/>
        <pt x="1361" y="0" on="1"/>
        <pt x="649" y="0" on="1"/>
        <pt x="649" y="318" on="1"/>
        <pt x="412" y="318" on="1"/>
        <pt x="330" y="0" on="1"/>
        <pt x="100" y="0" on="1"/>
        <pt x="450" y="1400" on="1"/>
        <pt x="1360" y="1400" on="1"/>
        <pt x="1360" y="1170" on="1"/>
        <pt x="899" y="1170" on="1"/>
        <pt x="899" y="800" on="1"/>
        <pt x="1279" y="800" on="1"/>
        <pt x="1279" y="580" on="1"/>
        <pt x="899" y="580" on="1"/>
      </contour>
      <contour>
        <pt x="649" y="548" on="1"/>
        <pt x="649" y="1170" on="1"/>
        <pt x="631" y="1170" on="1"/>
        <pt x="471" y="548" on="1"/>
      </contour>
    </TTGlyph>
    <TTGlyph name="agrave" xMin="0" yMin="0" xMax="940" yMax="1750">
      <contour>
        <pt x="400" y="1490" on="1"/>
        <pt x="200" y="1750" on="1"/>
        <pt x="420" y="1750" on="1"/>
        <pt x="560" y="1490" on="1"/>
      </contour>
      <contour>
        <pt x="230" y="0" on="1"/>
        <pt x="0" y="0" on="1"/>
        <pt x="350" y="1400" on="1"/>
        <pt x="590" y="1400" on="1"/>
        <pt x="940" y="0" on="1"/>
        <pt x="710" y="0" on="1"/>
        <pt x="644" y="260" on="1"/>
        <pt x="296" y="260" on="1"/>
      </contour>
      <contour>
        <pt x="349" y="470" on="1"/>
        <pt x="591" y="470" on="1"/>
        <pt x="470" y="945" on="1"/>
      </contour>
    </TTGlyph>
    <TTGlyph name="amacron" xMin="0" yMin="0" xMax="940" yMax="1640">
      <contour>
        <pt x="250" y="1640" on="1"/>
        <pt x="690" y="1640" on="1"/>
        <pt x="690" y="1530" on="1"/>
        <pt x="250" y="1530" on="1"/>
      </contour>
      <contour>
        <pt x="230" y="0" on="1"/>
        <pt x="0" y="0" on="1"/>
        <pt x="350" y="1400" on="1"/>
        <pt x="590" y="1400" on="1"/>
        <pt x="940" y="0" on="1"/>
        <pt x="710" y="0" on="1"/>
        <pt x="644" y="260" on="1"/>
        <pt x="296" y="260" on="1"/>
      </contour>
      <contour>
        <pt x="349" y="470" on="1"/>
        <pt x="591" y="470" on="1"/>
        <pt x="470" y="945" on="1"/>
      </contour>
    </TTGlyph>
    <TTGlyph name="ampersand" xMin="100" yMin="0" xMax="1070" yMax="1400">
      <contour>
        <pt x="100" y="150" on="1"/>
        <pt x="100" y="430" on="1"/>
        <pt x="100" y="482" on="0"/>
        <pt x="133" y="551" on="0"/>
        <pt x="166" y="586" on="0"/>
        <pt x="166" y="586" on="1"/>
        <pt x="337" y="752" on="1"/>
        <pt x="212" y="923" on="1"/>
        <pt x="212" y="923" on="0"/>
        <pt x="170" y="990" on="0"/>
        <pt x="170" y="1040" on="1"/>
        <pt x="170" y="1250" on="1"/>
        <pt x="170" y="1312" on="0"/>
        <pt x="258" y="1400" on="0"/>
        <pt x="320" y="1400" on="1"/>
        <pt x="670" y="1400" on="1"/>
        <pt x="732" y="1400" on="0"/>
        <pt x="820" y="1312" on="0"/>
        <pt x="820" y="1250" on="1"/>
        <pt x="820" y="1020" on="1"/>
        <pt x="820" y="963" on="0"/>
        <pt x="776" y="902" on="0"/>
        <pt x="776" y="902" on="1"/>
        <pt x="600" y="730" on="1"/>
        <pt x="782" y="481" on="1"/>
        <pt x="906" y="600" on="1"/>
        <pt x="1044" y="456" on="1"/>
        <pt x="900" y="317" on="1"/>
        <pt x="1050" y="112" on="1"/>
        <pt x="1050" y="112" on="0"/>
        <pt x="1070" y="70" on="0"/>
        <pt x="1070" y="35" on="1"/>
        <pt x="1070" y="0" on="1"/>
        <pt x="883" y="0" on="1"/>
        <pt x="755" y="177" on="1"/>
        <pt x="608" y="35" on="1"/>
        <pt x="608" y="35" on="0"/>
        <pt x="553" y="0" on="0"/>
        <pt x="511" y="0" on="1"/>
        <pt x="250" y="0" on="1"/>
        <pt x="188" y="0" on="0"/>
        <pt x="100" y="88" on="0"/>
      </contour>
      <contour>
        <pt x="599" y="1210" on="1"/>
        <pt x="401" y="1210" on="1"/>
        <pt x="380" y="1210" on="0"/>
        <pt x="380" y="1189" on="1"/>
        <pt x="380" y="1033" on="1"/>
        <pt x="481" y="894" on="1"/>
        <pt x="620" y="1028" on="1"/>
        <pt x="620" y="1189" on="1"/>
        <pt x="620" y="1210" on="0"/>
      </contour>
      <contour>
        <pt x="300" y="234" on="1"/>
        <pt x="300" y="213" on="0"/>
        <pt x="321" y="213" on="1"/>
        <pt x="505" y="213" on="1"/>
        <pt x="636" y="340" on="1"/>
        <pt x="455" y="591" on="1"/>
        <pt x="300" y="440" on="1"/>
      </contour>
    </TTGlyph>
    <TTGlyph name="aogonek" xMin="-80" yMin="-390" xMax="940" yMax="1400">
      <contour>
        <pt x="230" y="0" on="1"/>
        <pt x="80" y="-153" on="1"/>
        <pt x="80" y="-167" on="1"/>
        <pt x="80" y="-193" on="0"/>
        <pt x="116" y="-230" on="0"/>
        <pt x="142" y="-230" on="1"/>
        <pt x="277" y="-230" on="1"/>
        <pt x="303" y="-230" on="0"/>
        <pt x="340" y="-193" on="0"/>
        <pt x="340" y="-167" on="1"/>
        <pt x="340" y="-155" on="1"/>
        <pt x="500" y="-155" on="1"/>
        <pt x="500" y="-230" on="1"/>
        <pt x="500" y="-296" on="0"/>
        <pt x="406" y="-390" on="0"/>
        <pt x="340" y="-390" on="1"/>
        <pt x="80" y="-390" on="1"/>
        <pt x="14" y="-390" on="0"/>
        <pt x="-80" y="-296" on="0"/>
        <pt x="-80" y="-230" on="1"/>
        <pt x="-80" y="-80" on="1"/>
        <pt x="0" y="0" on="1"/>
        <pt x="350" y="1400" on="1"/>
        <pt x="590" y="1400" on="1"/>
        <pt x="940" y="0" on="1"/>
        <pt x="710" y="0" on="1"/>
        <pt x="644" y="260" on="1"/>
        <pt x="296" y="260" on="1"/>
      </contour>
      <contour>
        <pt x="349" y="470" on="1"/>
        <pt x="591" y="470" on="1"/>
        <pt x="470" y="945" on="1"/>
      </contour>
    </TTGlyph>
    <TTGlyph name="aring" xMin="0" yMin="0" xMax="940" yMax="1800">
      <contour>
        <pt x="610" y="1661" on="1"/>
        <pt x="610" y="1626" on="1"/>
        <pt x="610" y="1568" on="0"/>
        <pt x="529" y="1490" on="0"/>
        <pt x="470" y="1490" on="1"/>
        <pt x="411" y="1490" on="0"/>
        <pt x="330" y="1568" on="0"/>
        <pt x="330" y="1626" on="1"/>
        <pt x="330" y="1661" on="1"/>
        <pt x="330" y="1719" on="0"/>
        <pt x="411" y="1800" on="0"/>
        <pt x="470" y="1800" on="1"/>
        <pt x="529" y="1800" on="0"/>
        <pt x="610" y="1719" on="0"/>
      </contour>
      <contour>
        <pt x="525" y="1659" on="1"/>
        <pt x="525" y="1690" on="0"/>
        <pt x="493" y="1730" on="0"/>
        <pt x="470" y="1730" on="1"/>
        <pt x="448" y="1730" on="0"/>
        <pt x="415" y="1690" on="0"/>
        <pt x="415" y="1659" on="1"/>
        <pt x="415" y="1631" on="1"/>
        <pt x="415" y="1600" on="0"/>
        <pt x="448" y="1560" on="0"/>
        <pt x="470" y="1560" on="1"/>
        <pt x="493" y="1560" on="0"/>
        <pt x="525" y="1600" on="0"/>
        <pt x="525" y="1631" on="1"/>
      </contour>
      <contour>
        <pt x="230" y="0" on="1"/>
        <pt x="0" y="0" on="1"/>
        <pt x="350" y="1400" on="1"/>
        <pt x="590" y="1400" on="1"/>
        <pt x="940" y="0" on="1"/>
        <pt x="710" y="0" on="1"/>
        <pt x="644" y="260" on="1"/>
        <pt x="296" y="260" on="1"/>
      </contour>
      <contour>
        <pt x="349" y="470" on="1"/>
        <pt x="591" y="470" on="1"/>
        <pt x="470" y="945" on="1"/>
      </contour>
    </TTGlyph>
    <TTGlyph name="asciicircum" xMin="100" yMin="950" xMax="835" yMax="1450">
      <contour>
        <pt x="350" y="1450" on="1"/>
        <pt x="585" y="1450" on="1"/>
        <pt x="835" y="950" on="1"/>
        <pt x="625" y="950" on="1"/>
        <pt x="468" y="1253" on="1"/>
        <pt x="310" y="950" on="1"/>
        <pt x="100" y="950" on="1"/>
      </contour>
    </TTGlyph>
    <TTGlyph name="asciitilde" xMin="100" yMin="551" xMax="970" yMax="850">
      <contour>
        <pt x="970" y="756" on="1"/>
        <pt x="940" y="666" on="0"/>
        <pt x="785" y="551" on="0"/>
        <pt x="685" y="551" on="1"/>
        <pt x="682" y="551" on="1"/>
        <pt x="624" y="551" on="0"/>
        <pt x="514" y="599" on="0"/>
        <pt x="473" y="638" on="1"/>
        <pt x="433" y="674" on="0"/>
        <pt x="383" y="674" on="1"/>
        <pt x="345" y="674" on="0"/>
        <pt x="280" y="631" on="0"/>
        <pt x="266" y="590" on="1"/>
        <pt x="100" y="645" on="1"/>
        <pt x="130" y="734" on="0"/>
        <pt x="285" y="850" on="0"/>
        <pt x="385" y="850" on="1"/>
        <pt x="509" y="850" on="0"/>
        <pt x="597" y="762" on="1"/>
        <pt x="633" y="726" on="0"/>
        <pt x="685" y="726" on="1"/>
        <pt x="726" y="726" on="0"/>
        <pt x="791" y="773" on="0"/>
        <pt x="804" y="811" on="1"/>
      </contour>
    </TTGlyph>
    <TTGlyph name="asterisk" xMin="100" yMin="668" xMax="923" yMax="1450">
      <contour>
        <pt x="355" y="999" on="1"/>
        <pt x="338" y="1001" on="1"/>
        <pt x="100" y="1079" on="1"/>
        <pt x="162" y="1269" on="1"/>
        <pt x="400" y="1191" on="1"/>
        <pt x="415" y="1183" on="1"/>
        <pt x="411" y="1200" on="1"/>
        <pt x="411" y="1450" on="1"/>
        <pt x="611" y="1450" on="1"/>
        <pt x="611" y="1200" on="1"/>
        <pt x="608" y="1183" on="1"/>
        <pt x="623" y="1191" on="1"/>
        <pt x="861" y="1269" on="1"/>
        <pt x="923" y="1079" on="1"/>
        <pt x="685" y="1001" on="1"/>
        <pt x="667" y="999" on="1"/>
        <pt x="680" y="987" on="1"/>
        <pt x="827" y="785" on="1"/>
        <pt x="666" y="668" on="1"/>
        <pt x="519" y="870" on="1"/>
        <pt x="511" y="886" on="1"/>
        <pt x="504" y="870" on="1"/>
        <pt x="357" y="668" on="1"/>
        <pt x="195" y="785" on="1"/>
        <pt x="342" y="987" on="1"/>
      </contour>
    </TTGlyph>
    <TTGlyph name="asteriskmath" xMin="100" yMin="308" xMax="923" yMax="1090">
      <contour>
        <pt x="355" y="639" on="1"/>
        <pt x="338" y="641" on="1"/>
        <pt x="100" y="719" on="1"/>
        <pt x="162" y="909" on="1"/>
        <pt x="400" y="831" on="1"/>
        <pt x="415" y="823" on="1"/>
        <pt x="411" y="840" on="1"/>
        <pt x="411" y="1090" on="1"/>
        <pt x="611" y="1090" on="1"/>
        <pt x="611" y="840" on="1"/>
        <pt x="608" y="823" on="1"/>
        <pt x="623" y="831" on="1"/>
        <pt x="861" y="909" on="1"/>
        <pt x="923" y="719" on="1"/>
        <pt x="685" y="641" on="1"/>
        <pt x="667" y="639" on="1"/>
        <pt x="680" y="627" on="1"/>
        <pt x="827" y="425" on="1"/>
        <pt x="666" y="308" on="1"/>
        <pt x="519" y="510" on="1"/>
        <pt x="511" y="526" on="1"/>
        <pt x="504" y="510" on="1"/>
        <pt x="357" y="308" on="1"/>
        <pt x="195" y="425" on="1"/>
        <pt x="342" y="627" on="1"/>
      </contour>
    </TTGlyph>
    <TTGlyph name="at" xMin="100" yMin="60" xMax="1320" yMax="1340">
      <contour>
        <pt x="500" y="60" on="1"/>
        <pt x="388" y="60" on="0"/>
        <pt x="206" y="166" on="0"/>
        <pt x="100" y="348" on="0"/>
        <pt x="100" y="460" on="1"/>
        <pt x="100" y="940" on="1"/>
        <pt x="100" y="1053" on="0"/>
        <pt x="206" y="1234" on="0"/>
        <pt x="388" y="1340" on="0"/>
        <pt x="500" y="1340" on="1"/>
        <pt x="920" y="1340" on="1"/>
        <pt x="1031" y="1340" on="0"/>
        <pt x="1210" y="1237" on="0"/>
        <pt x="1318" y="1060" on="0"/>
        <pt x="1320" y="950" on="1"/>
        <pt x="1320" y="540" on="1"/>
        <pt x="1320" y="474" on="0"/>
        <pt x="1226" y="380" on="0"/>
        <pt x="1160" y="380" on="1"/>
        <pt x="1000" y="380" on="1"/>
        <pt x="957" y="380" on="0"/>
        <pt x="884" y="425" on="0"/>
        <pt x="860" y="463" on="1"/>
        <pt x="814" y="380" on="0"/>
        <pt x="720" y="380" on="1"/>
        <pt x="580" y="380" on="1"/>
        <pt x="514" y="380" on="0"/>
        <pt x="420" y="474" on="0"/>
        <pt x="420" y="540" on="1"/>
        <pt x="420" y="860" on="1"/>
        <pt x="420" y="926" on="0"/>
        <pt x="514" y="1020" on="0"/>
        <pt x="580" y="1020" on="1"/>
        <pt x="710" y="1020" on="1"/>
        <pt x="792" y="1020" on="0"/>
        <pt x="840" y="953" on="1"/>
        <pt x="840" y="1020" on="1"/>
        <pt x="1000" y="1020" on="1"/>
        <pt x="1000" y="603" on="1"/>
        <pt x="1000" y="577" on="0"/>
        <pt x="1037" y="540" on="0"/>
        <pt x="1063" y="540" on="1"/>
        <pt x="1100" y="540" on="1"/>
        <pt x="1148" y="540" on="0"/>
        <pt x="1160" y="587" on="1"/>
        <pt x="1160" y="940" on="1"/>
        <pt x="1160" y="1041" on="0"/>
        <pt x="1021" y="1180" on="0"/>
        <pt x="920" y="1180" on="1"/>
        <pt x="500" y="1180" on="1"/>
        <pt x="399" y="1180" on="0"/>
        <pt x="260" y="1041" on="0"/>
        <pt x="260" y="940" on="1"/>
        <pt x="260" y="460" on="1"/>
        <pt x="260" y="359" on="0"/>
        <pt x="399" y="220" on="0"/>
        <pt x="500" y="220" on="1"/>
        <pt x="1170" y="220" on="1"/>
        <pt x="1170" y="60" on="1"/>
      </contour>
      <contour>
        <pt x="778" y="540" on="1"/>
        <pt x="804" y="540" on="0"/>
        <pt x="840" y="577" on="0"/>
        <pt x="840" y="603" on="1"/>
        <pt x="840" y="797" on="1"/>
        <pt x="840" y="823" on="0"/>
        <pt x="804" y="860" on="0"/>
        <pt x="778" y="860" on="1"/>
        <pt x="643" y="860" on="1"/>
        <pt x="617" y="860" on="0"/>
        <pt x="580" y="823" on="0"/>
        <pt x="580" y="797" on="1"/>
        <pt x="580" y="603" on="1"/>
        <pt x="580" y="577" on="0"/>
        <pt x="617" y="540" on="0"/>
        <pt x="643" y="540" on="1"/>
      </contour>
    </TTGlyph>
    <TTGlyph name="atilde" xMin="0" yMin="0" xMax="940" yMax="1710">
      <contour>
        <pt x="632" y="1653" on="1"/>
        <pt x="721" y="1626" on="1"/>
        <pt x="711" y="1571" on="0"/>
        <pt x="621" y="1496" on="0"/>
        <pt x="564" y="1496" on="1"/>
        <pt x="515" y="1496" on="0"/>
        <pt x="439" y="1550" on="0"/>
        <pt x="422" y="1593" on="1"/>
        <pt x="403" y="1619" on="0"/>
        <pt x="376" y="1619" on="1"/>
        <pt x="350" y="1619" on="0"/>
        <pt x="308" y="1580" on="0"/>
        <pt x="308" y="1553" on="1"/>
        <pt x="219" y="1580" on="1"/>
        <pt x="228" y="1635" on="0"/>
        <pt x="318" y="1710" on="0"/>
        <pt x="376" y="1710" on="1"/>
        <pt x="425" y="1710" on="0"/>
        <pt x="501" y="1657" on="0"/>
        <pt x="517" y="1613" on="1"/>
        <pt x="526" y="1602" on="0"/>
        <pt x="548" y="1587" on="0"/>
        <pt x="564" y="1587" on="1"/>
        <pt x="590" y="1587" on="0"/>
        <pt x="632" y="1626" on="0"/>
      </contour>
      <contour>
        <pt x="230" y="0" on="1"/>
        <pt x="0" y="0" on="1"/>
        <pt x="350" y="1400" on="1"/>
        <pt x="590" y="1400" on="1"/>
        <pt x="940" y="0" on="1"/>
        <pt x="710" y="0" on="1"/>
        <pt x="644" y="260" on="1"/>
        <pt x="296" y="260" on="1"/>
      </contour>
      <contour>
        <pt x="349" y="470" on="1"/>
        <pt x="591" y="470" on="1"/>
        <pt x="470" y="945" on="1"/>
      </contour>
    </TTGlyph>
    <TTGlyph name="b" xMin="100" yMin="0" xMax="780" yMax="1400">
      <contour>
        <pt x="100" y="0" on="1"/>
        <pt x="100" y="1400" on="1"/>
        <pt x="635" y="1400" on="1"/>
        <pt x="695" y="1400" on="0"/>
        <pt x="780" y="1315" on="0"/>
        <pt x="780" y="1255" on="1"/>
        <pt x="780" y="835" on="1"/>
        <pt x="780" y="790" on="0"/>
        <pt x="729" y="717" on="0"/>
        <pt x="688" y="700" on="1"/>
        <pt x="729" y="684" on="0"/>
        <pt x="780" y="610" on="0"/>
        <pt x="780" y="565" on="1"/>
        <pt x="780" y="145" on="1"/>
        <pt x="780" y="85" on="0"/>
        <pt x="695" y="0" on="0"/>
        <pt x="635" y="0" on="1"/>
      </contour>
      <contour>
        <pt x="350" y="820" on="1"/>
        <pt x="550" y="820" on="1"/>
        <pt x="550" y="1160" on="1"/>
        <pt x="350" y="1160" on="1"/>
      </contour>
      <contour>
        <pt x="350" y="240" on="1"/>
        <pt x="550" y="240" on="1"/>
        <pt x="550" y="580" on="1"/>
        <pt x="350" y="580" on="1"/>
      </contour>
    </TTGlyph>
    <TTGlyph name="backslash" xMin="100" yMin="0" xMax="700" yMax="1400">
      <contour>
        <pt x="700" y="0" on="1"/>
        <pt x="460" y="0" on="1"/>
        <pt x="100" y="1400" on="1"/>
        <pt x="347" y="1400" on="1"/>
      </contour>
    </TTGlyph>
    <TTGlyph name="bar" xMin="100" yMin="-180" xMax="330" yMax="1580">
      <contour>
        <pt x="100" y="1580" on="1"/>
        <pt x="330" y="1580" on="1"/>
        <pt x="330" y="-180" on="1"/>
        <pt x="100" y="-180" on="1"/>
      </contour>
    </TTGlyph>
    <TTGlyph name="braceleft" xMin="100" yMin="-180" xMax="720" yMax="1580">
      <contour>
        <pt x="100" y="775" on="1"/>
        <pt x="128" y="775" on="1"/>
        <pt x="154" y="775" on="0"/>
        <pt x="190" y="812" on="0"/>
        <pt x="190" y="838" on="1"/>
        <pt x="190" y="1130" on="1"/>
        <pt x="190" y="1254" on="0"/>
        <pt x="312" y="1458" on="0"/>
        <pt x="517" y="1580" on="0"/>
        <pt x="640" y="1580" on="1"/>
        <pt x="720" y="1580" on="1"/>
        <pt x="720" y="1400" on="1"/>
        <pt x="640" y="1400" on="1"/>
        <pt x="600" y="1400" on="0"/>
        <pt x="496" y="1359" on="0"/>
        <pt x="420" y="1267" on="0"/>
        <pt x="420" y="1190" on="1"/>
        <pt x="420" y="850" on="1"/>
        <pt x="420" y="800" on="0"/>
        <pt x="363" y="717" on="0"/>
        <pt x="316" y="700" on="1"/>
        <pt x="363" y="682" on="0"/>
        <pt x="420" y="600" on="0"/>
        <pt x="420" y="550" on="1"/>
        <pt x="420" y="210" on="1"/>
        <pt x="420" y="133" on="0"/>
        <pt x="496" y="41" on="0"/>
        <pt x="600" y="0" on="0"/>
        <pt x="640" y="0" on="1"/>
        <pt x="720" y="0" on="1"/>
        <pt x="720" y="-180" on="1"/>
        <pt x="640" y="-180" on="1"/>
        <pt x="517" y="-180" on="0"/>
        <pt x="312" y="-58" on="0"/>
        <pt x="190" y="147" on="0"/>
        <pt x="190" y="270" on="1"/>
        <pt x="190" y="562" on="1"/>
        <pt x="190" y="588" on="0"/>
        <pt x="154" y="625" on="0"/>
        <pt x="128" y="625" on="1"/>
        <pt x="100" y="625" on="1"/>
      </contour>
    </TTGlyph>
    <TTGlyph name="braceright" xMin="10" yMin="-180" xMax="630" yMax="1580">
      <contour>
        <pt x="90" y="1580" on="1"/>
        <pt x="214" y="1580" on="0"/>
        <pt x="418" y="1458" on="0"/>
        <pt x="540" y="1254" on="0"/>
        <pt x="540" y="1130" on="1"/>
        <pt x="540" y="838" on="1"/>
        <pt x="540" y="812" on="0"/>
        <pt x="576" y="775" on="0"/>
        <pt x="602" y="775" on="1"/>
        <pt x="630" y="775" on="1"/>
        <pt x="630" y="625" on="1"/>
        <pt x="602" y="625" on="1"/>
        <pt x="576" y="625" on="0"/>
        <pt x="540" y="588" on="0"/>
        <pt x="540" y="562" on="1"/>
        <pt x="540" y="270" on="1"/>
        <pt x="540" y="147" on="0"/>
        <pt x="418" y="-58" on="0"/>
        <pt x="214" y="-180" on="0"/>
        <pt x="90" y="-180" on="1"/>
        <pt x="10" y="-180" on="1"/>
        <pt x="10" y="0" on="1"/>
        <pt x="90" y="0" on="1"/>
        <pt x="131" y="0" on="0"/>
        <pt x="234" y="41" on="0"/>
        <pt x="310" y="133" on="0"/>
        <pt x="310" y="210" on="1"/>
        <pt x="310" y="550" on="1"/>
        <pt x="310" y="600" on="0"/>
        <pt x="367" y="682" on="0"/>
        <pt x="414" y="700" on="1"/>
        <pt x="367" y="717" on="0"/>
        <pt x="310" y="800" on="0"/>
        <pt x="310" y="850" on="1"/>
        <pt x="310" y="1190" on="1"/>
        <pt x="310" y="1267" on="0"/>
        <pt x="234" y="1359" on="0"/>
        <pt x="131" y="1400" on="0"/>
        <pt x="90" y="1400" on="1"/>
        <pt x="10" y="1400" on="1"/>
        <pt x="10" y="1580" on="1"/>
      </contour>
    </TTGlyph>
    <TTGlyph name="bracketleft" xMin="100" yMin="-200" xMax="640" yMax="1600">
      <contour>
        <pt x="640" y="1400" on="1"/>
        <pt x="330" y="1400" on="1"/>
        <pt x="330" y="0" on="1"/>
        <pt x="640" y="0" on="1"/>
        <pt x="640" y="-200" on="1"/>
        <pt x="100" y="-200" on="1"/>
        <pt x="100" y="1600" on="1"/>
        <pt x="640" y="1600" on="1"/>
      </contour>
    </TTGlyph>
    <TTGlyph name="bracketright" xMin="10" yMin="-200" xMax="550" yMax="1600">
      <contour>
        <pt x="10" y="1400" on="1"/>
        <pt x="10" y="1600" on="1"/>
        <pt x="550" y="1600" on="1"/>
        <pt x="550" y="-200" on="1"/>
        <pt x="10" y="-200" on="1"/>
        <pt x="10" y="0" on="1"/>
        <pt x="320" y="0" on="1"/>
        <pt x="320" y="1400" on="1"/>
      </contour>
    </TTGlyph>
    <TTGlyph name="brokenbar" xMin="100" yMin="-180" xMax="330" yMax="1580">
      <contour>
        <pt x="100" y="1580" on="1"/>
        <pt x="330" y="1580" on="1"/>
        <pt x="330" y="800" on="1"/>
        <pt x="100" y="800" on="1"/>
      </contour>
      <contour>
        <pt x="100" y="600" on="1"/>
        <pt x="330" y="600" on="1"/>
        <pt x="330" y="-180" on="1"/>
        <pt x="100" y="-180" on="1"/>
      </contour>
    </TTGlyph>
    <TTGlyph name="bullet" xMin="100" yMin="550" xMax="380" yMax="830">
      <contour>
        <pt x="100" y="830" on="1"/>
        <pt x="380" y="830" on="1"/>
        <pt x="380" y="550" on="1"/>
        <pt x="100" y="550" on="1"/>
      </contour>
    </TTGlyph>
    <TTGlyph name="c" xMin="100" yMin="0" xMax="810" yMax="1400">
      <contour>
        <pt x="100" y="145" on="1"/>
        <pt x="100" y="1255" on="1"/>
        <pt x="100" y="1315" on="0"/>
        <pt x="185" y="1400" on="0"/>
        <pt x="245" y="1400" on="1"/>
        <pt x="665" y="1400" on="1"/>
        <pt x="725" y="1400" on="0"/>
        <pt x="810" y="1315" on="0"/>
        <pt x="810" y="1255" on="1"/>
        <pt x="810" y="955" on="1"/>
        <pt x="560" y="955" on="1"/>
        <pt x="560" y="1143" on="1"/>
        <pt x="360" y="1143" on="1"/>
        <pt x="360" y="260" on="1"/>
        <pt x="560" y="260" on="1"/>
        <pt x="560" y="445" on="1"/>
        <pt x="810" y="445" on="1"/>
        <pt x="810" y="145" on="1"/>
        <pt x="810" y="86" on="0"/>
        <pt x="726" y="0" on="0"/>
        <pt x="667" y="0" on="1"/>
        <pt x="245" y="0" on="1"/>
        <pt x="185" y="0" on="0"/>
        <pt x="100" y="85" on="0"/>
      </contour>
    </TTGlyph>
    <TTGlyph name="cacute" xMin="100" yMin="0" xMax="810" yMax="1750">
      <contour>
        <pt x="700" y="1750" on="1"/>
        <pt x="500" y="1490" on="1"/>
        <pt x="340" y="1490" on="1"/>
        <pt x="480" y="1750" on="1"/>
      </contour>
      <contour>
        <pt x="100" y="145" on="1"/>
        <pt x="100" y="1255" on="1"/>
        <pt x="100" y="1315" on="0"/>
        <pt x="185" y="1400" on="0"/>
        <pt x="245" y="1400" on="1"/>
        <pt x="665" y="1400" on="1"/>
        <pt x="725" y="1400" on="0"/>
        <pt x="810" y="1315" on="0"/>
        <pt x="810" y="1255" on="1"/>
        <pt x="810" y="955" on="1"/>
        <pt x="560" y="955" on="1"/>
        <pt x="560" y="1143" on="1"/>
        <pt x="360" y="1143" on="1"/>
        <pt x="360" y="260" on="1"/>
        <pt x="560" y="260" on="1"/>
        <pt x="560" y="445" on="1"/>
        <pt x="810" y="445" on="1"/>
        <pt x="810" y="145" on="1"/>
        <pt x="810" y="86" on="0"/>
        <pt x="726" y="0" on="0"/>
        <pt x="667" y="0" on="1"/>
        <pt x="245" y="0" on="1"/>
        <pt x="185" y="0" on="0"/>
        <pt x="100" y="85" on="0"/>
      </contour>
    </TTGlyph>
    <TTGlyph name="caron" xMin="100" yMin="1500" xMax="641" yMax="1800">
      <contour>
        <pt x="284" y="1500" on="1"/>
        <pt x="100" y="1800" on="1"/>
        <pt x="255" y="1800" on="1"/>
        <pt x="371" y="1618" on="1"/>
        <pt x="486" y="1800" on="1"/>
        <pt x="641" y="1800" on="1"/>
        <pt x="457" y="1500" on="1"/>
      </contour>
    </TTGlyph>
    <TTGlyph name="ccaron" xMin="100" yMin="0" xMax="810" yMax="1800">
      <contour>
        <pt x="369" y="1500" on="1"/>
        <pt x="185" y="1800" on="1"/>
        <pt x="340" y="1800" on="1"/>
        <pt x="456" y="1618" on="1"/>
        <pt x="571" y="1800" on="1"/>
        <pt x="726" y="1800" on="1"/>
        <pt x="542" y="1500" on="1"/>
      </contour>
      <contour>
        <pt x="100" y="145" on="1"/>
        <pt x="100" y="1255" on="1"/>
        <pt x="100" y="1315" on="0"/>
        <pt x="185" y="1400" on="0"/>
        <pt x="245" y="1400" on="1"/>
        <pt x="665" y="1400" on="1"/>
        <pt x="725" y="1400" on="0"/>
        <pt x="810" y="1315" on="0"/>
        <pt x="810" y="1255" on="1"/>
        <pt x="810" y="955" on="1"/>
        <pt x="560" y="955" on="1"/>
        <pt x="560" y="1143" on="1"/>
        <pt x="360" y="1143" on="1"/>
        <pt x="360" y="260" on="1"/>
        <pt x="560" y="260" on="1"/>
        <pt x="560" y="445" on="1"/>
        <pt x="810" y="445" on="1"/>
        <pt x="810" y="145" on="1"/>
        <pt x="810" y="86" on="0"/>
        <pt x="726" y="0" on="0"/>
        <pt x="667" y="0" on="1"/>
        <pt x="245" y="0" on="1"/>
        <pt x="185" y="0" on="0"/>
        <pt x="100" y="85" on="0"/>
      </contour>
    </TTGlyph>
    <TTGlyph name="ccedilla" xMin="100" yMin="-390" xMax="810" yMax="1400">
      <contour>
        <pt x="100" y="145" on="1"/>
        <pt x="100" y="1255" on="1"/>
        <pt x="100" y="1315" on="0"/>
        <pt x="185" y="1400" on="0"/>
        <pt x="245" y="1400" on="1"/>
        <pt x="665" y="1400" on="1"/>
        <pt x="725" y="1400" on="0"/>
        <pt x="810" y="1315" on="0"/>
        <pt x="810" y="1255" on="1"/>
        <pt x="810" y="955" on="1"/>
        <pt x="560" y="955" on="1"/>
        <pt x="560" y="1143" on="1"/>
        <pt x="360" y="1143" on="1"/>
        <pt x="360" y="260" on="1"/>
        <pt x="560" y="260" on="1"/>
        <pt x="560" y="445" on="1"/>
        <pt x="810" y="445" on="1"/>
        <pt x="810" y="145" on="1"/>
        <pt x="810" y="86" on="0"/>
        <pt x="726" y="0" on="0"/>
        <pt x="667" y="0" on="1"/>
        <pt x="665" y="0" on="1"/>
        <pt x="745" y="-80" on="1"/>
        <pt x="745" y="-230" on="1"/>
        <pt x="745" y="-296" on="0"/>
        <pt x="651" y="-390" on="0"/>
        <pt x="585" y="-390" on="1"/>
        <pt x="325" y="-390" on="1"/>
        <pt x="259" y="-390" on="0"/>
        <pt x="165" y="-296" on="0"/>
        <pt x="165" y="-230" on="1"/>
        <pt x="165" y="-155" on="1"/>
        <pt x="325" y="-155" on="1"/>
        <pt x="325" y="-167" on="1"/>
        <pt x="325" y="-193" on="0"/>
        <pt x="362" y="-230" on="0"/>
        <pt x="388" y="-230" on="1"/>
        <pt x="523" y="-230" on="1"/>
        <pt x="549" y="-230" on="0"/>
        <pt x="585" y="-193" on="0"/>
        <pt x="585" y="-167" on="1"/>
        <pt x="584" y="-149" on="1"/>
        <pt x="439" y="0" on="1"/>
        <pt x="245" y="0" on="1"/>
        <pt x="185" y="0" on="0"/>
        <pt x="100" y="85" on="0"/>
      </contour>
    </TTGlyph>
    <TTGlyph name="ccircumflex" xMin="100" yMin="0" xMax="810" yMax="1800">
      <contour>
        <pt x="369" y="1800" on="1"/>
        <pt x="542" y="1800" on="1"/>
        <pt x="726" y="1500" on="1"/>
        <pt x="571" y="1500" on="1"/>
        <pt x="456" y="1682" on="1"/>
        <pt x="340" y="1500" on="1"/>
        <pt x="185" y="1500" on="1"/>
      </contour>
      <contour>
        <pt x="100" y="145" on="1"/>
        <pt x="100" y="1255" on="1"/>
        <pt x="100" y="1315" on="0"/>
        <pt x="185" y="1400" on="0"/>
        <pt x="245" y="1400" on="1"/>
        <pt x="665" y="1400" on="1"/>
        <pt x="725" y="1400" on="0"/>
        <pt x="810" y="1315" on="0"/>
        <pt x="810" y="1255" on="1"/>
        <pt x="810" y="955" on="1"/>
        <pt x="560" y="955" on="1"/>
        <pt x="560" y="1143" on="1"/>
        <pt x="360" y="1143" on="1"/>
        <pt x="360" y="260" on="1"/>
        <pt x="560" y="260" on="1"/>
        <pt x="560" y="445" on="1"/>
        <pt x="810" y="445" on="1"/>
        <pt x="810" y="145" on="1"/>
        <pt x="810" y="86" on="0"/>
        <pt x="726" y="0" on="0"/>
        <pt x="667" y="0" on="1"/>
        <pt x="245" y="0" on="1"/>
        <pt x="185" y="0" on="0"/>
        <pt x="100" y="85" on="0"/>
      </contour>
    </TTGlyph>
    <TTGlyph name="cdotaccent" xMin="100" yMin="0" xMax="810" yMax="1700">
      <contour>
        <pt x="380" y="1700" on="1"/>
        <pt x="530" y="1700" on="1"/>
        <pt x="530" y="1550" on="1"/>
        <pt x="380" y="1550" on="1"/>
      </contour>
      <contour>
        <pt x="100" y="145" on="1"/>
        <pt x="100" y="1255" on="1"/>
        <pt x="100" y="1315" on="0"/>
        <pt x="185" y="1400" on="0"/>
        <pt x="245" y="1400" on="1"/>
        <pt x="665" y="1400" on="1"/>
        <pt x="725" y="1400" on="0"/>
        <pt x="810" y="1315" on="0"/>
        <pt x="810" y="1255" on="1"/>
        <pt x="810" y="955" on="1"/>
        <pt x="560" y="955" on="1"/>
        <pt x="560" y="1143" on="1"/>
        <pt x="360" y="1143" on="1"/>
        <pt x="360" y="260" on="1"/>
        <pt x="560" y="260" on="1"/>
        <pt x="560" y="445" on="1"/>
        <pt x="810" y="445" on="1"/>
        <pt x="810" y="145" on="1"/>
        <pt x="810" y="86" on="0"/>
        <pt x="726" y="0" on="0"/>
        <pt x="667" y="0" on="1"/>
        <pt x="245" y="0" on="1"/>
        <pt x="185" y="0" on="0"/>
        <pt x="100" y="85" on="0"/>
      </contour>
    </TTGlyph>
    <TTGlyph name="cedilla" xMin="100" yMin="-390" xMax="680" yMax="0">
      <contour>
        <pt x="600" y="0" on="1"/>
        <pt x="680" y="-80" on="1"/>
        <pt x="680" y="-230" on="1"/>
        <pt x="680" y="-296" on="0"/>
        <pt x="586" y="-390" on="0"/>
        <pt x="520" y="-390" on="1"/>
        <pt x="260" y="-390" on="1"/>
        <pt x="194" y="-390" on="0"/>
        <pt x="100" y="-296" on="0"/>
        <pt x="100" y="-230" on="1"/>
        <pt x="100" y="-155" on="1"/>
        <pt x="260" y="-155" on="1"/>
        <pt x="260" y="-167" on="1"/>
        <pt x="260" y="-193" on="0"/>
        <pt x="297" y="-230" on="0"/>
        <pt x="323" y="-230" on="1"/>
        <pt x="458" y="-230" on="1"/>
        <pt x="484" y="-230" on="0"/>
        <pt x="520" y="-193" on="0"/>
        <pt x="520" y="-167" on="1"/>
        <pt x="520" y="-150" on="1"/>
        <pt x="374" y="0" on="1"/>
      </contour>
    </TTGlyph>
    <TTGlyph name="cent" xMin="100" yMin="200" xMax="590" yMax="1200">
      <contour>
        <pt x="100" y="540" on="1"/>
        <pt x="100" y="860" on="1"/>
        <pt x="100" y="926" on="0"/>
        <pt x="194" y="1020" on="0"/>
        <pt x="260" y="1020" on="1"/>
        <pt x="260" y="1200" on="1"/>
        <pt x="430" y="1200" on="1"/>
        <pt x="430" y="1020" on="1"/>
        <pt x="496" y="1020" on="0"/>
        <pt x="590" y="926" on="0"/>
        <pt x="590" y="860" on="1"/>
        <pt x="590" y="800" on="1"/>
        <pt x="430" y="800" on="1"/>
        <pt x="430" y="860" on="1"/>
        <pt x="260" y="860" on="1"/>
        <pt x="260" y="540" on="1"/>
        <pt x="430" y="540" on="1"/>
        <pt x="430" y="600" on="1"/>
        <pt x="590" y="600" on="1"/>
        <pt x="590" y="540" on="1"/>
        <pt x="590" y="474" on="0"/>
        <pt x="496" y="380" on="0"/>
        <pt x="430" y="380" on="1"/>
        <pt x="430" y="200" on="1"/>
        <pt x="260" y="200" on="1"/>
        <pt x="260" y="380" on="1"/>
        <pt x="194" y="380" on="0"/>
        <pt x="100" y="474" on="0"/>
      </contour>
    </TTGlyph>
    <TTGlyph name="circumflex" xMin="100" yMin="1500" xMax="641" yMax="1800">
      <contour>
        <pt x="284" y="1800" on="1"/>
        <pt x="457" y="1800" on="1"/>
        <pt x="641" y="1500" on="1"/>
        <pt x="486" y="1500" on="1"/>
        <pt x="371" y="1682" on="1"/>
        <pt x="255" y="1500" on="1"/>
        <pt x="100" y="1500" on="1"/>
      </contour>
    </TTGlyph>
    <TTGlyph name="colon" xMin="100" yMin="270" xMax="330" yMax="1130">
      <contour>
        <pt x="100" y="1130" on="1"/>
        <pt x="330" y="1130" on="1"/>
        <pt x="330" y="900" on="1"/>
        <pt x="100" y="900" on="1"/>
      </contour>
      <contour>
        <pt x="100" y="500" on="1"/>
        <pt x="330" y="500" on="1"/>
        <pt x="330" y="270" on="1"/>
        <pt x="100" y="270" on="1"/>
      </contour>
    </TTGlyph>
    <TTGlyph name="comma" xMin="100" yMin="-200" xMax="330" yMax="230">
      <contour>
        <pt x="120" y="-200" on="1"/>
        <pt x="200" y="0" on="1"/>
        <pt x="100" y="0" on="1"/>
        <pt x="100" y="230" on="1"/>
        <pt x="330" y="230" on="1"/>
        <pt x="330" y="0" on="1"/>
        <pt x="220" y="-200" on="1"/>
      </contour>
    </TTGlyph>
    <TTGlyph name="copyright" xMin="100" yMin="60" xMax="1230" yMax="1340">
      <contour>
        <pt x="100" y="460" on="1"/>
        <pt x="100" y="940" on="1"/>
        <pt x="100" y="1053" on="0"/>
        <pt x="206" y="1234" on="0"/>
        <pt x="388" y="1340" on="0"/>
        <pt x="500" y="1340" on="1"/>
        <pt x="830" y="1340" on="1"/>
        <pt x="941" y="1340" on="0"/>
        <pt x="1120" y="1237" on="0"/>
        <pt x="1228" y="1060" on="0"/>
        <pt x="1230" y="950" on="1"/>
        <pt x="1230" y="460" on="1"/>
        <pt x="1230" y="348" on="0"/>
        <pt x="1124" y="166" on="0"/>
        <pt x="943" y="60" on="0"/>
        <pt x="830" y="60" on="1"/>
        <pt x="500" y="60" on="1"/>
        <pt x="388" y="60" on="0"/>
        <pt x="206" y="166" on="0"/>
        <pt x="100" y="348" on="0"/>
      </contour>
      <contour>
        <pt x="260" y="460" on="1"/>
        <pt x="260" y="359" on="0"/>
        <pt x="399" y="220" on="0"/>
        <pt x="500" y="220" on="1"/>
        <pt x="830" y="220" on="1"/>
        <pt x="931" y="220" on="0"/>
        <pt x="1070" y="359" on="0"/>
        <pt x="1070" y="460" on="1"/>
        <pt x="1070" y="940" on="1"/>
        <pt x="1070" y="1041" on="0"/>
        <pt x="931" y="1180" on="0"/>
        <pt x="830" y="1180" on="1"/>
        <pt x="500" y="1180" on="1"/>
        <pt x="399" y="1180" on="0"/>
        <pt x="260" y="1041" on="0"/>
        <pt x="260" y="940" on="1"/>
      </contour>
      <contour>
        <pt x="420" y="540" on="1"/>
        <pt x="420" y="860" on="1"/>
        <pt x="420" y="926" on="0"/>
        <pt x="514" y="1020" on="0"/>
        <pt x="580" y="1020" on="1"/>
        <pt x="750" y="1020" on="1"/>
        <pt x="816" y="1020" on="0"/>
        <pt x="910" y="926" on="0"/>
        <pt x="910" y="860" on="1"/>
        <pt x="910" y="800" on="1"/>
        <pt x="750" y="800" on="1"/>
        <pt x="750" y="860" on="1"/>
        <pt x="580" y="860" on="1"/>
        <pt x="580" y="540" on="1"/>
        <pt x="750" y="540" on="1"/>
        <pt x="750" y="600" on="1"/>
        <pt x="910" y="600" on="1"/>
        <pt x="910" y="540" on="1"/>
        <pt x="910" y="474" on="0"/>
        <pt x="816" y="380" on="0"/>
        <pt x="750" y="380" on="1"/>
        <pt x="580" y="380" on="1"/>
        <pt x="514" y="380" on="0"/>
        <pt x="420" y="474" on="0"/>
      </contour>
    </TTGlyph>
    <TTGlyph name="currency" xMin="100" yMin="380" xMax="880" yMax="1020">
      <contour>
        <pt x="580" y="380" on="1"/>
        <pt x="400" y="380" on="1"/>
        <pt x="345" y="380" on="0"/>
        <pt x="259" y="447" on="0"/>
        <pt x="245" y="500" on="1"/>
        <pt x="100" y="500" on="1"/>
        <pt x="100" y="640" on="1"/>
        <pt x="240" y="640" on="1"/>
        <pt x="240" y="760" on="1"/>
        <pt x="100" y="760" on="1"/>
        <pt x="100" y="900" on="1"/>
        <pt x="245" y="900" on="1"/>
        <pt x="259" y="953" on="0"/>
        <pt x="345" y="1020" on="0"/>
        <pt x="400" y="1020" on="1"/>
        <pt x="580" y="1020" on="1"/>
        <pt x="635" y="1020" on="0"/>
        <pt x="722" y="953" on="0"/>
        <pt x="735" y="900" on="1"/>
        <pt x="880" y="900" on="1"/>
        <pt x="880" y="760" on="1"/>
        <pt x="740" y="760" on="1"/>
        <pt x="740" y="640" on="1"/>
        <pt x="880" y="640" on="1"/>
        <pt x="880" y="500" on="1"/>
        <pt x="735" y="500" on="1"/>
        <pt x="722" y="447" on="0"/>
        <pt x="635" y="380" on="0"/>
      </contour>
      <contour>
        <pt x="400" y="540" on="1"/>
        <pt x="580" y="540" on="1"/>
        <pt x="580" y="860" on="1"/>
        <pt x="400" y="860" on="1"/>
      </contour>
    </TTGlyph>
    <TTGlyph name="d" xMin="100" yMin="0" xMax="790" yMax="1400">
      <contour>
        <pt x="100" y="0" on="1"/>
        <pt x="100" y="1400" on="1"/>
        <pt x="630" y="1400" on="1"/>
        <pt x="696" y="1400" on="0"/>
        <pt x="790" y="1306" on="0"/>
        <pt x="790" y="1240" on="1"/>
        <pt x="790" y="160" on="1"/>
        <pt x="790" y="94" on="0"/>
        <pt x="696" y="0" on="0"/>
        <pt x="630" y="0" on="1"/>
      </contour>
      <contour>
        <pt x="350" y="230" on="1"/>
        <pt x="529" y="230" on="1"/>
        <pt x="550" y="230" on="0"/>
        <pt x="550" y="251" on="1"/>
        <pt x="550" y="1149" on="1"/>
        <pt x="550" y="1170" on="0"/>
        <pt x="529" y="1170" on="1"/>
        <pt x="350" y="1170" on="1"/>
      </contour>
    </TTGlyph>
    <TTGlyph name="dagger" xMin="100" yMin="0" xMax="900" yMax="1400">
      <contour>
        <pt x="900" y="900" on="1"/>
        <pt x="670" y="900" on="1"/>
        <pt x="583" y="920" on="1"/>
        <pt x="600" y="720" on="1"/>
        <pt x="600" y="0" on="1"/>
        <pt x="400" y="0" on="1"/>
        <pt x="400" y="720" on="1"/>
        <pt x="417" y="920" on="1"/>
        <pt x="330" y="900" on="1"/>
        <pt x="100" y="900" on="1"/>
        <pt x="100" y="1100" on="1"/>
        <pt x="330" y="1100" on="1"/>
        <pt x="421" y="1079" on="1"/>
        <pt x="400" y="1170" on="1"/>
        <pt x="400" y="1400" on="1"/>
        <pt x="600" y="1400" on="1"/>
        <pt x="600" y="1170" on="1"/>
        <pt x="579" y="1079" on="1"/>
        <pt x="670" y="1100" on="1"/>
        <pt x="900" y="1100" on="1"/>
      </contour>
    </TTGlyph>
    <TTGlyph name="daggerdbl" xMin="100" yMin="0" xMax="900" yMax="1400">
      <contour>
        <pt x="670" y="900" on="1"/>
        <pt x="583" y="920" on="1"/>
        <pt x="600" y="720" on="1"/>
        <pt x="600" y="680" on="1"/>
        <pt x="583" y="480" on="1"/>
        <pt x="670" y="500" on="1"/>
        <pt x="900" y="500" on="1"/>
        <pt x="900" y="300" on="1"/>
        <pt x="670" y="300" on="1"/>
        <pt x="579" y="321" on="1"/>
        <pt x="600" y="230" on="1"/>
        <pt x="600" y="0" on="1"/>
        <pt x="400" y="0" on="1"/>
        <pt x="400" y="230" on="1"/>
        <pt x="421" y="321" on="1"/>
        <pt x="330" y="300" on="1"/>
        <pt x="100" y="300" on="1"/>
        <pt x="100" y="500" on="1"/>
        <pt x="330" y="500" on="1"/>
        <pt x="417" y="480" on="1"/>
        <pt x="400" y="680" on="1"/>
        <pt x="400" y="720" on="1"/>
        <pt x="417" y="920" on="1"/>
        <pt x="330" y="900" on="1"/>
        <pt x="100" y="900" on="1"/>
        <pt x="100" y="1100" on="1"/>
        <pt x="330" y="1100" on="1"/>
        <pt x="421" y="1079" on="1"/>
        <pt x="400" y="1170" on="1"/>
        <pt x="400" y="1400" on="1"/>
        <pt x="600" y="1400" on="1"/>
        <pt x="600" y="1170" on="1"/>
        <pt x="579" y="1079" on="1"/>
        <pt x="670" y="1100" on="1"/>
        <pt x="900" y="1100" on="1"/>
        <pt x="900" y="900" on="1"/>
      </contour>
    </TTGlyph>
    <TTGlyph name="dcaron" xMin="100" yMin="0" xMax="790" yMax="1800">
      <contour>
        <pt x="359" y="1500" on="1"/>
        <pt x="175" y="1800" on="1"/>
        <pt x="330" y="1800" on="1"/>
        <pt x="446" y="1618" on="1"/>
        <pt x="561" y="1800" on="1"/>
        <pt x="716" y="1800" on="1"/>
        <pt x="532" y="1500" on="1"/>
      </contour>
      <contour>
        <pt x="100" y="0" on="1"/>
        <pt x="100" y="1400" on="1"/>
        <pt x="630" y="1400" on="1"/>
        <pt x="696" y="1400" on="0"/>
        <pt x="790" y="1306" on="0"/>
        <pt x="790" y="1240" on="1"/>
        <pt x="790" y="160" on="1"/>
        <pt x="790" y="94" on="0"/>
        <pt x="696" y="0" on="0"/>
        <pt x="630" y="0" on="1"/>
      </contour>
      <contour>
        <pt x="350" y="230" on="1"/>
        <pt x="529" y="230" on="1"/>
        <pt x="550" y="230" on="0"/>
        <pt x="550" y="251" on="1"/>
        <pt x="550" y="1149" on="1"/>
        <pt x="550" y="1170" on="0"/>
        <pt x="529" y="1170" on="1"/>
        <pt x="350" y="1170" on="1"/>
      </contour>
    </TTGlyph>
    <TTGlyph name="dcroat" xMin="60" yMin="0" xMax="790" yMax="1400">
      <contour>
        <pt x="100" y="0" on="1"/>
        <pt x="100" y="645" on="1"/>
        <pt x="60" y="645" on="1"/>
        <pt x="60" y="755" on="1"/>
        <pt x="100" y="755" on="1"/>
        <pt x="100" y="1400" on="1"/>
        <pt x="630" y="1400" on="1"/>
        <pt x="696" y="1400" on="0"/>
        <pt x="790" y="1306" on="0"/>
        <pt x="790" y="1240" on="1"/>
        <pt x="790" y="160" on="1"/>
        <pt x="790" y="94" on="0"/>
        <pt x="696" y="0" on="0"/>
        <pt x="630" y="0" on="1"/>
      </contour>
      <contour>
        <pt x="350" y="645" on="1"/>
        <pt x="350" y="230" on="1"/>
        <pt x="529" y="230" on="1"/>
        <pt x="550" y="230" on="0"/>
        <pt x="550" y="251" on="1"/>
        <pt x="550" y="1149" on="1"/>
        <pt x="550" y="1170" on="0"/>
        <pt x="529" y="1170" on="1"/>
        <pt x="350" y="1170" on="1"/>
        <pt x="350" y="755" on="1"/>
        <pt x="500" y="755" on="1"/>
        <pt x="500" y="645" on="1"/>
      </contour>
    </TTGlyph>
    <TTGlyph name="degree" xMin="100" yMin="940" xMax="560" yMax="1450">
      <contour>
        <pt x="100" y="1169" on="1"/>
        <pt x="100" y="1220" on="1"/>
        <pt x="100" y="1284" on="0"/>
        <pt x="162" y="1388" on="0"/>
        <pt x="267" y="1450" on="0"/>
        <pt x="330" y="1450" on="1"/>
        <pt x="394" y="1450" on="0"/>
        <pt x="498" y="1388" on="0"/>
        <pt x="560" y="1284" on="0"/>
        <pt x="560" y="1220" on="1"/>
        <pt x="560" y="1169" on="1"/>
        <pt x="560" y="1074" on="0"/>
        <pt x="425" y="940" on="0"/>
        <pt x="330" y="940" on="1"/>
        <pt x="235" y="940" on="0"/>
        <pt x="100" y="1074" on="0"/>
      </contour>
      <contour>
        <pt x="259" y="1184" on="1"/>
        <pt x="259" y="1144" on="0"/>
        <pt x="301" y="1089" on="0"/>
        <pt x="330" y="1089" on="1"/>
        <pt x="359" y="1089" on="0"/>
        <pt x="401" y="1144" on="0"/>
        <pt x="401" y="1184" on="1"/>
        <pt x="401" y="1206" on="1"/>
        <pt x="401" y="1246" on="0"/>
        <pt x="359" y="1300" on="0"/>
        <pt x="330" y="1300" on="1"/>
        <pt x="301" y="1300" on="0"/>
        <pt x="259" y="1246" on="0"/>
        <pt x="259" y="1206" on="1"/>
      </contour>
    </TTGlyph>
    <TTGlyph name="dieresis" xMin="100" yMin="1490" xMax="700" yMax="1720">
      <contour>
        <pt x="100" y="1720" on="1"/>
        <pt x="330" y="1720" on="1"/>
        <pt x="330" y="1490" on="1"/>
        <pt x="100" y="1490" on="1"/>
      </contour>
      <contour>
        <pt x="470" y="1720" on="1"/>
        <pt x="700" y="1720" on="1"/>
        <pt x="700" y="1490" on="1"/>
        <pt x="470" y="1490" on="1"/>
      </contour>
    </TTGlyph>
    <TTGlyph name="divide" xMin="100" yMin="270" xMax="900" yMax="1130">
      <contour>
        <pt x="385" y="1130" on="1"/>
        <pt x="615" y="1130" on="1"/>
        <pt x="615" y="900" on="1"/>
        <pt x="385" y="900" on="1"/>
      </contour>
      <contour>
        <pt x="100" y="810" on="1"/>
        <pt x="900" y="810" on="1"/>
        <pt x="900" y="590" on="1"/>
        <pt x="100" y="590" on="1"/>
      </contour>
      <contour>
        <pt x="385" y="500" on="1"/>
        <pt x="615" y="500" on="1"/>
        <pt x="615" y="270" on="1"/>
        <pt x="385" y="270" on="1"/>
      </contour>
    </TTGlyph>
    <TTGlyph name="dollar" xMin="100" yMin="-100" xMax="800" yMax="1500">
      <contour>
        <pt x="100" y="235" on="1"/>
        <pt x="100" y="445" on="1"/>
        <pt x="330" y="445" on="1"/>
        <pt x="330" y="351" on="1"/>
        <pt x="330" y="330" on="0"/>
        <pt x="351" y="330" on="1"/>
        <pt x="549" y="330" on="1"/>
        <pt x="570" y="330" on="0"/>
        <pt x="570" y="351" on="1"/>
        <pt x="570" y="579" on="1"/>
        <pt x="570" y="600" on="0"/>
        <pt x="549" y="600" on="1"/>
        <pt x="235" y="600" on="1"/>
        <pt x="179" y="600" on="0"/>
        <pt x="100" y="679" on="0"/>
        <pt x="100" y="735" on="1"/>
        <pt x="100" y="1165" on="1"/>
        <pt x="100" y="1221" on="0"/>
        <pt x="179" y="1300" on="0"/>
        <pt x="235" y="1300" on="1"/>
        <pt x="350" y="1300" on="1"/>
        <pt x="350" y="1500" on="1"/>
        <pt x="550" y="1500" on="1"/>
        <pt x="550" y="1300" on="1"/>
        <pt x="665" y="1300" on="1"/>
        <pt x="721" y="1300" on="0"/>
        <pt x="800" y="1221" on="0"/>
        <pt x="800" y="1165" on="1"/>
        <pt x="800" y="955" on="1"/>
        <pt x="570" y="955" on="1"/>
        <pt x="570" y="1049" on="1"/>
        <pt x="570" y="1070" on="0"/>
        <pt x="549" y="1070" on="1"/>
        <pt x="351" y="1070" on="1"/>
        <pt x="330" y="1070" on="0"/>
        <pt x="330" y="1049" on="1"/>
        <pt x="330" y="851" on="1"/>
        <pt x="330" y="830" on="0"/>
        <pt x="351" y="830" on="1"/>
        <pt x="665" y="830" on="1"/>
        <pt x="721" y="830" on="0"/>
        <pt x="800" y="751" on="0"/>
        <pt x="800" y="695" on="1"/>
        <pt x="800" y="235" on="1"/>
        <pt x="800" y="179" on="0"/>
        <pt x="721" y="100" on="0"/>
        <pt x="665" y="100" on="1"/>
        <pt x="550" y="100" on="1"/>
        <pt x="550" y="-100" on="1"/>
        <pt x="350" y="-100" on="1"/>
        <pt x="350" y="100" on="1"/>
        <pt x="235" y="100" on="1"/>
        <pt x="179" y="100" on="0"/>
        <pt x="100" y="179" on="0"/>
      </contour>
    </TTGlyph>
    <TTGlyph name="dotlessi" xMin="100" yMin="0" xMax="350" yMax="1400">
      <contour>
        <pt x="100" y="1400" on="1"/>
        <pt x="350" y="1400" on="1"/>
        <pt x="350" y="0" on="1"/>
        <pt x="100" y="0" on="1"/>
      </contour>
    </TTGlyph>
    <TTGlyph name="e" xMin="100" yMin="0" xMax="812" yMax="1400">
      <contour>
        <pt x="100" y="0" on="1"/>
        <pt x="100" y="1400" on="1"/>
        <pt x="810" y="1400" on="1"/>
        <pt x="810" y="1170" on="1"/>
        <pt x="350" y="1170" on="1"/>
        <pt x="350" y="820" on="1"/>
        <pt x="730" y="820" on="1"/>
        <pt x="730" y="580" on="1"/>
        <pt x="350" y="580" on="1"/>
        <pt x="350" y="240" on="1"/>
        <pt x="812" y="240" on="1"/>
        <pt x="812" y="0" on="1"/>
      </contour>
    </TTGlyph>
    <TTGlyph name="eacute" xMin="100" yMin="0" xMax="812" yMax="1750">
      <contour>
        <pt x="660" y="1750" on="1"/>
        <pt x="460" y="1490" on="1"/>
        <pt x="300" y="1490" on="1"/>
        <pt x="440" y="1750" on="1"/>
      </contour>
      <contour>
        <pt x="100" y="0" on="1"/>
        <pt x="100" y="1400" on="1"/>
        <pt x="810" y="1400" on="1"/>
        <pt x="810" y="1170" on="1"/>
        <pt x="350" y="1170" on="1"/>
        <pt x="350" y="820" on="1"/>
        <pt x="730" y="820" on="1"/>
        <pt x="730" y="580" on="1"/>
        <pt x="350" y="580" on="1"/>
        <pt x="350" y="240" on="1"/>
        <pt x="812" y="240" on="1"/>
        <pt x="812" y="0" on="1"/>
      </contour>
    </TTGlyph>
    <TTGlyph name="ebreve" xMin="100" yMin="0" xMax="812" yMax="1700">
      <contour>
        <pt x="456" y="1504" on="1"/>
        <pt x="384" y="1504" on="0"/>
        <pt x="271" y="1598" on="0"/>
        <pt x="260" y="1667" on="1"/>
        <pt x="371" y="1700" on="1"/>
        <pt x="371" y="1667" on="0"/>
        <pt x="423" y="1619" on="0"/>
        <pt x="456" y="1619" on="1"/>
        <pt x="489" y="1619" on="0"/>
        <pt x="541" y="1667" on="0"/>
        <pt x="541" y="1700" on="1"/>
        <pt x="652" y="1667" on="1"/>
        <pt x="641" y="1598" on="0"/>
        <pt x="528" y="1504" on="0"/>
      </contour>
      <contour>
        <pt x="100" y="0" on="1"/>
        <pt x="100" y="1400" on="1"/>
        <pt x="810" y="1400" on="1"/>
        <pt x="810" y="1170" on="1"/>
        <pt x="350" y="1170" on="1"/>
        <pt x="350" y="820" on="1"/>
        <pt x="730" y="820" on="1"/>
        <pt x="730" y="580" on="1"/>
        <pt x="350" y="580" on="1"/>
        <pt x="350" y="240" on="1"/>
        <pt x="812" y="240" on="1"/>
        <pt x="812" y="0" on="1"/>
      </contour>
    </TTGlyph>
    <TTGlyph name="ecaron" xMin="100" yMin="0" xMax="812" yMax="1800">
      <contour>
        <pt x="369" y="1500" on="1"/>
        <pt x="185" y="1800" on="1"/>
        <pt x="340" y="1800" on="1"/>
        <pt x="456" y="1618" on="1"/>
        <pt x="571" y="1800" on="1"/>
        <pt x="726" y="1800" on="1"/>
        <pt x="542" y="1500" on="1"/>
      </contour>
      <contour>
        <pt x="100" y="0" on="1"/>
        <pt x="100" y="1400" on="1"/>
        <pt x="810" y="1400" on="1"/>
        <pt x="810" y="1170" on="1"/>
        <pt x="350" y="1170" on="1"/>
        <pt x="350" y="820" on="1"/>
        <pt x="730" y="820" on="1"/>
        <pt x="730" y="580" on="1"/>
        <pt x="350" y="580" on="1"/>
        <pt x="350" y="240" on="1"/>
        <pt x="812" y="240" on="1"/>
        <pt x="812" y="0" on="1"/>
      </contour>
    </TTGlyph>
    <TTGlyph name="ecircumflex" xMin="100" yMin="0" xMax="812" yMax="1800">
      <contour>
        <pt x="369" y="1800" on="1"/>
        <pt x="542" y="1800" on="1"/>
        <pt x="726" y="1500" on="1"/>
        <pt x="571" y="1500" on="1"/>
        <pt x="456" y="1682" on="1"/>
        <pt x="340" y="1500" on="1"/>
        <pt x="185" y="1500" on="1"/>
      </contour>
      <contour>
        <pt x="100" y="0" on="1"/>
        <pt x="100" y="1400" on="1"/>
        <pt x="810" y="1400" on="1"/>
        <pt x="810" y="1170" on="1"/>
        <pt x="350" y="1170" on="1"/>
        <pt x="350" y="820" on="1"/>
        <pt x="730" y="820" on="1"/>
        <pt x="730" y="580" on="1"/>
        <pt x="350" y="580" on="1"/>
        <pt x="350" y="240" on="1"/>
        <pt x="812" y="240" on="1"/>
        <pt x="812" y="0" on="1"/>
      </contour>
    </TTGlyph>
    <TTGlyph name="edieresis" xMin="100" yMin="0" xMax="812" yMax="1700">
      <contour>
        <pt x="261" y="1700" on="1"/>
        <pt x="411" y="1700" on="1"/>
        <pt x="411" y="1550" on="1"/>
        <pt x="261" y="1550" on="1"/>
      </contour>
      <contour>
        <pt x="501" y="1700" on="1"/>
        <pt x="651" y="1700" on="1"/>
        <pt x="651" y="1550" on="1"/>
        <pt x="501" y="1550" on="1"/>
      </contour>
      <contour>
        <pt x="100" y="0" on="1"/>
        <pt x="100" y="1400" on="1"/>
        <pt x="810" y="1400" on="1"/>
        <pt x="810" y="1170" on="1"/>
        <pt x="350" y="1170" on="1"/>
        <pt x="350" y="820" on="1"/>
        <pt x="730" y="820" on="1"/>
        <pt x="730" y="580" on="1"/>
        <pt x="350" y="580" on="1"/>
        <pt x="350" y="240" on="1"/>
        <pt x="812" y="240" on="1"/>
        <pt x="812" y="0" on="1"/>
      </contour>
    </TTGlyph>
    <TTGlyph name="edotaccent" xMin="100" yMin="0" xMax="812" yMax="1700">
      <contour>
        <pt x="380" y="1700" on="1"/>
        <pt x="530" y="1700" on="1"/>
        <pt x="530" y="1550" on="1"/>
        <pt x="380" y="1550" on="1"/>
      </contour>
      <contour>
        <pt x="100" y="0" on="1"/>
        <pt x="100" y="1400" on="1"/>
        <pt x="810" y="1400" on="1"/>
        <pt x="810" y="1170" on="1"/>
        <pt x="350" y="1170" on="1"/>
        <pt x="350" y="820" on="1"/>
        <pt x="730" y="820" on="1"/>
        <pt x="730" y="580" on="1"/>
        <pt x="350" y="580" on="1"/>
        <pt x="350" y="240" on="1"/>
        <pt x="812" y="240" on="1"/>
        <pt x="812" y="0" on="1"/>
      </contour>
    </TTGlyph>
    <TTGlyph name="egrave" xMin="100" yMin="0" xMax="812" yMax="1750">
      <contour>
        <pt x="430" y="1490" on="1"/>
        <pt x="230" y="1750" on="1"/>
        <pt x="450" y="1750" on="1"/>
        <pt x="590" y="1490" on="1"/>
      </contour>
      <contour>
        <pt x="100" y="0" on="1"/>
        <pt x="100" y="1400" on="1"/>
        <pt x="810" y="1400" on="1"/>
        <pt x="810" y="1170" on="1"/>
        <pt x="350" y="1170" on="1"/>
        <pt x="350" y="820" on="1"/>
        <pt x="730" y="820" on="1"/>
        <pt x="730" y="580" on="1"/>
        <pt x="350" y="580" on="1"/>
        <pt x="350" y="240" on="1"/>
        <pt x="812" y="240" on="1"/>
        <pt x="812" y="0" on="1"/>
      </contour>
    </TTGlyph>
    <TTGlyph name="eight" xMin="100" yMin="0" xMax="830" yMax="1400">
      <contour>
        <pt x="726" y="710" on="1"/>
        <pt x="773" y="693" on="0"/>
        <pt x="830" y="610" on="0"/>
        <pt x="830" y="560" on="1"/>
        <pt x="830" y="160" on="1"/>
        <pt x="830" y="94" on="0"/>
        <pt x="736" y="0" on="0"/>
        <pt x="670" y="0" on="1"/>
        <pt x="260" y="0" on="1"/>
        <pt x="194" y="0" on="0"/>
        <pt x="100" y="94" on="0"/>
        <pt x="100" y="160" on="1"/>
        <pt x="100" y="560" on="1"/>
        <pt x="100" y="610" on="0"/>
        <pt x="157" y="693" on="0"/>
        <pt x="204" y="710" on="1"/>
        <pt x="157" y="727" on="0"/>
        <pt x="100" y="810" on="0"/>
        <pt x="100" y="860" on="1"/>
        <pt x="100" y="1240" on="1"/>
        <pt x="100" y="1306" on="0"/>
        <pt x="194" y="1400" on="0"/>
        <pt x="260" y="1400" on="1"/>
        <pt x="670" y="1400" on="1"/>
        <pt x="736" y="1400" on="0"/>
        <pt x="830" y="1306" on="0"/>
        <pt x="830" y="1240" on="1"/>
        <pt x="830" y="860" on="1"/>
        <pt x="830" y="810" on="0"/>
        <pt x="773" y="727" on="0"/>
      </contour>
      <contour>
        <pt x="392" y="820" on="1"/>
        <pt x="538" y="820" on="1"/>
        <pt x="564" y="820" on="0"/>
        <pt x="600" y="857" on="0"/>
        <pt x="600" y="883" on="1"/>
        <pt x="600" y="1117" on="1"/>
        <pt x="600" y="1143" on="0"/>
        <pt x="564" y="1180" on="0"/>
        <pt x="538" y="1180" on="1"/>
        <pt x="393" y="1180" on="1"/>
        <pt x="367" y="1180" on="0"/>
        <pt x="330" y="1143" on="0"/>
        <pt x="330" y="1117" on="1"/>
        <pt x="330" y="883" on="1"/>
        <pt x="330" y="857" on="0"/>
        <pt x="366" y="820" on="0"/>
      </contour>
      <contour>
        <pt x="393" y="230" on="1"/>
        <pt x="538" y="230" on="1"/>
        <pt x="564" y="230" on="0"/>
        <pt x="600" y="267" on="0"/>
        <pt x="600" y="293" on="1"/>
        <pt x="600" y="537" on="1"/>
        <pt x="600" y="563" on="0"/>
        <pt x="564" y="600" on="0"/>
        <pt x="538" y="600" on="1"/>
        <pt x="392" y="600" on="1"/>
        <pt x="366" y="600" on="0"/>
        <pt x="330" y="563" on="0"/>
        <pt x="330" y="537" on="1"/>
        <pt x="330" y="293" on="1"/>
        <pt x="330" y="267" on="0"/>
        <pt x="367" y="230" on="0"/>
      </contour>
    </TTGlyph>
    <TTGlyph name="ellipsis" xMin="100" yMin="0" xMax="890" yMax="230">
      <contour>
        <pt x="100" y="230" on="1"/>
        <pt x="330" y="230" on="1"/>
        <pt x="330" y="0" on="1"/>
        <pt x="100" y="0" on="1"/>
      </contour>
      <contour>
        <pt x="380" y="230" on="1"/>
        <pt x="610" y="230" on="1"/>
        <pt x="610" y="0" on="1"/>
        <pt x="380" y="0" on="1"/>
      </contour>
      <contour>
        <pt x="660" y="230" on="1"/>
        <pt x="890" y="230" on="1"/>
        <pt x="890" y="0" on="1"/>
        <pt x="660" y="0" on="1"/>
      </contour>
    </TTGlyph>
    <TTGlyph name="emacron" xMin="100" yMin="0" xMax="812" yMax="1640">
      <contour>
        <pt x="236" y="1640" on="1"/>
        <pt x="676" y="1640" on="1"/>
        <pt x="676" y="1530" on="1"/>
        <pt x="236" y="1530" on="1"/>
      </contour>
      <contour>
        <pt x="100" y="0" on="1"/>
        <pt x="100" y="1400" on="1"/>
        <pt x="810" y="1400" on="1"/>
        <pt x="810" y="1170" on="1"/>
        <pt x="350" y="1170" on="1"/>
        <pt x="350" y="820" on="1"/>
        <pt x="730" y="820" on="1"/>
        <pt x="730" y="580" on="1"/>
        <pt x="350" y="580" on="1"/>
        <pt x="350" y="240" on="1"/>
        <pt x="812" y="240" on="1"/>
        <pt x="812" y="0" on="1"/>
      </contour>
    </TTGlyph>
    <TTGlyph name="emdash" xMin="100" yMin="590" xMax="1500" yMax="810">
      <contour>
        <pt x="100" y="810" on="1"/>
        <pt x="1500" y="810" on="1"/>
        <pt x="1500" y="590" on="1"/>
        <pt x="100" y="590" on="1"/>
      </contour>
    </TTGlyph>
    <TTGlyph name="endash" xMin="100" yMin="600" xMax="1100" yMax="800">
      <contour>
        <pt x="100" y="800" on="1"/>
        <pt x="1100" y="800" on="1"/>
        <pt x="1100" y="600" on="1"/>
        <pt x="100" y="600" on="1"/>
      </contour>
    </TTGlyph>
    <TTGlyph name="eng" xMin="100" yMin="-300" xMax="880" yMax="1400">
      <contour>
        <pt x="630" y="1400" on="1"/>
        <pt x="880" y="1400" on="1"/>
        <pt x="880" y="-50" on="1"/>
        <pt x="880" y="-119" on="0"/>
        <pt x="813" y="-232" on="0"/>
        <pt x="699" y="-300" on="0"/>
        <pt x="630" y="-300" on="1"/>
        <pt x="500" y="-300" on="1"/>
        <pt x="500" y="-70" on="1"/>
        <pt x="628" y="-70" on="1"/>
        <pt x="649" y="-70" on="0"/>
        <pt x="649" y="-50" on="1"/>
        <pt x="350" y="733" on="1"/>
        <pt x="350" y="0" on="1"/>
        <pt x="100" y="0" on="1"/>
        <pt x="100" y="1400" on="1"/>
        <pt x="350" y="1400" on="1"/>
        <pt x="630" y="630" on="1"/>
      </contour>
    </TTGlyph>
    <TTGlyph name="eogonek" xMin="100" yMin="-390" xMax="812" yMax="1400">
      <contour>
        <pt x="542" y="0" on="1"/>
        <pt x="392" y="-153" on="1"/>
        <pt x="392" y="-167" on="1"/>
        <pt x="392" y="-193" on="0"/>
        <pt x="428" y="-230" on="0"/>
        <pt x="454" y="-230" on="1"/>
        <pt x="589" y="-230" on="1"/>
        <pt x="615" y="-230" on="0"/>
        <pt x="652" y="-193" on="0"/>
        <pt x="652" y="-167" on="1"/>
        <pt x="652" y="-155" on="1"/>
        <pt x="812" y="-155" on="1"/>
        <pt x="812" y="-230" on="1"/>
        <pt x="812" y="-296" on="0"/>
        <pt x="718" y="-390" on="0"/>
        <pt x="652" y="-390" on="1"/>
        <pt x="392" y="-390" on="1"/>
        <pt x="326" y="-390" on="0"/>
        <pt x="232" y="-296" on="0"/>
        <pt x="232" y="-230" on="1"/>
        <pt x="232" y="-80" on="1"/>
        <pt x="312" y="0" on="1"/>
        <pt x="100" y="0" on="1"/>
        <pt x="100" y="1400" on="1"/>
        <pt x="810" y="1400" on="1"/>
        <pt x="810" y="1170" on="1"/>
        <pt x="350" y="1170" on="1"/>
        <pt x="350" y="820" on="1"/>
        <pt x="730" y="820" on="1"/>
        <pt x="730" y="580" on="1"/>
        <pt x="350" y="580" on="1"/>
        <pt x="350" y="240" on="1"/>
        <pt x="812" y="240" on="1"/>
        <pt x="812" y="0" on="1"/>
      </contour>
    </TTGlyph>
    <TTGlyph name="equal" xMin="100" yMin="390" xMax="900" yMax="1010">
      <contour>
        <pt x="100" y="1010" on="1"/>
        <pt x="900" y="1010" on="1"/>
        <pt x="900" y="790" on="1"/>
        <pt x="100" y="790" on="1"/>
      </contour>
      <contour>
        <pt x="100" y="610" on="1"/>
        <pt x="900" y="610" on="1"/>
        <pt x="900" y="390" on="1"/>
        <pt x="100" y="390" on="1"/>
      </contour>
    </TTGlyph>
    <TTGlyph name="eth" xMin="40" yMin="0" xMax="790" yMax="1400">
      <contour>
        <pt x="100" y="0" on="1"/>
        <pt x="100" y="450" on="1"/>
        <pt x="40" y="450" on="1"/>
        <pt x="40" y="560" on="1"/>
        <pt x="100" y="560" on="1"/>
        <pt x="100" y="1400" on="1"/>
        <pt x="630" y="1400" on="1"/>
        <pt x="696" y="1400" on="0"/>
        <pt x="790" y="1306" on="0"/>
        <pt x="790" y="1240" on="1"/>
        <pt x="790" y="160" on="1"/>
        <pt x="790" y="94" on="0"/>
        <pt x="696" y="0" on="0"/>
        <pt x="630" y="0" on="1"/>
      </contour>
      <contour>
        <pt x="350" y="450" on="1"/>
        <pt x="350" y="230" on="1"/>
        <pt x="529" y="230" on="1"/>
        <pt x="550" y="230" on="0"/>
        <pt x="550" y="251" on="1"/>
        <pt x="550" y="1149" on="1"/>
        <pt x="550" y="1170" on="0"/>
        <pt x="529" y="1170" on="1"/>
        <pt x="350" y="1170" on="1"/>
        <pt x="350" y="560" on="1"/>
        <pt x="480" y="560" on="1"/>
        <pt x="480" y="450" on="1"/>
      </contour>
    </TTGlyph>
    <TTGlyph name="exclam" xMin="100" yMin="0" xMax="350" yMax="1400">
      <contour>
        <pt x="330" y="390" on="1"/>
        <pt x="120" y="390" on="1"/>
        <pt x="100" y="880" on="1"/>
        <pt x="100" y="1400" on="1"/>
        <pt x="350" y="1400" on="1"/>
        <pt x="350" y="880" on="1"/>
      </contour>
      <contour>
        <pt x="110" y="230" on="1"/>
        <pt x="340" y="230" on="1"/>
        <pt x="340" y="0" on="1"/>
        <pt x="110" y="0" on="1"/>
      </contour>
    </TTGlyph>
    <TTGlyph name="exclamdbl" xMin="100" yMin="0" xMax="650" yMax="1400">
      <contour>
        <pt x="100" y="880" on="1"/>
        <pt x="100" y="1400" on="1"/>
        <pt x="350" y="1400" on="1"/>
        <pt x="350" y="880" on="1"/>
        <pt x="330" y="390" on="1"/>
        <pt x="120" y="390" on="1"/>
      </contour>
      <contour>
        <pt x="400" y="1400" on="1"/>
        <pt x="650" y="1400" on="1"/>
        <pt x="650" y="880" on="1"/>
        <pt x="630" y="390" on="1"/>
        <pt x="420" y="390" on="1"/>
        <pt x="400" y="880" on="1"/>
      </contour>
      <contour>
        <pt x="110" y="230" on="1"/>
        <pt x="340" y="230" on="1"/>
        <pt x="340" y="0" on="1"/>
        <pt x="110" y="0" on="1"/>
      </contour>
      <contour>
        <pt x="410" y="230" on="1"/>
        <pt x="640" y="230" on="1"/>
        <pt x="640" y="0" on="1"/>
        <pt x="410" y="0" on="1"/>
      </contour>
    </TTGlyph>
    <TTGlyph name="exclamdown" xMin="100" yMin="0" xMax="350" yMax="1400">
      <contour>
        <pt x="110" y="1170" on="1"/>
        <pt x="110" y="1400" on="1"/>
        <pt x="340" y="1400" on="1"/>
        <pt x="340" y="1170" on="1"/>
      </contour>
      <contour>
        <pt x="330" y="1010" on="1"/>
        <pt x="350" y="520" on="1"/>
        <pt x="350" y="0" on="1"/>
        <pt x="100" y="0" on="1"/>
        <pt x="100" y="520" on="1"/>
        <pt x="120" y="1010" on="1"/>
      </contour>
    </TTGlyph>
    <TTGlyph name="f" xMin="100" yMin="0" xMax="810" yMax="1400">
      <contour>
        <pt x="350" y="0" on="1"/>
        <pt x="100" y="0" on="1"/>
        <pt x="100" y="1400" on="1"/>
        <pt x="810" y="1400" on="1"/>
        <pt x="810" y="1170" on="1"/>
        <pt x="350" y="1170" on="1"/>
        <pt x="350" y="820" on="1"/>
        <pt x="730" y="820" on="1"/>
        <pt x="730" y="580" on="1"/>
        <pt x="350" y="580" on="1"/>
      </contour>
    </TTGlyph>
    <TTGlyph name="figuredash" xMin="100" yMin="600" xMax="1100" yMax="800">
      <contour>
        <pt x="100" y="800" on="1"/>
        <pt x="1100" y="800" on="1"/>
        <pt x="1100" y="600" on="1"/>
        <pt x="100" y="600" on="1"/>
      </contour>
    </TTGlyph>
    <TTGlyph name="five" xMin="100" yMin="0" xMax="830" yMax="1400">
      <contour>
        <pt x="670" y="0" on="1"/>
        <pt x="260" y="0" on="1"/>
        <pt x="194" y="0" on="0"/>
        <pt x="100" y="94" on="0"/>
        <pt x="100" y="160" on="1"/>
        <pt x="100" y="410" on="1"/>
        <pt x="330" y="410" on="1"/>
        <pt x="330" y="303" on="1"/>
        <pt x="330" y="277" on="0"/>
        <pt x="367" y="240" on="0"/>
        <pt x="393" y="240" on="1"/>
        <pt x="538" y="240" on="1"/>
        <pt x="564" y="240" on="0"/>
        <pt x="600" y="277" on="0"/>
        <pt x="600" y="303" on="1"/>
        <pt x="600" y="547" on="1"/>
        <pt x="600" y="573" on="0"/>
        <pt x="564" y="610" on="0"/>
        <pt x="538" y="610" on="1"/>
        <pt x="260" y="610" on="1"/>
        <pt x="194" y="610" on="0"/>
        <pt x="100" y="704" on="0"/>
        <pt x="100" y="770" on="1"/>
        <pt x="100" y="1400" on="1"/>
        <pt x="820" y="1400" on="1"/>
        <pt x="820" y="1170" on="1"/>
        <pt x="330" y="1170" on="1"/>
        <pt x="330" y="903" on="1"/>
        <pt x="330" y="877" on="0"/>
        <pt x="366" y="840" on="0"/>
        <pt x="392" y="840" on="1"/>
        <pt x="670" y="840" on="1"/>
        <pt x="736" y="840" on="0"/>
        <pt x="830" y="746" on="0"/>
        <pt x="830" y="680" on="1"/>
        <pt x="830" y="160" on="1"/>
        <pt x="830" y="94" on="0"/>
        <pt x="736" y="0" on="0"/>
      </contour>
    </TTGlyph>
    <TTGlyph name="four" xMin="100" yMin="0" xMax="830" yMax="1400">
      <contour>
        <pt x="550" y="260" on="1"/>
        <pt x="100" y="260" on="1"/>
        <pt x="100" y="450" on="1"/>
        <pt x="510" y="1400" on="1"/>
        <pt x="780" y="1400" on="1"/>
        <pt x="780" y="480" on="1"/>
        <pt x="830" y="480" on="1"/>
        <pt x="830" y="260" on="1"/>
        <pt x="780" y="260" on="1"/>
        <pt x="780" y="0" on="1"/>
        <pt x="550" y="0" on="1"/>
      </contour>
      <contour>
        <pt x="550" y="480" on="1"/>
        <pt x="550" y="1002" on="1"/>
        <pt x="327" y="480" on="1"/>
      </contour>
    </TTGlyph>
    <TTGlyph name="fraction" xMin="50" yMin="0" xMax="850" yMax="1400">
      <contour>
        <pt x="50" y="0" on="1"/>
        <pt x="650" y="1400" on="1"/>
        <pt x="850" y="1400" on="1"/>
        <pt x="250" y="0" on="1"/>
      </contour>
    </TTGlyph>
    <TTGlyph name="g" xMin="100" yMin="0" xMax="912" yMax="1400">
      <contour>
        <pt x="100" y="145" on="1"/>
        <pt x="100" y="1255" on="1"/>
        <pt x="100" y="1315" on="0"/>
        <pt x="185" y="1400" on="0"/>
        <pt x="245" y="1400" on="1"/>
        <pt x="685" y="1400" on="1"/>
        <pt x="745" y="1400" on="0"/>
        <pt x="830" y="1315" on="0"/>
        <pt x="830" y="1255" on="1"/>
        <pt x="830" y="955" on="1"/>
        <pt x="600" y="955" on="1"/>
        <pt x="600" y="1152" on="1"/>
        <pt x="350" y="1152" on="1"/>
        <pt x="350" y="248" on="1"/>
        <pt x="537" y="248" on="1"/>
        <pt x="563" y="248" on="0"/>
        <pt x="600" y="285" on="0"/>
        <pt x="600" y="311" on="1"/>
        <pt x="600" y="470" on="1"/>
        <pt x="480" y="470" on="1"/>
        <pt x="480" y="700" on="1"/>
        <pt x="830" y="700" on="1"/>
        <pt x="830" y="144" on="1"/>
        <pt x="830" y="57" on="0"/>
        <pt x="904" y="18" on="1"/>
        <pt x="912" y="13" on="0"/>
        <pt x="912" y="8" on="1"/>
        <pt x="912" y="0" on="0"/>
        <pt x="904" y="0" on="1"/>
        <pt x="826" y="0" on="1"/>
        <pt x="766" y="0" on="0"/>
        <pt x="681" y="87" on="0"/>
        <pt x="680" y="148" on="1"/>
        <pt x="678" y="148" on="1"/>
        <pt x="678" y="140" on="1"/>
        <pt x="678" y="82" on="0"/>
        <pt x="595" y="0" on="0"/>
        <pt x="536" y="0" on="1"/>
        <pt x="245" y="0" on="1"/>
        <pt x="185" y="0" on="0"/>
        <pt x="100" y="85" on="0"/>
      </contour>
    </TTGlyph>
    <TTGlyph name="gbreve" xMin="100" yMin="0" xMax="912" yMax="1700">
      <contour>
        <pt x="466" y="1504" on="1"/>
        <pt x="394" y="1504" on="0"/>
        <pt x="281" y="1598" on="0"/>
        <pt x="270" y="1667" on="1"/>
        <pt x="381" y="1700" on="1"/>
        <pt x="381" y="1667" on="0"/>
        <pt x="433" y="1619" on="0"/>
        <pt x="466" y="1619" on="1"/>
        <pt x="499" y="1619" on="0"/>
        <pt x="551" y="1667" on="0"/>
        <pt x="551" y="1700" on="1"/>
        <pt x="662" y="1667" on="1"/>
        <pt x="651" y="1598" on="0"/>
        <pt x="538" y="1504" on="0"/>
      </contour>
      <contour>
        <pt x="100" y="145" on="1"/>
        <pt x="100" y="1255" on="1"/>
        <pt x="100" y="1315" on="0"/>
        <pt x="185" y="1400" on="0"/>
        <pt x="245" y="1400" on="1"/>
        <pt x="685" y="1400" on="1"/>
        <pt x="745" y="1400" on="0"/>
        <pt x="830" y="1315" on="0"/>
        <pt x="830" y="1255" on="1"/>
        <pt x="830" y="955" on="1"/>
        <pt x="600" y="955" on="1"/>
        <pt x="600" y="1152" on="1"/>
        <pt x="350" y="1152" on="1"/>
        <pt x="350" y="248" on="1"/>
        <pt x="537" y="248" on="1"/>
        <pt x="563" y="248" on="0"/>
        <pt x="600" y="285" on="0"/>
        <pt x="600" y="311" on="1"/>
        <pt x="600" y="470" on="1"/>
        <pt x="480" y="470" on="1"/>
        <pt x="480" y="700" on="1"/>
        <pt x="830" y="700" on="1"/>
        <pt x="830" y="144" on="1"/>
        <pt x="830" y="57" on="0"/>
        <pt x="904" y="18" on="1"/>
        <pt x="912" y="13" on="0"/>
        <pt x="912" y="8" on="1"/>
        <pt x="912" y="0" on="0"/>
        <pt x="904" y="0" on="1"/>
        <pt x="826" y="0" on="1"/>
        <pt x="766" y="0" on="0"/>
        <pt x="681" y="87" on="0"/>
        <pt x="680" y="148" on="1"/>
        <pt x="678" y="148" on="1"/>
        <pt x="678" y="140" on="1"/>
        <pt x="678" y="82" on="0"/>
        <pt x="595" y="0" on="0"/>
        <pt x="536" y="0" on="1"/>
        <pt x="245" y="0" on="1"/>
        <pt x="185" y="0" on="0"/>
        <pt x="100" y="85" on="0"/>
      </contour>
    </TTGlyph>
    <TTGlyph name="gcircumflex" xMin="100" yMin="0" xMax="912" yMax="1800">
      <contour>
        <pt x="374" y="1800" on="1"/>
        <pt x="547" y="1800" on="1"/>
        <pt x="731" y="1500" on="1"/>
        <pt x="576" y="1500" on="1"/>
        <pt x="461" y="1682" on="1"/>
        <pt x="345" y="1500" on="1"/>
        <pt x="190" y="1500" on="1"/>
      </contour>
      <contour>
        <pt x="100" y="145" on="1"/>
        <pt x="100" y="1255" on="1"/>
        <pt x="100" y="1315" on="0"/>
        <pt x="185" y="1400" on="0"/>
        <pt x="245" y="1400" on="1"/>
        <pt x="685" y="1400" on="1"/>
        <pt x="745" y="1400" on="0"/>
        <pt x="830" y="1315" on="0"/>
        <pt x="830" y="1255" on="1"/>
        <pt x="830" y="955" on="1"/>
        <pt x="600" y="955" on="1"/>
        <pt x="600" y="1152" on="1"/>
        <pt x="350" y="1152" on="1"/>
        <pt x="350" y="248" on="1"/>
        <pt x="537" y="248" on="1"/>
        <pt x="563" y="248" on="0"/>
        <pt x="600" y="285" on="0"/>
        <pt x="600" y="311" on="1"/>
        <pt x="600" y="470" on="1"/>
        <pt x="480" y="470" on="1"/>
        <pt x="480" y="700" on="1"/>
        <pt x="830" y="700" on="1"/>
        <pt x="830" y="144" on="1"/>
        <pt x="830" y="57" on="0"/>
        <pt x="904" y="18" on="1"/>
        <pt x="912" y="13" on="0"/>
        <pt x="912" y="8" on="1"/>
        <pt x="912" y="0" on="0"/>
        <pt x="904" y="0" on="1"/>
        <pt x="826" y="0" on="1"/>
        <pt x="766" y="0" on="0"/>
        <pt x="681" y="87" on="0"/>
        <pt x="680" y="148" on="1"/>
        <pt x="678" y="148" on="1"/>
        <pt x="678" y="140" on="1"/>
        <pt x="678" y="82" on="0"/>
        <pt x="595" y="0" on="0"/>
        <pt x="536" y="0" on="1"/>
        <pt x="245" y="0" on="1"/>
        <pt x="185" y="0" on="0"/>
        <pt x="100" y="85" on="0"/>
      </contour>
    </TTGlyph>
    <TTGlyph name="gdotaccent" xMin="100" yMin="0" xMax="912" yMax="1700">
      <contour>
        <pt x="380" y="1700" on="1"/>
        <pt x="530" y="1700" on="1"/>
        <pt x="530" y="1550" on="1"/>
        <pt x="380" y="1550" on="1"/>
      </contour>
      <contour>
        <pt x="100" y="145" on="1"/>
        <pt x="100" y="1255" on="1"/>
        <pt x="100" y="1315" on="0"/>
        <pt x="185" y="1400" on="0"/>
        <pt x="245" y="1400" on="1"/>
        <pt x="685" y="1400" on="1"/>
        <pt x="745" y="1400" on="0"/>
        <pt x="830" y="1315" on="0"/>
        <pt x="830" y="1255" on="1"/>
        <pt x="830" y="955" on="1"/>
        <pt x="600" y="955" on="1"/>
        <pt x="600" y="1152" on="1"/>
        <pt x="350" y="1152" on="1"/>
        <pt x="350" y="248" on="1"/>
        <pt x="537" y="248" on="1"/>
        <pt x="563" y="248" on="0"/>
        <pt x="600" y="285" on="0"/>
        <pt x="600" y="311" on="1"/>
        <pt x="600" y="470" on="1"/>
        <pt x="480" y="470" on="1"/>
        <pt x="480" y="700" on="1"/>
        <pt x="830" y="700" on="1"/>
        <pt x="830" y="144" on="1"/>
        <pt x="830" y="57" on="0"/>
        <pt x="904" y="18" on="1"/>
        <pt x="912" y="13" on="0"/>
        <pt x="912" y="8" on="1"/>
        <pt x="912" y="0" on="0"/>
        <pt x="904" y="0" on="1"/>
        <pt x="826" y="0" on="1"/>
        <pt x="766" y="0" on="0"/>
        <pt x="681" y="87" on="0"/>
        <pt x="680" y="148" on="1"/>
        <pt x="678" y="148" on="1"/>
        <pt x="678" y="140" on="1"/>
        <pt x="678" y="82" on="0"/>
        <pt x="595" y="0" on="0"/>
        <pt x="536" y="0" on="1"/>
        <pt x="245" y="0" on="1"/>
        <pt x="185" y="0" on="0"/>
        <pt x="100" y="85" on="0"/>
      </contour>
    </TTGlyph>
    <TTGlyph name="germandbls" xMin="100" yMin="0" xMax="830" yMax="1400">
      <contour>
        <pt x="830" y="1240" on="1"/>
        <pt x="830" y="860" on="1"/>
        <pt x="830" y="808" on="0"/>
        <pt x="771" y="727" on="0"/>
        <pt x="726" y="710" on="1"/>
        <pt x="773" y="693" on="0"/>
        <pt x="830" y="610" on="0"/>
        <pt x="830" y="560" on="1"/>
        <pt x="830" y="144" on="1"/>
        <pt x="830" y="84" on="0"/>
        <pt x="746" y="0" on="0"/>
        <pt x="686" y="0" on="1"/>
        <pt x="525" y="0" on="1"/>
        <pt x="517" y="0" on="0"/>
        <pt x="517" y="8" on="1"/>
        <pt x="517" y="13" on="0"/>
        <pt x="525" y="18" on="1"/>
        <pt x="600" y="59" on="0"/>
        <pt x="600" y="144" on="1"/>
        <pt x="600" y="537" on="1"/>
        <pt x="600" y="563" on="0"/>
        <pt x="564" y="600" on="0"/>
        <pt x="538" y="600" on="1"/>
        <pt x="430" y="600" on="1"/>
        <pt x="430" y="820" on="1"/>
        <pt x="538" y="820" on="1"/>
        <pt x="564" y="820" on="0"/>
        <pt x="600" y="857" on="0"/>
        <pt x="600" y="883" on="1"/>
        <pt x="600" y="1107" on="1"/>
        <pt x="600" y="1133" on="0"/>
        <pt x="564" y="1170" on="0"/>
        <pt x="538" y="1170" on="1"/>
        <pt x="383" y="1170" on="1"/>
        <pt x="357" y="1170" on="0"/>
        <pt x="320" y="1133" on="0"/>
        <pt x="320" y="1107" on="1"/>
        <pt x="320" y="0" on="1"/>
        <pt x="100" y="0" on="1"/>
        <pt x="100" y="1240" on="1"/>
        <pt x="100" y="1306" on="0"/>
        <pt x="194" y="1400" on="0"/>
        <pt x="260" y="1400" on="1"/>
        <pt x="670" y="1400" on="1"/>
        <pt x="736" y="1400" on="0"/>
        <pt x="830" y="1306" on="0"/>
      </contour>
    </TTGlyph>
    <TTGlyph name="grave" xMin="100" yMin="1050" xMax="500" yMax="1450">
      <contour>
        <pt x="360" y="1450" on="1"/>
        <pt x="500" y="1050" on="1"/>
        <pt x="300" y="1050" on="1"/>
        <pt x="100" y="1450" on="1"/>
      </contour>
    </TTGlyph>
    <TTGlyph name="gravecomb" xMin="100" yMin="1490" xMax="460" yMax="1750">
      <contour>
        <pt x="300" y="1490" on="1"/>
        <pt x="100" y="1750" on="1"/>
        <pt x="320" y="1750" on="1"/>
        <pt x="460" y="1490" on="1"/>
      </contour>
    </TTGlyph>
    <TTGlyph name="greater" xMin="100" yMin="230" xMax="800" yMax="1170">
      <contour>
        <pt x="800" y="580" on="1"/>
        <pt x="100" y="230" on="1"/>
        <pt x="100" y="440" on="1"/>
        <pt x="606" y="700" on="1"/>
        <pt x="100" y="960" on="1"/>
        <pt x="100" y="1170" on="1"/>
        <pt x="800" y="820" on="1"/>
      </contour>
    </TTGlyph>
    <TTGlyph name="guillemotleft" xMin="100" yMin="360" xMax="884" yMax="1040">
      <contour>
        <pt x="301" y="700" on="1"/>
        <pt x="560" y="360" on="1"/>
        <pt x="372" y="360" on="1"/>
        <pt x="100" y="700" on="1"/>
        <pt x="372" y="1040" on="1"/>
        <pt x="560" y="1040" on="1"/>
      </contour>
      <contour>
        <pt x="884" y="1040" on="1"/>
        <pt x="625" y="700" on="1"/>
        <pt x="884" y="360" on="1"/>
        <pt x="696" y="360" on="1"/>
        <pt x="424" y="700" on="1"/>
        <pt x="696" y="1040" on="1"/>
      </contour>
    </TTGlyph>
    <TTGlyph name="guillemotright" xMin="100" yMin="360" xMax="884" yMax="1040">
      <contour>
        <pt x="612" y="1040" on="1"/>
        <pt x="884" y="700" on="1"/>
        <pt x="612" y="360" on="1"/>
        <pt x="424" y="360" on="1"/>
        <pt x="683" y="700" on="1"/>
        <pt x="424" y="1040" on="1"/>
      </contour>
      <contour>
        <pt x="288" y="360" on="1"/>
        <pt x="100" y="360" on="1"/>
        <pt x="359" y="700" on="1"/>
        <pt x="100" y="1040" on="1"/>
        <pt x="288" y="1040" on="1"/>
        <pt x="560" y="700" on="1"/>
      </contour>
    </TTGlyph>
    <TTGlyph name="guilsinglleft" xMin="50" yMin="360" xMax="510" yMax="1040">
      <contour>
        <pt x="251" y="700" on="1"/>
        <pt x="510" y="360" on="1"/>
        <pt x="322" y="360" on="1"/>
        <pt x="50" y="700" on="1"/>
        <pt x="322" y="1040" on="1"/>
        <pt x="510" y="1040" on="1"/>
      </contour>
    </TTGlyph>
</ttFont>
